<svg width="24" height="24" viewBox="0 0 24 24" fill="none" xmlns="http://www.w3.org/2000/svg">
<g id="icon / 24-cont / events / assignment-24-active">
<path id="assignment-24" fill-rule="evenodd" clip-rule="evenodd" d="M9.7 4C9.3134 4 9 4.3134 9 4.7V5.3C9 5.6866 9.3134 6 9.7 6H14.3C14.6866 6 15 5.6866 15 5.3V4.7C15 4.3134 14.6866 4 14.3 4H9.7ZM18.4711 5H16.5949C16.3697 5 16.1821 5.18735 16.1821 5.41218V5.71194C16.1821 6.49883 15.5442 7.13583 14.7562 7.13583H9.31525C8.52725 7.13583 7.88934 6.49883 7.88934 5.71194V5.41218C7.88934 5.18735 7.70172 5 7.47658 5H5.60038C5.26267 5 5 5.2623 5 5.56206V20.4379C5 20.7377 5.26267 21 5.56286 21H18.4336C18.7337 21 18.9964 20.7377 18.9964 20.4379V5.56206C19.0339 5.2623 18.7713 5 18.4711 5ZM7 9H17V11H7V9ZM17 13H7V15H17V13ZM7 17H14V19H7V17Z" fill="#DCBC65"/>
</g>
</svg>
