<svg width="24" height="24" viewBox="0 0 24 24" fill="none" xmlns="http://www.w3.org/2000/svg">
<g id="icon / 24-cont / events / clock-24-active">
<path id="clock-24" fill-rule="evenodd" clip-rule="evenodd" d="M12 21C16.9706 21 21 16.9706 21 12C21 7.02944 16.9706 3 12 3C7.02944 3 3 7.02944 3 12C3 16.9706 7.02944 21 12 21ZM12 19C8.13401 19 5 15.866 5 12C5 8.13401 8.13401 5 12 5C15.866 5 19 8.13401 19 12C19 15.866 15.866 19 12 19ZM12.7609 11.7203C12.7609 11.7673 12.7541 11.8123 12.747 11.8573L15.167 14.0267C15.5292 14.3512 15.5595 14.9077 15.2349 15.2698C15.061 15.4637 14.8203 15.5625 14.5789 15.5625C14.3698 15.5625 14.1596 15.4886 13.9916 15.3377L11.2671 12.8954C10.9977 12.6538 10.9997 11.8383 11 11.7275C11 11.7246 11 11.7222 11 11.7203V7.88043C11 7.39424 11.3943 7 11.8805 7C12.3667 7 12.7609 7.39424 12.7609 7.88043V11.7203Z" fill="#DCBC65"/>
</g>
</svg>
