<svg width="24" height="24" viewBox="0 0 24 24" fill="none" xmlns="http://www.w3.org/2000/svg">
<g id="icon / 24-cont / events / mute-24-active">
<path id="Mask" fill-rule="evenodd" clip-rule="evenodd" d="M18.871 4L20.285 5.414L15.028 10.67L14.998 17.663C14.998 18.669 13.781 19.24 12.978 18.638L9.943 15.757L5.414 20.285L4 18.871L7.919 14.951V14.952L8.014 14.856L18.871 4ZM6.0046 8.99594H9.05212L13.1314 5.2448C13.7929 4.77214 14.6371 4.99433 15 5.58295L6.0046 15.0139C5.71326 15.0139 5.57996 14.9394 5.40624 14.8423C5.39542 14.8363 5.38444 14.8302 5.37326 14.824C5.18256 14.7181 5.02662 14.5042 5 14.2036V10C5 9.42907 5.39161 8.99594 6.0046 8.99594Z" fill="#DCBC65"/>
<mask id="mask0" mask-type="alpha" maskUnits="userSpaceOnUse" x="4" y="4" width="17" height="17">
<path id="Mask_2" fill-rule="evenodd" clip-rule="evenodd" d="M18.871 4L20.285 5.414L15.028 10.67L14.998 17.663C14.998 18.669 13.781 19.24 12.978 18.638L9.943 15.757L5.414 20.285L4 18.871L7.919 14.951V14.952L8.014 14.856L18.871 4ZM6.0046 8.99594H9.05212L13.1314 5.2448C13.7929 4.77214 14.6371 4.99433 15 5.58295L6.0046 15.0139C5.71326 15.0139 5.57996 14.9394 5.40624 14.8423C5.39542 14.8363 5.38444 14.8302 5.37326 14.824C5.18256 14.7181 5.02662 14.5042 5 14.2036V10C5 9.42907 5.39161 8.99594 6.0046 8.99594Z" fill="white"/>
</mask>
<g mask="url(#mask0)">
<g id="Colors / Dark-Theme / Grayscale / Filled / $base-gray">
<rect id="Dark-Theme / Grayscale / Filled / $base-gray" width="24" height="24" rx="2" fill="#DCBC65"/>
</g>
</g>
</g>
</svg>
