<svg width="24" height="24" viewBox="0 0 24 24" fill="none" xmlns="http://www.w3.org/2000/svg">
<g id="icon / 24-cont / events / sound-24-active">
<path id="sound-24" fill-rule="evenodd" clip-rule="evenodd" d="M6.98285 8.99594L10.9924 5.2448C11.8145 4.65046 13 5.20878 13 6.16332V17.8159C13 18.8065 11.8337 19.3468 11.0115 18.7525L6.98285 15.0139H3.98743C3.39469 15.0139 3 14.6032 3 14.0449V9.9892C3 9.43088 3.39209 8.99594 3.98743 8.99594H6.98285ZM18.3835 6.19103C18.0226 5.88374 17.4992 5.96057 17.1925 6.32547C16.9038 6.70958 16.9398 7.28575 17.3008 7.59304C18.4917 8.64934 19.2677 10.2242 19.2677 11.9911C19.2677 13.758 18.4917 15.3521 17.3008 16.3892C16.9398 16.6965 16.9038 17.2726 17.1925 17.6567C17.4812 18.0409 18.0226 18.1177 18.3835 17.8104C19.9714 16.4468 21 14.3534 21 12.0103C20.982 9.64803 19.9714 7.55463 18.3835 6.19103ZM16.5049 9.17796C16.1311 8.90884 15.5705 8.94248 15.2528 9.2957C14.9351 9.64891 15.0098 10.1535 15.4023 10.4394C15.9069 10.8095 16.2246 11.3813 16.2246 12.0037C16.2246 12.6765 15.8695 13.2651 15.3088 13.6352C14.9537 13.8707 14.8977 14.3416 15.178 14.6444L15.2528 14.7116C15.5518 15.0312 16.1124 15.0985 16.4675 14.8462C17.402 14.1902 18 13.1474 18 12.0037C18 10.8599 17.4207 9.85075 16.5049 9.17796Z" fill="#DCBC65"/>
</g>
</svg>
