<svg width="24" height="24" viewBox="0 0 24 24" fill="none" xmlns="http://www.w3.org/2000/svg">
<g id="icon / 24-cont / events / timer-24-active">
<path id="timer-24" fill-rule="evenodd" clip-rule="evenodd" d="M9 3V5H14V3H9ZM16.8364 8.22872C15.4765 6.85249 13.5876 6 11.5 6C7.35902 6 4 9.35429 4 13.497C4 17.6396 7.35902 21 11.5 21C15.641 21 19 17.6396 19 13.497C19 12.1638 18.6521 10.9122 18.0422 9.82783L19.7765 8.65808L18.6581 7L16.8364 8.22872ZM6 13.497C6 10.4603 8.4621 8 11.5 8C14.5379 8 17 10.4603 17 13.497C17 16.5352 14.5362 19 11.5 19C8.46377 19 6 16.5352 6 13.497Z" fill="#DCBC65"/>
</g>
</svg>
