<svg xmlns="http://www.w3.org/2000/svg" xmlns:xlink="http://www.w3.org/1999/xlink" width="166" height="155" viewBox="0 0 166 155">
    <defs>
        <rect id="a" width="92" height="44" rx="2"/>
        <circle id="c" cx="8" cy="8" r="8"/>
        <path id="e" d="M7.564 3.2l2.618 4.364H4.945L7.564 3.2zm3.054 9.6a2.182 2.182 0 1 1 0-4.364 2.182 2.182 0 0 1 0 4.364zM3.2 8.436h4.364V12.8H3.2V8.436z"/>
    </defs>
    <g fill="none" fill-rule="evenodd">
        <path fill="#2B2B2B" d="M0 0h166v155H0z"/>
        <g transform="translate(42 55)">
            <mask id="b" fill="#fff">
                <use xlink:href="#a"/>
            </mask>
            <g fill="#DCBC65" mask="url(#b)">
                <path d="M0 0h92v44H0z"/>
            </g>
        </g>
        <path fill="#479CFF" d="M74 55h8v44h-8zM42 55h16v44H42z"/>
        <text fill="#1A1A1A" font-family="ProximaNova-Semibold, Proxima Nova" font-size="14" font-weight="500" letter-spacing=".5">
            <tspan x="82" y="80">TEXT</tspan>
        </text>
        <g transform="translate(58 69)">
            <mask id="d" fill="#fff">
                <use xlink:href="#c"/>
            </mask>
            <g mask="url(#d)">
                <rect width="16" height="16" x="-55" y="-7" rx="2" transform="translate(55 7)"/>
            </g>
            <mask id="f" fill="#fff">
                <use xlink:href="#e"/>
            </mask>
            <use fill="#1A1A1A" fill-rule="nonzero" xlink:href="#e"/>
            <g fill="#1A1A1A" mask="url(#f)">
                <path d="M0 0h16v16H0z"/>
            </g>
        </g>
        <text fill="#479CFF" font-family="ProximaNova-Regular, Proxima Nova" font-size="12">
            <tspan x="62" y="111">$8-sp</tspan>
        </text>
        <text fill="#479CFF" font-family="ProximaNova-Regular, Proxima Nova" font-size="12">
            <tspan x="30" y="49">$16-sp</tspan>
        </text>
    </g>
</svg>
