<svg xmlns="http://www.w3.org/2000/svg" width="12" height="24" viewBox="0 0 12 24">
    <g fill="none" fill-rule="evenodd">
        <path fill="#454545" fill-rule="nonzero" d="M10.364 5.455V18A4.362 4.362 0 0 1 6 22.364 4.362 4.362 0 0 1 1.636 18V4.364a2.728 2.728 0 0 1 5.455 0v11.454c0 .6-.491 1.091-1.091 1.091s-1.09-.49-1.09-1.09V5.454H3.272v10.363a2.728 2.728 0 0 0 5.454 0V4.364A4.362 4.362 0 0 0 4.364 0 4.362 4.362 0 0 0 0 4.364V18c0 3.316 2.684 6 6 6s6-2.684 6-6V5.455h-1.636z"/>
        <path d="M-9-3h30v30H-9z"/>
    </g>
</svg>
