<?xml version="1.0" encoding="UTF-8"?>
<svg width="16px" height="16px" viewBox="0 0 16 16" version="1.1" xmlns="http://www.w3.org/2000/svg" xmlns:xlink="http://www.w3.org/1999/xlink">
    <!-- Generator: Sketch 53.2 (72643) - https://sketchapp.com -->
    <title>icons / comments copy</title>
    <desc>Created with Sketch.</desc>
    <g id="Profiles" stroke="none" stroke-width="1" fill="none" fill-rule="evenodd">
        <g id="01-Profiles-/-02-PersonalProfile-/-01_01_PersonalProfile" transform="translate(-393.000000, -1090.000000)">
            <g id="icons-/-comments-copy" transform="translate(389.000000, 1086.000000)">
                <rect id="Rectangle" opacity="0.109626118" x="0" y="0" width="24" height="24"></rect>
                <path d="M17.9775281,4 L6.02247191,4 C4.91056439,4.01319054 4.01215308,4.9882955 4,6.19512195 L4,14.4634146 C4.01215308,15.6702411 4.91056439,16.645346 6.02247191,16.6585366 L9.46067416,16.6585366 L11.8202247,19.902439 C11.8626639,19.9638551 11.929268,20 12,20 C12.070732,20 12.1373361,19.9638551 12.1797753,19.902439 L14.5393258,16.6585366 L17.9775281,16.6585366 C19.0894356,16.645346 19.9878469,15.6702411 20,14.4634146 L20,6.19512195 C19.9878469,4.9882955 19.0894356,4.01319054 17.9775281,4 L17.9775281,4 Z M18.8764045,13.9359056 C18.8654376,14.755013 18.2325231,15.4162512 17.4485019,15.4277089 L14.2255217,15.4277089 C14.1605039,15.4238751 14.0984078,15.4563126 14.0623328,15.5129548 L12.0224719,18.2195122 L9.98261102,15.5129548 C9.94653603,15.4563126 9.88443991,15.4238751 9.81942215,15.4277089 L6.59644195,15.4277089 C5.81242069,15.4162512 5.17950626,14.755013 5.16853933,13.9359056 L5.16853933,6.71131547 C5.17950626,5.89220816 5.81242069,5.23096991 6.59644195,5.2195122 L17.4485019,5.2195122 C18.2325231,5.23096991 18.8654376,5.89220816 18.8764045,6.71131547 L18.8764045,13.9359056 Z" id="Shape" fill="#454545" fill-rule="nonzero"></path>
            </g>
        </g>
    </g>
</svg>