<svg xmlns="http://www.w3.org/2000/svg" width="20" height="20" viewBox="0 0 20 20">
    <g fill="none" fill-rule="evenodd">
        <path d="M-5-5h30v30H-5z"/>
        <path fill="#DCBC65" fill-rule="nonzero" d="M3.5 0C1.56 0 0 1.56 0 3.5v13C0 18.44 1.56 20 3.5 20H14l6-6V3.5C20 1.56 18.44 0 16.5 0h-13zm.25 2h12.5c.966 0 1.75.784 1.75 1.75V13h-1.5c-1.94 0-3.5 1.56-3.5 3.5V18H3.75A1.75 1.75 0 0 1 2 16.25V3.75C2 2.784 2.784 2 3.75 2zm8.69 2.77c-.16 0-.32.02-.47.06-.94.26-1.47 1.22-1.23 2.17.05.15.12.3.21.44l3.23-.88c0-.17-.02-.34-.06-.51-.21-.75-.9-1.28-1.68-1.28zM6.17 6.5c-.17 0-.32 0-.47.05-.93.26-1.48 1.22-1.23 2.15.03.16.12.3.21.46l3.23-.88c0-.17-.02-.34-.06-.5A1.72 1.72 0 0 0 6.17 6.5zm8.55 2.76l-9.13 2.51a5.266 5.266 0 0 0 5.36 1.64 5.273 5.273 0 0 0 3.77-4.15z"/>
    </g>
</svg>
