<?xml version="1.0" encoding="UTF-8"?>
<svg width="26px" height="27px" viewBox="0 0 26 27" version="1.1" xmlns="http://www.w3.org/2000/svg" xmlns:xlink="http://www.w3.org/1999/xlink">
    <!-- Generator: Sketch 54.1 (76490) - https://sketchapp.com -->
    <title>Group 11 Copy 2</title>
    <desc>Created with Sketch.</desc>
    <g id="Page-1" stroke="none" stroke-width="1" fill="none" fill-rule="evenodd">
        <g id="Color-&amp;-Typography_Dark-Copy" transform="translate(-902.000000, -2680.000000)">
            <g id="Group-11-Copy-2" transform="translate(902.000000, 2681.000000)">
                <circle id="Oval" stroke="#DCBC65" cx="13" cy="12.5" r="12.5"></circle>
                <g id="?-2" transform="translate(9.637500, 6.835417)" fill="#DCBC65" fill-rule="nonzero">
                    <path d="M3.55015133,8.32615539 C3.17242547,8.00592089 2.98356538,7.61291172 2.98356538,7.14711608 C2.98356538,6.85599381 3.04894002,6.58913574 3.17969128,6.34653384 C3.31044254,6.10393195 3.47266852,5.90500138 3.66637409,5.74973617 C3.86007966,5.59447096 4.07073131,5.43193013 4.29833535,5.26210881 C4.52593939,5.09228748 4.73659104,4.93459862 4.93029661,4.78903748 C5.12400218,4.64347635 5.28622816,4.4688056 5.41697942,4.26502001 C5.54773068,4.06123443 5.61310533,3.83804403 5.61310533,3.59544214 C5.61310533,3.20727911 5.46540705,2.88462344 5.17000605,2.62746543 C4.87460506,2.37030742 4.45088048,2.24173035 3.89881961,2.24173035 C2.9593476,2.24173035 2.18937952,2.63959148 1.58889225,3.43532569 L0.8625,2.64929949 C1.627637,1.65948377 2.67847395,1.16458333 4.01504237,1.16458333 C4.87703215,1.16458333 5.56709789,1.38049578 6.08526029,1.81232715 C6.60342269,2.24415852 6.8625,2.78030066 6.8625,3.42076965 C6.8625,3.91567751 6.71480172,4.35478035 6.41940073,4.73809134 C6.12399973,5.12140233 5.80196906,5.41494622 5.45329903,5.6187318 C5.10462901,5.82251739 4.78259833,6.06511565 4.48719734,6.34653384 C4.19179634,6.62795204 4.04409806,6.92392191 4.04409806,7.23445233 C4.04409806,7.50616645 4.17484736,7.74391274 4.43634988,7.94769833 L3.55015133,8.32615539 Z M4.40729419,10.9316867 C4.25232973,11.0869519 4.0683122,11.1645833 3.85523608,11.1645833 C3.64215995,11.1645833 3.45572114,11.0869519 3.29591404,10.9316867 C3.13610695,10.7764215 3.0562046,10.5871948 3.0562046,10.3640011 C3.0562046,10.1408074 3.13610695,9.95158071 3.29591404,9.7963155 C3.45572114,9.64105029 3.64215995,9.56341885 3.85523608,9.56341885 C4.0683122,9.56341885 4.25475102,9.64105029 4.41455811,9.7963155 C4.57436521,9.95158071 4.65426755,10.1408074 4.65426755,10.3640011 C4.65426755,10.5871948 4.57194392,10.7764215 4.40729419,10.9316867 Z" id="?"></path>
                </g>
            </g>
        </g>
    </g>
</svg>