<?xml version="1.0" encoding="UTF-8"?>
<svg width="16px" height="15px" viewBox="0 0 16 15" version="1.1" xmlns="http://www.w3.org/2000/svg" xmlns:xlink="http://www.w3.org/1999/xlink">
    <!-- Generator: Sketch 53.2 (72643) - https://sketchapp.com -->
    <title>icons / like-hovered</title>
    <desc>Created with Sketch.</desc>
    <g id="Profiles" stroke="none" stroke-width="1" fill="none" fill-rule="evenodd">
        <g id="01-Profiles-/-02-PersonalProfile-/-01_01_PersonalProfile" transform="translate(-447.000000, -1067.000000)">
            <g id="Group-31" transform="translate(389.000000, 1062.000000)">
                <g id="icons-/-like-hovered" transform="translate(54.000000, 0.000000)">
                    <rect id="Rectangle" opacity="0.200000003" x="0" y="0" width="24" height="24"></rect>
                    <path d="M15.6530825,5 C13.9644723,5 12.7105538,6.24849216 11.9916405,7.17129071 C11.2727273,6.24849216 10.0188088,5 8.33019854,5 C5.93939394,5 4,7.11700844 4,9.68636912 C4,10.3015682 4.10031348,10.8986731 4.31765935,11.4595899 C4.70219436,12.490953 6.60815047,14.5536791 9.26645768,17.358263 C10.2361546,18.3896261 11.0721003,19.2581423 11.4900731,19.7647768 C11.6238245,19.9276236 11.7910136,20 11.9916405,20 C12.1755486,20 12.3594566,19.9095296 12.4932079,19.7647768 C12.8275862,19.3486128 15.1180773,16.960193 15.7701149,16.2545235 C16.0376176,15.9831122 16.0208986,15.5126659 15.7701149,15.2231604 C15.5193312,14.933655 15.0846395,14.9517491 14.8171369,15.2231604 C14.3322884,15.7297949 12.3092999,17.8468034 11.9916405,18.2086852 C11.523511,17.6839566 10.9049112,17.0325694 10.2027168,16.3088058 C8.48066876,14.4993969 5.87251829,11.7490953 5.55485893,10.9167672 C5.40438871,10.5367913 5.33751306,10.1206273 5.33751306,9.68636912 C5.33751306,7.89505428 6.67502612,6.44752714 8.33019854,6.44752714 C9.40020899,6.44752714 10.3866249,7.1893848 11.4399164,8.78166466 C11.5736677,8.98069964 11.7742947,9.08926417 11.9916405,9.08926417 C12.2089864,9.08926417 12.4096134,8.98069964 12.5433647,8.78166466 C13.5966562,7.1893848 14.5830721,6.44752714 15.6530825,6.44752714 C17.308255,6.44752714 18.645768,7.89505428 18.645768,9.68636912 C18.645768,10.1025332 18.5788924,10.5186972 18.4284222,10.9167672 C18.1274817,11.694813 15.6363636,14.3546441 14.8171369,15.2231604 C14.5496343,15.4945718 15.5026123,16.544029 15.7701149,16.2545235 C18.2946708,13.5585042 19.3981191,12.2195416 19.6823406,11.4595899 C19.8996865,10.8986731 20,10.3015682 20,9.68636912 C19.9832811,7.11700844 18.0438871,5 15.6530825,5 Z" id="Path" fill="#454545" fill-rule="nonzero"></path>
                </g>
            </g>
        </g>
    </g>
</svg>