<?xml version="1.0" encoding="UTF-8"?>
<svg width="14px" height="17px" viewBox="0 0 14 17" version="1.1" xmlns="http://www.w3.org/2000/svg" xmlns:xlink="http://www.w3.org/1999/xlink">
    <!-- Generator: Sketch 53.2 (72643) - https://sketchapp.com -->
    <title>icons/notification</title>
    <desc>Created with Sketch.</desc>
    <g id="01-Nav" stroke="none" stroke-width="1" fill="none" fill-rule="evenodd">
        <g id="01-Nav-/-01_01_Header-(1440)" transform="translate(-1231.000000, -24.000000)">
            <g id="Header">
                <g id="icons/notification" transform="translate(1225.000000, 19.000000)">
                    <rect id="Rectangle" x="0" y="0" width="26" height="26"></rect>
                    <path d="M11.6875,6.85583263 C9.42313927,7.4202733 7.75,9.41116514 7.75,11.7823966 L7.75,15.1734204 C7.75,15.4858534 7.48800732,15.7391304 7.16727535,15.7391304 C6.52260696,15.7391304 6,16.2465137 6,16.8695652 L6,17.7182306 C6,17.8738475 6.12965479,18 6.29240989,18 L19.7075901,18 C19.8690836,18 20,17.871968 20,17.7182306 L20,16.8695652 C20,16.2452433 19.4749423,15.7391304 18.8327247,15.7391304 C18.5108947,15.7391304 18.25,15.4878173 18.25,15.1734204 L18.25,11.7823966 C18.25,9.41210363 16.5772097,7.42046514 14.3125,6.8558538 L14.3125,6.27198039 C14.3125,5.5678309 13.7248737,5 13,5 C12.2766012,5 11.6875,5.56948501 11.6875,6.27198039 L11.6875,6.85583263 Z M10.8611111,20 L14.75,20 C14.75,21.1045695 13.8794426,22 12.8055556,22 C11.7316686,22 10.8611111,21.1045695 10.8611111,20 Z" id="Shape" fill="#DCBC65" fill-rule="nonzero"></path>
                </g>
            </g>
        </g>
    </g>
</svg>