<svg xmlns="http://www.w3.org/2000/svg" width="22" height="22" viewBox="0 0 22 22">
    <g fill="none" fill-rule="evenodd">
        <path d="M-4-4h30v30H-4z"/>
        <path fill="#454545" fill-rule="nonzero" d="M20.631 9.597L2.744.657A1.56 1.56 0 0 0 .569 2.509l2.61 8.483-2.61 8.482a1.56 1.56 0 0 0 1.5 2.018c.234-.006.464-.062.675-.165l17.887-8.94a1.56 1.56 0 0 0 0-2.79zm-.637 1.447l-17.91 8.948-.09-.075 2.52-8.175h5.73a.75.75 0 1 0 0-1.5h-5.73l-2.52-8.175-.75.225.84-.3 17.91 8.947.3-.697-.3.802z"/>
    </g>
</svg>
