<?xml version="1.0" encoding="UTF-8"?>
<svg width="24px" height="14px" viewBox="0 0 24 14" version="1.1" xmlns="http://www.w3.org/2000/svg" xmlns:xlink="http://www.w3.org/1999/xlink">
    <!-- Generator: Sketch 53 (72520) - https://sketchapp.com -->
    <title>Eye icon</title>
    <desc>Created with Sketch.</desc>
    <g id="Profesional-and-profeshional-profile" stroke="none" stroke-width="1" fill="none" fill-rule="evenodd">
        <g id="✅Personal-profile-with-popup-menu" transform="translate(-951.000000, -1164.000000)" fill="#7e7e7e" fill-rule="nonzero">
            <g id="Group-10" transform="translate(423.000000, 462.000000)">
                <g id="Group-2" transform="translate(37.000000, 701.000000)">
                    <g id="Eye-icon-dark" transform="translate(491.046512, 1.000000)">
                        <path d="M22.322994,6.585414 C21.595227,5.798901 20.767381,5.011634 19.857805,4.278635 C17.304841,2.221285 14.633069,1 12,1 C9.366931,1 6.695159,2.221285 4.142195,4.278635 C3.232619,5.011634 2.404773,5.798901 1.677006,6.585414 C1.543606,6.729582 1.418829,6.868111 1.302988,7 C1.418829,7.131889 1.543606,7.270418 1.677006,7.414586 C2.404773,8.201099 3.232619,8.988366 4.142195,9.721365 C6.695159,11.778715 9.366931,13 12,13 C14.633069,13 17.304841,11.778715 19.857805,9.721365 C20.767381,8.988366 21.595227,8.201099 22.322994,7.414586 C22.456394,7.270418 22.581171,7.131889 22.697012,7 C22.581171,6.868111 22.456394,6.729582 22.322994,6.585414 Z M12,14 C5.372583,14 0,7 0,7 C0,7 5.372583,0 12,0 C18.627417,0 24,7 24,7 C24,7 18.627417,14 12,14 Z M12,11.5 C14.485281,11.5 16.5,9.485281 16.5,7 C16.5,4.514719 14.485281,2.5 12,2.5 C9.514719,2.5 7.5,4.514719 7.5,7 C7.5,9.485281 9.514719,11.5 12,11.5 Z M12,10.5 C10.067003,10.5 8.5,8.932997 8.5,7 C8.5,5.067003 10.067003,3.5 12,3.5 C13.932997,3.5 15.5,5.067003 15.5,7 C15.5,8.932997 13.932997,10.5 12,10.5 Z" id="Shape"></path>
                    </g>
                </g>
            </g>
        </g>
    </g>
</svg>