<svg width="24" height="24" viewBox="0 0 24 24" fill="none" xmlns="http://www.w3.org/2000/svg">
<g id="icon / 24-cont / content / attach-24">
<path id="attach-24" d="M19.4771 11.9403L13.5265 17.87C11.7524 19.6323 8.88799 19.6323 7.13238 17.87C5.35829 16.1076 5.35829 13.2621 7.13238 11.5181V11.5181L13.1015 5.58848C14.1548 4.54207 15.892 4.54207 16.9453 5.58848C17.9987 6.63488 17.9987 8.36053 16.9453 9.40694L10.9762 15.3366C10.6251 15.6854 10.0522 15.6854 9.68263 15.3366C9.31303 14.9878 9.33151 14.4187 9.68263 14.0515L15.6517 8.14023C16.0028 7.79143 16.0028 7.22234 15.6517 6.85518C15.3006 6.48802 14.7277 6.50637 14.3581 6.85518L8.40751 12.7848C7.3911 13.8679 7.44654 15.5752 8.53687 16.6033C9.57175 17.5762 11.198 17.5762 12.2329 16.6033L18.202 10.692C19.9761 8.92963 19.9761 6.08414 18.202 4.32177C16.4279 2.55941 13.5635 2.55941 11.7894 4.32177L5.85725 10.2514C3.38092 12.7114 3.38092 16.6951 5.85725 19.155C8.33359 21.615 12.3438 21.615 14.8201 19.155L20.7892 13.2254C21.1033 12.8399 21.0664 12.2708 20.6783 11.9587C20.3272 11.665 19.8282 11.665 19.4771 11.9403V11.9403Z" fill="#7E7E7E"/>
</g>
</svg>
