<svg width="24" height="24" viewBox="0 0 24 24" fill="none" xmlns="http://www.w3.org/2000/svg">
<g id="icon / 24-cont / content / archive-24-active">
<path id="archive-24" fill-rule="evenodd" clip-rule="evenodd" d="M20 3H4C3.44772 3 3 3.44772 3 4V10C3 10.5523 3.44772 11 4 11V19C4 20.1046 4.89543 21 6 21H18C19.1046 21 20 20.1046 20 19V11C20.5523 11 21 10.5523 21 10V4C21 3.44772 20.5523 3 20 3ZM18 9H6H5V5H19V9H18ZM6 19V11H18V19H6ZM15 13C15 12.4477 14.5523 12 14 12H10C9.44772 12 9 12.4477 9 13C9 13.5523 9.44772 14 10 14H14C14.5523 14 15 13.5523 15 13Z" fill="#DCBC65"/>
</g>
</svg>
