<svg width="24" height="24" viewBox="0 0 24 24" fill="none" xmlns="http://www.w3.org/2000/svg">
<g id="icon / 24-cont / content / file-24">
<path id="file-24" fill-rule="evenodd" clip-rule="evenodd" d="M18.6994 6.27543L15.3189 3.26743C15.126 3.09601 14.8645 2.99981 14.5919 3H6.02752C5.46004 3 5 3.40934 5 3.91429V9H4V15H5V19.0857C5 19.5907 5.46004 20 6.02752 20H17.9725C18.54 20 19 19.5907 19 19.0857V15H20V9H19V6.92229C19.0002 6.67973 18.8921 6.44704 18.6994 6.27543ZM16.9999 9V7.83281C17 7.65763 17 7.40355 16.9999 7.26897L14.8683 5.41333C14.7699 5.33328 14.3692 5.00006 14.3692 5.00006H13.7037H7.73394H7V9H16.9999ZM7 15V17.3397V18H15.5577H16.9999V15H7Z" fill="#7E7E7E"/>
</g>
</svg>
