<svg width="24" height="24" viewBox="0 0 24 24" fill="none" xmlns="http://www.w3.org/2000/svg">
<g id="icon / 24-cont / content / node-24-active">
<path id="node-24" fill-rule="evenodd" clip-rule="evenodd" d="M8 8C8.74028 8 9.38663 7.5978 9.73244 7H14.2676C14.6134 7.5978 15.2597 8 16 8C17.1046 8 18 7.10457 18 6C18 4.89543 17.1046 4 16 4C15.2597 4 14.6134 4.4022 14.2676 5H9.73244C9.38663 4.4022 8.74028 4 8 4C6.89543 4 6 4.89543 6 6C6 7.10457 6.89543 8 8 8ZM9.73244 19C9.38663 19.5978 8.74028 20 8 20C6.89543 20 6 19.1046 6 18C6 16.8954 6.89543 16 8 16C8.74028 16 9.38663 16.4022 9.73244 17H14.2676C14.6134 16.4022 15.2597 16 16 16C17.1046 16 18 16.8954 18 18C18 19.1046 17.1046 20 16 20C15.2597 20 14.6134 19.5978 14.2676 19H9.73244ZM12 14C12.7403 14 13.3866 13.5978 13.7324 13H17.2676C17.6134 13.5978 18.2597 14 19 14C20.1046 14 21 13.1046 21 12C21 10.8954 20.1046 10 19 10C18.2597 10 17.6134 10.4022 17.2676 11H13.7324C13.3866 10.4022 12.7403 10 12 10C11.2597 10 10.6134 10.4022 10.2676 11H6.73244C6.38663 10.4022 5.74028 10 5 10C3.89543 10 3 10.8954 3 12C3 13.1046 3.89543 14 5 14C5.74028 14 6.38663 13.5978 6.73244 13H10.2676C10.6134 13.5978 11.2597 14 12 14Z" fill="#DCBC65"/>
</g>
</svg>
