<svg width="24" height="24" viewBox="0 0 24 24" fill="none" xmlns="http://www.w3.org/2000/svg">
<g id="icon / 24-cont / content / new-file-24">
<path id="new-file-24" fill-rule="evenodd" clip-rule="evenodd" d="M15.3189 3.26743L18.6994 6.27543C18.8921 6.44704 19.0002 6.67973 19 6.92229V14H16.9999V7.83281C17 7.65763 17 7.40355 16.9999 7.26897L14.8683 5.41333C14.7699 5.33328 14.3692 5.00006 14.3692 5.00006H13.7037H7.73394H7V17.3397V18H13V20H6.02752C5.46004 20 5 19.5907 5 19.0857V3.91429C5 3.40934 5.46004 3 6.02752 3H14.5919C14.8645 2.99981 15.126 3.09601 15.3189 3.26743ZM17 16H19V18H21V20H19V22H17V20H15V18H17V16Z" fill="#7E7E7E"/>
</g>
</svg>
