<svg width="24" height="24" viewBox="0 0 24 24" fill="none" xmlns="http://www.w3.org/2000/svg">
<g id="icon / 24-cont / content / scan-24-active">
<path id="Mask" fill-rule="evenodd" clip-rule="evenodd" d="M5.00076 9H3V4C3 3.44772 3.44772 3 4 3H9V4.99831H5.00076V9ZM18.9992 15H21V20C21 20.5523 20.5523 21 20 21H15V19.0017H18.9992V15ZM21 9H18.9992V4.99831H15V3H20C20.5523 3 21 3.44772 21 4V9ZM5.00076 15H3V20C3 20.5523 3.44772 21 4 21H9V19.0017H5.00076V15ZM14 17V7H11V17H14ZM17 7V17H15V7H17ZM10 17V7H7V17H10Z" fill="#DCBC65"/>
</g>
</svg>
