<svg width="24" height="24" viewBox="0 0 24 24" fill="none" xmlns="http://www.w3.org/2000/svg">
<g id="icon / 24-cont / info / attention-24-active">
<path id="attention-24" fill-rule="evenodd" clip-rule="evenodd" d="M12 21C16.9605 21 21 16.9605 21 12C21 7.03954 16.9605 3 12 3C7.03954 3 3 7.03954 3 12C3 16.9605 7.03954 21 12 21ZM12 19C8.1441 19 5 15.8559 5 12C5 8.1441 8.1441 5 12 5C15.8559 5 19 8.1441 19 12C19 15.8559 15.8559 19 12 19ZM13 16C13 16.5523 12.5523 17 12 17C11.4477 17 11 16.5523 11 16C11 15.4477 11.4477 15 12 15C12.5523 15 13 15.4477 13 16ZM13 13C13 13.5523 12.5523 14 12 14C11.4477 14 11 13.5523 11 13V8C11 7.44771 11.4477 7 12 7C12.5523 7 13 7.44772 13 8L13 13Z" fill="#DCBC65"/>
</g>
</svg>
