<svg width="24" height="24" viewBox="0 0 24 24" fill="none" xmlns="http://www.w3.org/2000/svg">
<g id="icon / 24-cont / info / board-24-active">
<path id="board-24" fill-rule="evenodd" clip-rule="evenodd" d="M3 4C3 3.44771 3.44772 3 4 3H6C6.55228 3 7 3.44772 7 4V13C7 13.5523 6.55228 14 6 14H4C3.44772 14 3 13.5523 3 13V4ZM9 4C9 3.44772 9.44772 3 10 3H14C14.5523 3 15 3.44772 15 4V20C15 20.5523 14.5523 21 14 21H10C9.44772 21 9 20.5523 9 20V4ZM18 3C17.4477 3 17 3.44772 17 4V16C17 16.5523 17.4477 17 18 17H20C20.5523 17 21 16.5523 21 16V4C21 3.44772 20.5523 3 20 3H18Z" fill="#DCBC65"/>
</g>
</svg>
