<svg width="24" height="24" viewBox="0 0 24 24" fill="none" xmlns="http://www.w3.org/2000/svg">
<g id="icon / 24-cont / info / block-24-active">
<path id="block-24" fill-rule="evenodd" clip-rule="evenodd" d="M12 21C16.9706 21 21 16.9706 21 12C21 7.02944 16.9706 3 12 3C7.02944 3 3 7.02944 3 12C3 16.9706 7.02944 21 12 21ZM6.39362 16.1922C5.5184 15.0236 5 13.5723 5 12C5 8.13401 8.13401 5 12 5C13.5723 5 15.0236 5.5184 16.1922 6.39362L6.39362 16.1922ZM7.80783 17.6064C8.97641 18.4816 10.4277 19 12 19C15.866 19 19 15.866 19 12C19 10.4277 18.4816 8.97641 17.6064 7.80783L7.80783 17.6064Z" fill="#DCBC65"/>
</g>
</svg>
