<svg width="24" height="24" viewBox="0 0 24 24" fill="none" xmlns="http://www.w3.org/2000/svg">
<g id="icon / 24-cont / info / code-24">
<path id="code-24" fill-rule="evenodd" clip-rule="evenodd" d="M8.76696 9.45833L5.92726 12.4991L8.76696 15.5394C9.07768 15.8721 9.07768 16.4139 8.76696 16.7497C8.61208 16.9155 8.40636 17 8.20206 17C7.99967 17 7.79252 16.9155 7.63764 16.7497L4.23304 13.105C3.92232 12.7703 3.92232 12.2285 4.23304 11.8957L7.63764 8.25107C7.94931 7.91631 8.45529 7.91631 8.76696 8.25107C9.07768 8.58379 9.07768 9.1256 8.76696 9.45833ZM15.233 9.45833L18.0727 12.4991L15.233 15.5394C14.9223 15.8721 14.9223 16.4139 15.233 16.7497C15.3879 16.9155 15.5936 17 15.7979 17C16.0003 17 16.2075 16.9155 16.3624 16.7497L19.767 13.105C20.0777 12.7703 20.0777 12.2285 19.767 11.8957L16.3624 8.25107C16.0507 7.91631 15.5447 7.91631 15.233 8.25107C14.9223 8.58379 14.9223 9.1256 15.233 9.45833Z" fill="#7E7E7E"/>
</g>
</svg>
