<svg width="24" height="24" viewBox="0 0 24 24" fill="none" xmlns="http://www.w3.org/2000/svg">
<g id="icon / 24-cont / info / done-success-24-active">
<path id="done-success-24" fill-rule="evenodd" clip-rule="evenodd" d="M12 21C16.9706 21 21 16.9706 21 12C21 7.02944 16.9706 3 12 3C7.02944 3 3 7.02944 3 12C3 16.9706 7.02944 21 12 21ZM12 19C8.13401 19 5 15.866 5 12C5 8.13401 8.13401 5 12 5C15.866 5 19 8.13401 19 12C19 15.866 15.866 19 12 19ZM15.606 8L17 9.41319L10.5653 15.9209L10.5648 15.9214L10.4872 16L7 12.4693L8.39486 11.057L10.4879 13.1762L15.606 8Z" fill="#DCBC65"/>
</g>
</svg>
