<svg width="24" height="24" viewBox="0 0 24 24" fill="none" xmlns="http://www.w3.org/2000/svg">
<g id="icon / 24-cont / info / gantt-24-active">
<path id="gantt-24" fill-rule="evenodd" clip-rule="evenodd" d="M12 3H13V21H12V3ZM3 5C3 4.44772 3.44772 4 4 4H10V8H4C3.44772 8 3 7.55228 3 7V5ZM4 10C3.44772 10 3 10.4477 3 11V13C3 13.5523 3.44772 14 4 14H10V10H4ZM8 17C8 16.4477 8.44772 16 9 16H10V20H9C8.44772 20 8 19.5523 8 19V17ZM17 4H15V8H17C17.5523 8 18 7.55228 18 7V5C18 4.44772 17.5523 4 17 4ZM19 10C19.5523 10 20 10.4477 20 11V13C20 13.5523 19.5523 14 19 14H15V10H19ZM20 16H15V20H20C20.5523 20 21 19.5523 21 19V17C21 16.4477 20.5523 16 20 16Z" fill="#DCBC65"/>
</g>
</svg>
