<svg width="24" height="24" viewBox="0 0 24 24" fill="none" xmlns="http://www.w3.org/2000/svg">
<g id="icon / 24-cont / info / info-24-active">
<path id="info-24" fill-rule="evenodd" clip-rule="evenodd" d="M12 3C7.03954 3 3 7.03954 3 12C3 16.9605 7.03954 21 12 21C16.9605 21 21 16.9605 21 12C21 7.03954 16.9605 3 12 3ZM12 5C15.8559 5 19 8.1441 19 12C19 15.8559 15.8559 19 12 19C8.1441 19 5 15.8559 5 12C5 8.1441 8.1441 5 12 5ZM11 8C11 7.44772 11.4477 7 12 7C12.5523 7 13 7.44772 13 8C13 8.55228 12.5523 9 12 9C11.4477 9 11 8.55228 11 8ZM11 11C11 10.4477 11.4477 10 12 10C12.5523 10 13 10.4477 13 11V16C13 16.5523 12.5523 17 12 17C11.4477 17 11 16.5523 11 16V11Z" fill="#DCBC65"/>
</g>
</svg>
