<svg width="24" height="24" viewBox="0 0 24 24" fill="none" xmlns="http://www.w3.org/2000/svg">
<g id="icon / 24-cont / info / label-24">
<path id="label-24" fill-rule="evenodd" clip-rule="evenodd" d="M12.5418 3.62699L3.25805 12.9108C2.91321 13.2557 2.91321 13.82 3.25805 14.1648L9.77662 20.6833C10.1215 21.0282 10.6858 21.0282 11.0307 20.6833L20.3144 11.3996C20.6593 11.0548 20.9414 10.3736 20.9414 9.88593V3.8867C20.9414 3.39901 20.5424 3 20.0547 3H14.0556C13.5679 3 12.8867 3.28215 12.5418 3.62699ZM18.9994 6C18.9994 6.55231 18.5517 7 17.9994 7C17.4471 7 16.9994 6.55231 16.9994 6C16.9994 5.44769 17.4471 5 17.9994 5C18.5517 5 18.9994 5.44769 18.9994 6Z" fill="#7E7E7E"/>
</g>
</svg>
