<svg width="24" height="24" viewBox="0 0 24 24" fill="none" xmlns="http://www.w3.org/2000/svg">
<g id="icon / 24-cont / info / label-24-active">
<path id="label-24" fill-rule="evenodd" clip-rule="evenodd" d="M12.5424 3.62699L3.25863 12.9108C2.91379 13.2557 2.91379 13.82 3.25863 14.1648L9.7772 20.6833C10.1221 21.0282 10.6863 21.0282 11.0313 20.6833L20.315 11.3996C20.6598 11.0548 20.942 10.3736 20.942 9.88593V3.8867C20.942 3.39901 20.543 3 20.0553 3H14.0561C13.5685 3 12.8873 3.28215 12.5424 3.62699ZM19 6C19 6.55231 18.5523 7 18 7C17.4477 7 17 6.55231 17 6C17 5.44769 17.4477 5 18 5C18.5523 5 19 5.44769 19 6Z" fill="#DCBC65"/>
</g>
</svg>
