<svg width="24" height="24" viewBox="0 0 24 24" fill="none" xmlns="http://www.w3.org/2000/svg">
<g id="icon / 24-cont / info / mindmap-24-active">
<path id="mindmap-24" fill-rule="evenodd" clip-rule="evenodd" d="M4 5C3.44772 5 3 5.44772 3 6V10C3 10.5523 3.44772 11 4 11H10C10.5523 11 11 10.5523 11 10V6C11 5.44772 10.5523 5 10 5H4ZM14 13C13.4477 13 13 13.4477 13 14V18C13 18.5523 13.4477 19 14 19H20C20.5523 19 21 18.5523 21 18V14C21 13.4477 20.5523 13 20 13H14ZM13 8C13 7.44772 13.4477 7 14 7H16C16.5523 7 17 7.44772 17 8V10C17 10.5523 16.5523 11 16 11H14C13.4477 11 13 10.5523 13 10V8ZM5 13H7V17H11V19H7H5V17V13Z" fill="#DCBC65"/>
</g>
</svg>
