<svg width="24" height="24" viewBox="0 0 24 24" fill="none" xmlns="http://www.w3.org/2000/svg">
<g id="icon / 24-cont / info / pin-24">
<path id="pin-24" fill-rule="evenodd" clip-rule="evenodd" d="M6.06996 9.32928C6.21137 8.98877 6.54351 8.76624 6.91259 8.76473H10.6212L13.8615 5.53686L13.2834 4.95943C13.0402 4.71648 12.9178 4.37797 12.9497 4.03586C12.9815 3.69375 13.1642 3.38357 13.4482 3.18958C13.9291 2.88057 14.5619 2.95564 14.957 3.36859L20.6515 9.07077C21.0408 9.47528 21.1118 10.0897 20.8249 10.5721C20.6307 10.8557 20.3201 11.0382 19.9776 11.07C19.6351 11.1018 19.2962 10.9796 19.053 10.7367L18.4749 10.1592L15.2461 13.3842V17.0885C15.2446 17.4571 15.0218 17.7889 14.6809 17.9301C14.34 18.0714 13.9475 17.9945 13.6852 17.7352L6.2651 10.3238C6.00546 10.0618 5.92854 9.66979 6.06996 9.32928ZM8.65685 16.4142L7.24264 15L3 19.2426L4.41421 20.6569L8.65685 16.4142Z" fill="#757575"/>
</g>
</svg>
