<svg width="24" height="24" viewBox="0 0 24 24" fill="none" xmlns="http://www.w3.org/2000/svg">
<g id="icon / 24-cont / info / question-help-24-active">
<path id="question-help-24" fill-rule="evenodd" clip-rule="evenodd" d="M12 21C16.9706 21 21 16.9706 21 12C21 7.02944 16.9706 3 12 3C7.02944 3 3 7.02944 3 12C3 16.9706 7.02944 21 12 21ZM12 19C8.13401 19 5 15.866 5 12C5 8.13401 8.13401 5 12 5C15.866 5 19 8.13401 19 12C19 15.866 15.866 19 12 19ZM11.3747 14C11.0656 13.6448 10.911 13.2107 10.911 12.6977C10.911 12.303 11.0187 11.9479 11.2342 11.6321C11.4496 11.3164 11.6838 11.0796 11.9368 10.9218C12.1897 10.7639 12.4239 10.5765 12.6393 10.3594C12.8548 10.1424 12.9625 9.9253 12.9625 9.70825C12.9625 9.46159 12.8712 9.25934 12.6885 9.10148C12.5059 8.94362 12.2319 8.86469 11.8665 8.86469C11.2014 8.86469 10.6253 9.17054 10.1382 9.78224L9 8.43552C9.77752 7.4785 10.8033 7 12.0773 7C12.9766 7 13.6885 7.21459 14.2131 7.64376C14.7377 8.07294 15 8.63777 15 9.33827C15 9.73291 14.9204 10.0881 14.7611 10.4038C14.6019 10.7195 14.4075 10.976 14.178 11.1734C13.9485 11.3707 13.7166 11.5532 13.4824 11.7209C13.2482 11.8887 13.0515 12.0712 12.8923 12.2685C12.733 12.4658 12.6534 12.6779 12.6534 12.9049C12.6534 13.1614 12.7377 13.3686 12.9063 13.5264L11.3747 14ZM12.7037 16.7037C12.5062 16.9012 12.2716 17 12 17C11.7284 17 11.4938 16.9012 11.2963 16.7037C11.0988 16.5062 11 16.2716 11 16C11 15.7284 11.0988 15.4938 11.2963 15.2963C11.4938 15.0988 11.7284 15 12 15C12.2716 15 12.5062 15.0988 12.7037 15.2963C12.9012 15.4938 13 15.7284 13 16C13 16.2716 12.9012 16.5062 12.7037 16.7037Z" fill="#DCBC65"/>
</g>
</svg>
