<svg width="24" height="24" viewBox="0 0 24 24" fill="none" xmlns="http://www.w3.org/2000/svg">
<g id="icon / 24-cont / info / storage-24-active">
<path id="storage-24" fill-rule="evenodd" clip-rule="evenodd" d="M6 4C4.89543 4 4 4.89543 4 6C4 7.10457 4.89543 8 6 8H18C19.1046 8 20 7.10457 20 6C20 4.89543 19.1046 4 18 4H6ZM11 5C10.4477 5 10 5.44772 10 6C10 6.55228 10.4477 7 11 7H13C13.5523 7 14 6.55228 14 6C14 5.44772 13.5523 5 13 5H11ZM6 10C4.89543 10 4 10.8954 4 12C4 13.1046 4.89543 14 6 14H11V16.2676C10.6964 16.4432 10.4432 16.6964 10.2676 17H5C4.44772 17 4 17.4477 4 18C4 18.5523 4.44772 19 5 19H10.2676C10.6134 19.5978 11.2597 20 12 20C12.7403 20 13.3866 19.5978 13.7324 19H19C19.5523 19 20 18.5523 20 18C20 17.4477 19.5523 17 19 17H13.7324C13.5568 16.6964 13.3036 16.4432 13 16.2676V14H18C19.1046 14 20 13.1046 20 12C20 10.8954 19.1046 10 18 10H6ZM13 13H12H11C10.4477 13 10 12.5523 10 12C10 11.4477 10.4477 11 11 11H13C13.5523 11 14 11.4477 14 12C14 12.5523 13.5523 13 13 13Z" fill="#DCBC65"/>
</g>
</svg>
