<svg width="24" height="24" viewBox="0 0 24 24" fill="none" xmlns="http://www.w3.org/2000/svg">
<g id="icon / 24-cont / info / task-24-active">
<path id="task-24" fill-rule="evenodd" clip-rule="evenodd" d="M6 4C4.89543 4 4 4.89543 4 6V18C4 19.1046 4.89543 20 6 20H18C19.1046 20 20 19.1046 20 18V6C20 4.89543 19.1046 4 18 4H6ZM13.551 11.0301C14.6653 9.7493 15.6553 8.61144 15.807 8.44172L16.2061 8L17 8.88834L16.6053 9.33005C16.498 9.45009 15.1711 10.9742 13.8728 12.4663C13.71 12.6534 13.5476 12.84 13.3878 13.0236C12.2734 14.3045 11.2833 15.4425 11.1316 15.6123L10.7807 16L10.3904 15.6663L7.44298 13.1534L7 12.7754L7.67982 11.7742L8.12719 12.157L10.6754 14.3313C11.0192 13.9386 11.9301 12.8929 13.0658 11.5877C13.2287 11.4005 13.3911 11.2138 13.551 11.0301Z" fill="#DCBC65"/>
</g>
</svg>
