<svg width="24" height="24" viewBox="0 0 24 24" fill="none" xmlns="http://www.w3.org/2000/svg">
<g id="icon / 24-cont / info / unlock-24">
<path id="unlock-24" fill-rule="evenodd" clip-rule="evenodd" d="M12.5 3H11.5C9.567 3 8 4.567 8 6.5V8H10V6.5C10 5.67157 10.6716 5 11.5 5H12.5C13.3284 5 14 5.67157 14 6.5V10H10H8C6.89543 10 6 10.8954 6 12V19C6 20.1046 6.89543 21 8 21H16C17.1046 21 18 20.1046 18 19V12C18 10.8954 17.1046 10 16 10V6.5C16 4.567 14.433 3 12.5 3ZM14 14C14 14.7403 13.5978 15.3866 13 15.7324V17V18H12H11V17V15.7324C10.4022 15.3866 10 14.7403 10 14C10 12.8954 10.8954 12 12 12C13.1046 12 14 12.8954 14 14Z" fill="#7E7E7E"/>
</g>
</svg>
