<svg xmlns="http://www.w3.org/2000/svg" xmlns:xlink="http://www.w3.org/1999/xlink" width="60" height="60" viewBox="0 0 60 60">
    <defs>
        <linearGradient id="a" x1="28.242%" x2="92.552%" y1="0%" y2="104.427%">
            <stop offset="0%" stop-color="#5CF7B8"/>
            <stop offset="46.482%" stop-color="#35DA51"/>
            <stop offset="100%" stop-color="#0ABC29"/>
        </linearGradient>
        <linearGradient id="b" x1="50%" x2="50%" y1=".338%" y2="100%">
            <stop offset="0%" stop-color="#8AECA3"/>
            <stop offset="100%" stop-color="#FFF"/>
        </linearGradient>
        <linearGradient id="c" x1="50%" x2="50%" y1=".338%" y2="100%">
            <stop offset="0%" stop-color="#FFF"/>
            <stop offset="100%" stop-color="#FFF"/>
        </linearGradient>
        <linearGradient id="d" x1="50%" x2="50%" y1=".338%" y2="100%">
            <stop offset="0%" stop-color="#81ECA0"/>
            <stop offset="100%" stop-color="#FFF"/>
        </linearGradient>
        <circle id="f" cx="25" cy="46" r="8"/>
        <filter id="e" width="187.5%" height="187.5%" x="-43.8%" y="-31.2%" filterUnits="objectBoundingBox">
            <feOffset dy="2" in="SourceAlpha" result="shadowOffsetOuter1"/>
            <feGaussianBlur in="shadowOffsetOuter1" result="shadowBlurOuter1" stdDeviation="2"/>
            <feColorMatrix in="shadowBlurOuter1" values="0 0 0 0 0 0 0 0 0 0 0 0 0 0 0 0 0 0 0.5 0"/>
        </filter>
    </defs>
    <g fill="none" fill-rule="evenodd">
        <path fill="url(#a)" d="M10 0h40c5.523 0 10 4.477 10 10v40c0 5.523-4.477 10-10 10H10C4.477 60 0 55.523 0 50V10C0 4.477 4.477 0 10 0z"/>
        <g fill-rule="nonzero">
            <path fill="url(#b)" d="M13.295 24c1.286 0 2.529-.087 3.705-.249V10.25A27.25 27.25 0 0 0 13.295 10C5.952 10 0 12.827 0 16.315v1.37C0 21.172 5.952 24 13.295 24z" opacity=".4" transform="translate(7 9)"/>
            <path fill="url(#c)" d="M13.295 31c1.286 0 2.529-.087 3.705-.25v-3.967c-1.176.163-2.419.25-3.705.25C6.885 27.034 1.536 24.875.28 22c-.183.419-.28.852-.28 1.297v1.372C0 28.166 5.952 31 13.295 31z" opacity=".4" transform="translate(7 9)"/>
            <path fill="url(#d)" d="M17.49 34.092v-.309c-1.21.163-2.489.25-3.812.25C7.084 34.034 1.58 31.875.288 29A3.14 3.14 0 0 0 0 30.296v1.373C0 35.166 6.124 38 13.678 38c1.51 0 2.963-.114 4.322-.323a5.078 5.078 0 0 1-.51-2.213v-1.372z" opacity=".4" transform="translate(7 9)"/>
            <path fill="#FFF" d="M40.5 9C33.044 9 27 11.827 27 15.315v1.37C27 20.173 33.044 23 40.5 23S54 20.173 54 16.685v-1.37C54 11.827 47.956 9 40.5 9z"/>
            <path fill="#FFF" d="M40.5 26.034c-6.508 0-11.94-2.16-13.216-5.034A3.174 3.174 0 0 0 27 22.297v1.372C27 27.166 33.044 30 40.5 30S54 27.166 54 23.67v-1.373c0-.445-.098-.878-.284-1.297-1.276 2.874-6.708 5.034-13.216 5.034z"/>
            <path fill="#FFF" d="M40.5 33.034c-6.508 0-11.94-2.16-13.216-5.034A3.174 3.174 0 0 0 27 29.297v1.372C27 34.166 33.044 37 40.5 37S54 34.166 54 30.67v-1.373c0-.445-.098-.878-.284-1.297-1.276 2.874-6.708 5.034-13.216 5.034z"/>
            <path fill="#FFF" d="M40.5 40.034c-6.508 0-11.94-2.16-13.216-5.034A3.174 3.174 0 0 0 27 36.296v1.373C27 41.166 33.044 44 40.5 44S54 41.166 54 37.67v-1.374c0-.444-.098-.878-.284-1.296-1.276 2.874-6.708 5.034-13.216 5.034z"/>
            <path fill="#FFF" d="M40.5 47.034c-6.508 0-11.94-2.16-13.216-5.034A3.175 3.175 0 0 0 27 43.297v1.372C27 48.166 33.044 51 40.5 51S54 48.166 54 44.67v-1.374c0-.444-.098-.878-.284-1.296-1.276 2.874-6.708 5.034-13.216 5.034z"/>
        </g>
        <g>
            <use fill="#000" filter="url(#e)" xlink:href="#f"/>
            <use fill="#41E372" xlink:href="#f"/>
        </g>
        <path fill="#FFF" fill-rule="nonzero" d="M25 38a8 8 0 0 0-8 8 8 8 0 1 0 16 0 8 8 0 0 0-8-8zm.482 11.33v.912c0 .142-.111.246-.255.246h-.61c-.144 0-.26-.104-.26-.246v-.833a5.266 5.266 0 0 1-1.559-.307.487.487 0 0 1-.3-.576l.1-.387a.492.492 0 0 1 .651-.334c.409.158.892.273 1.408.273.657 0 1.107-.252 1.107-.712 0-.436-.369-.711-1.222-.998-1.234-.414-2.079-.987-2.079-2.1 0-1.01.718-1.802 1.946-2.044v-.832c0-.142.122-.27.265-.27h.611c.144 0 .249.128.249.27v.752a4.57 4.57 0 0 1 1.248.207c.245.08.39.335.325.584l-.087.346a.49.49 0 0 1-.633.34 3.543 3.543 0 0 0-1.165-.192c-.75 0-.992.322-.992.643 0 .38.404.62 1.384.988 1.371.482 1.923 1.113 1.923 2.146 0 1.021-.726 1.894-2.055 2.123z"/>
    </g>
</svg>
