<svg xmlns="http://www.w3.org/2000/svg" xmlns:xlink="http://www.w3.org/1999/xlink" width="60" height="60" viewBox="0 0 60 60">
    <defs>
        <linearGradient id="b" x1="100%" x2="8.232%" y1="0%" y2="96.348%">
            <stop offset="0%" stop-color="#EF33F2"/>
            <stop offset="100%" stop-color="#3544DC"/>
        </linearGradient>
        <path id="a" d="M10 0h40c5.523 0 10 4.477 10 10v40c0 5.523-4.477 10-10 10H10C4.477 60 0 55.523 0 50V10C0 4.477 4.477 0 10 0z"/>
        <filter id="c" width="160%" height="158.5%" x="-30%" y="-29.3%" filterUnits="objectBoundingBox">
            <feOffset dy="2" in="SourceAlpha" result="shadowOffsetOuter1"/>
            <feGaussianBlur in="shadowOffsetOuter1" result="shadowBlurOuter1" stdDeviation="2"/>
            <feColorMatrix in="shadowBlurOuter1" result="shadowMatrixOuter1" values="0 0 0 0 0 0 0 0 0 0 0 0 0 0 0 0 0 0 0.2 0"/>
            <feMerge>
                <feMergeNode in="shadowMatrixOuter1"/>
                <feMergeNode in="SourceGraphic"/>
            </feMerge>
        </filter>
        <linearGradient id="f" x1="0%" y1="100%" y2="0%">
            <stop offset="0%" stop-color="#FFF" stop-opacity=".144"/>
            <stop offset="100%" stop-color="#FFF"/>
        </linearGradient>
        <rect id="e" width="6" height="6" rx="1"/>
        <filter id="d" width="333.3%" height="333.3%" x="-116.7%" y="-83.3%" filterUnits="objectBoundingBox">
            <feOffset dy="2" in="SourceAlpha" result="shadowOffsetOuter1"/>
            <feGaussianBlur in="shadowOffsetOuter1" result="shadowBlurOuter1" stdDeviation="2"/>
            <feColorMatrix in="shadowBlurOuter1" values="0 0 0 0 0 0 0 0 0 0 0 0 0 0 0 0 0 0 0.2 0"/>
        </filter>
        <rect id="h" width="6" height="6" y="11" rx="1"/>
        <filter id="g" width="333.3%" height="333.3%" x="-116.7%" y="-83.3%" filterUnits="objectBoundingBox">
            <feOffset dy="2" in="SourceAlpha" result="shadowOffsetOuter1"/>
            <feGaussianBlur in="shadowOffsetOuter1" result="shadowBlurOuter1" stdDeviation="2"/>
            <feColorMatrix in="shadowBlurOuter1" values="0 0 0 0 0 0 0 0 0 0 0 0 0 0 0 0 0 0 0.2 0"/>
        </filter>
        <rect id="j" width="6" height="6" y="22" rx="1"/>
        <filter id="i" width="333.3%" height="333.3%" x="-116.7%" y="-83.3%" filterUnits="objectBoundingBox">
            <feOffset dy="2" in="SourceAlpha" result="shadowOffsetOuter1"/>
            <feGaussianBlur in="shadowOffsetOuter1" result="shadowBlurOuter1" stdDeviation="2"/>
            <feColorMatrix in="shadowBlurOuter1" values="0 0 0 0 0 0 0 0 0 0 0 0 0 0 0 0 0 0 0.2 0"/>
        </filter>
    </defs>
    <g fill="none" fill-rule="evenodd">
        <use fill="url(#b)" xlink:href="#a"/>
        <path fill="#FFF" fill-rule="nonzero" d="M9.938 5.18h2.148V0H9.938C2.572 0 2.242 4.84 2.242 7.02v8.723l.001.056c0 .009-.085 2.11-2.243 2.11v5.181c2.158 0 2.243 2.1 2.243 2.111v8.778c0 2.18.328 7.02 7.695 7.02h2.147v-5.18H9.938c-2.697 0-2.504-1.802-2.515-1.922v.052-.053-8.625c.002-.278-.033-2.764-1.54-4.771 1.507-2.007 1.542-4.493 1.54-4.771v-8.62-.059.052c.011-.119-.182-1.921 2.515-1.921zM37.758 15.8V7.02c0-2.18-.33-7.021-7.696-7.021h-2.147v5.18h2.147c2.697 0 2.504 1.803 2.515 1.923V7.05 15.73c-.002.277.034 2.763 1.542 4.77-1.508 2.007-1.544 4.494-1.541 4.772v8.619l-.001.005v.054-.052c-.01.12.182 1.922-2.515 1.922h-2.147V41h2.147c7.367 0 7.696-4.84 7.696-7.02V25.2c0-.01.084-2.11 2.242-2.11v-5.182c-2.159 0-2.243-2.1-2.243-2.11z" filter="url(#c)" transform="translate(10 10)"/>
        <g opacity=".3" transform="translate(27 16)">
            <use fill="#000" filter="url(#d)" xlink:href="#e"/>
            <use fill="url(#f)" xlink:href="#e"/>
        </g>
        <g opacity=".6" transform="translate(27 16)">
            <use fill="#000" filter="url(#g)" xlink:href="#h"/>
            <use fill="url(#f)" xlink:href="#h"/>
        </g>
        <g opacity=".9" transform="translate(27 16)">
            <use fill="#000" filter="url(#i)" xlink:href="#j"/>
            <use fill="url(#f)" xlink:href="#j"/>
        </g>
    </g>
</svg>
