<svg xmlns="http://www.w3.org/2000/svg" xmlns:xlink="http://www.w3.org/1999/xlink" width="60" height="60" viewBox="0 0 60 60">
    <defs>
        <linearGradient id="b" x1="3.765%" x2="86.263%" y1="-38.205%" y2="117.589%">
            <stop offset="0%" stop-color="#F5515F"/>
            <stop offset="100%" stop-color="#9F046C"/>
        </linearGradient>
        <path id="a" d="M10 0h40c5.523 0 10 4.477 10 10v40c0 5.523-4.477 10-10 10H10C4.477 60 0 55.523 0 50V10C0 4.477 4.477 0 10 0z"/>
        <filter id="c" width="172.7%" height="152.2%" x="-36.4%" y="-26.1%" filterUnits="objectBoundingBox">
            <feOffset dy="2" in="SourceAlpha" result="shadowOffsetOuter1"/>
            <feGaussianBlur in="shadowOffsetOuter1" result="shadowBlurOuter1" stdDeviation="2"/>
            <feColorMatrix in="shadowBlurOuter1" result="shadowMatrixOuter1" values="0 0 0 0 0 0 0 0 0 0 0 0 0 0 0 0 0 0 0.5 0"/>
            <feMerge>
                <feMergeNode in="shadowMatrixOuter1"/>
                <feMergeNode in="SourceGraphic"/>
            </feMerge>
        </filter>
        <linearGradient id="e" x1="50%" x2="50%" y1="0%" y2="100%">
            <stop offset="0%" stop-color="#E997BA"/>
            <stop offset="100%" stop-color="#FFF"/>
        </linearGradient>
    </defs>
    <g fill="none" fill-rule="evenodd">
        <mask id="d" fill="#fff">
            <use xlink:href="#a"/>
        </mask>
        <use fill="url(#b)" xlink:href="#a"/>
        <g fill="url(#e)" fill-rule="nonzero" filter="url(#c)" mask="url(#d)">
            <path d="M21.442 52.83c-3.98 0-7.182-3.424-7.182-7.616 0-3.628 2.426-6.644 5.629-7.41V21.805c-3.251-.767-5.63-3.783-5.63-7.36 0-4.192 3.204-7.616 7.183-7.616 3.98 0 7.23 3.424 7.23 7.616a7.668 7.668 0 0 1-.581 2.964c-.34.869-1.262 1.227-2.087.869-.825-.358-1.165-1.329-.825-2.198.194-.511.34-1.073.34-1.635 0-2.352-1.796-4.243-4.028-4.243-2.233 0-4.028 1.891-4.028 4.243 0 2.35 1.795 4.242 4.028 4.242.873 0 1.601.766 1.601 1.686v18.963c0 .92-.728 1.686-1.601 1.686-2.233 0-4.028 1.891-4.028 4.243 0 2.35 1.795 4.242 4.028 4.242 2.232 0 4.027-1.891 4.027-4.242a4.321 4.321 0 0 0-1.067-2.863c-.194-.204-.388-.51-.437-.817-.048-.154-.048-.307-.048-.41 0-9.915 4.852-11.704 8.783-13.135 3.106-1.124 5.29-1.942 5.678-6.235-3.203-.767-5.58-3.783-5.58-7.412 0-4.14 3.25-7.564 7.23-7.564 3.98 0 7.183 3.424 7.183 7.616 0 1.328-.34 2.657-.971 3.782a1.545 1.545 0 0 1-2.184.613c-.776-.46-1.019-1.482-.582-2.3a4.67 4.67 0 0 0 .534-2.147c0-2.35-1.796-4.242-4.028-4.242-2.233 0-4.028 1.891-4.028 4.242 0 2.352 1.795 4.243 4.028 4.243.873 0 1.601.766 1.601 1.686 0 7.974-4.367 9.558-7.862 10.836-3.64 1.329-6.502 2.402-6.648 9.353 1.019 1.33 1.553 2.965 1.553 4.702 0 4.192-3.252 7.616-7.231 7.616"/>
        </g>
    </g>
</svg>
