<svg xmlns="http://www.w3.org/2000/svg" xmlns:xlink="http://www.w3.org/1999/xlink" width="62" height="60" viewBox="0 0 62 60">
    <defs>
        <linearGradient id="a" x1="10.114%" x2="91.758%" y1="0%" y2="104.359%">
            <stop offset="0%" stop-color="#9B3CB7"/>
            <stop offset="100%" stop-color="#FF396F"/>
        </linearGradient>
        <linearGradient id="b" x1="6.366%" x2="111.34%" y1="80.783%" y2="2.253%">
            <stop offset="0%" stop-color="#8925A7"/>
            <stop offset="100%" stop-color="#FF396F"/>
        </linearGradient>
        <rect id="d" width="54" height="40" rx="6"/>
        <filter id="c" width="125.9%" height="135%" x="-13%" y="-12.5%" filterUnits="objectBoundingBox">
            <feOffset dy="2" in="SourceAlpha" result="shadowOffsetOuter1"/>
            <feGaussianBlur in="shadowOffsetOuter1" result="shadowBlurOuter1" stdDeviation="2"/>
            <feColorMatrix in="shadowBlurOuter1" values="0 0 0 0 0 0 0 0 0 0 0 0 0 0 0 0 0 0 0.15 0"/>
        </filter>
        <rect id="f" width="48" height="32" x=".5" y=".584" rx="4"/>
        <filter id="e" width="127.1%" height="140.6%" x="-13.5%" y="-17.2%" filterUnits="objectBoundingBox">
            <feOffset dy="1" in="SourceAlpha" result="shadowOffsetOuter1"/>
            <feGaussianBlur in="shadowOffsetOuter1" result="shadowBlurOuter1" stdDeviation="2"/>
            <feColorMatrix in="shadowBlurOuter1" values="0 0 0 0 0 0 0 0 0 0 0 0 0 0 0 0 0 0 0.15 0"/>
        </filter>
    </defs>
    <g fill="none" fill-rule="evenodd" transform="translate(1)">
        <path fill="url(#a)" d="M10 0h40c5.523 0 10 4.477 10 10v40c0 5.523-4.477 10-10 10H10C4.477 60 0 55.523 0 50V10C0 4.477 4.477 0 10 0z"/>
        <g fill="#FFF" fill-rule="nonzero">
            <path d="M38 .104L32.37 5.81l-.06.05-.074.075-.073.075-.09.094H29l.163-.175.073-.07.133-.124.015-.02 1.153-1.165.236-.239L34.926.104z"/>
            <path d="M32 6.104h-3.074l-.089-.094-.103-.106-.103-.094L23 .104h3.074l4.39 4.446 1.152 1.166.207.207.014.006z"/>
        </g>
        <path fill="#FFF" fill-rule="nonzero" d="M57.045 12H2.955C2.43 12 2 12.457 2 13.017v38.966c0 .56.43 1.017.955 1.017h54.09c.525 0 .955-.457.955-1.017V13.017c0-.373-.318-.712-.955-1.017zm-23.131 4h-6.828C26.481 16 26 15.336 26 14.5s.481-1.5 1.086-1.5h6.828c.605 0 1.086.664 1.086 1.5s-.481 1.5-1.086 1.5z" opacity=".3"/>
        <rect width="55" height="34" x="2.5" y="17.584" fill="#FFF" fill-rule="nonzero" rx="4"/>
        <path fill="#FFC1DA" fill-rule="nonzero" d="M18.17 32.959a5.5 5.5 0 1 0-1.34-10.918 5.5 5.5 0 0 0 1.34 10.918zM28 42.508c-.37.287-.774.573-1.178.86C24.197 45.062 20.9 46 17.5 46c-3.399 0-6.73-.938-9.322-2.632-.404-.26-.808-.547-1.178-.86C7.404 39.98 10.197 38 13.596 38h7.841c3.366 0 6.16 1.98 6.563 4.508z"/>
        <rect width="20" height="5" x="32" y="25" fill="#F1F1F1" rx="1"/>
        <rect width="22" height="9" x="32" y="32" fill="#F1F1F1" rx="1"/>
        <path fill="url(#b)" d="M10 0h40c5.523 0 10 4.477 10 10v40c0 5.523-4.477 10-10 10H10C4.477 60 0 55.523 0 50V10C0 4.477 4.477 0 10 0z"/>
        <g transform="translate(3 10)">
            <use fill="#000" filter="url(#c)" xlink:href="#d"/>
            <use fill="#E19DCC" xlink:href="#d"/>
        </g>
        <g transform="translate(5.5 14)">
            <g fill-rule="nonzero">
                <use fill="#000" filter="url(#e)" xlink:href="#f"/>
                <use fill="#FFF" xlink:href="#f"/>
            </g>
            <path fill="#FFC1DA" fill-rule="nonzero" d="M13.108 18.962a5 5 0 1 0-1.216-9.924 5 5 0 0 0 1.216 9.924zM21.5 27h-18c.346-2.503 4.087-6 7-6h4c2.885 0 6.654 3.497 7 6z"/>
            <rect width="20" height="5" x="24.5" y="6" fill="#F1F1F1" rx="1"/>
            <rect width="20" height="7" x="24.5" y="20" fill="#F1F1F1" rx="1"/>
            <rect width="20" height="5" x="24.5" y="13" fill="#F1F1F1" rx="1"/>
        </g>
    </g>
</svg>
