<svg xmlns="http://www.w3.org/2000/svg" xmlns:xlink="http://www.w3.org/1999/xlink" width="60" height="61" viewBox="0 0 60 61">
    <defs>
        <linearGradient id="a" x1="12.227%" x2="83.257%" y1="-31.593%" y2="132.324%">
            <stop offset="0%" stop-color="#EF33F2"/>
            <stop offset="100%" stop-color="#3544DC"/>
        </linearGradient>
        <path id="c" d="M52.08 6C53.14 6 54 7.053 54 8.43v24.14c0 1.377-.86 2.43-1.92 2.43H8.92C7.86 35 7 33.866 7 32.57V8.43C7 7.053 7.86 6 8.92 6h43.16zM30.7 18.8c-.8-.3-1.4-.7-1.7-1-.3-.3-.5-.8-.5-1.3 0-.6.1-1 .4-1.4.3-.3.7-.5 1.3-.5.6 0 1 .2 1.3.7.3.4.5 1 .5 1.7 0 .1.1.2.2.2h2.5c.1 0 .3-.1.3-.3 0-1.2-.4-2.2-1-3-.7-.8-1.5-1.3-2.7-1.5-.1 0-.1-.1-.1-.2v-2c0-.1-.1-.2-.2-.2h-1.3c-.1 0-.2.1-.2.2v1.9c0 .1-.1.2-.2.2-1.2.2-2.1.6-2.8 1.3-.7.7-1.1 1.7-1.1 2.9 0 1.3.4 2.2 1.1 2.9.7.7 1.8 1.3 3.3 1.9.8.3 1.3.6 1.6 1 .3.4.5.8.5 1.4 0 .6-.2 1-.5 1.4-.3.3-.8.5-1.4.5-.6 0-1.2-.2-1.6-.6-.4-.4-.6-1-.6-1.9 0-.1-.1-.1-.1-.1h-2.6c-.1 0-.1.1-.1.1v.4c.1 1.3.5 2.3 1.2 3 .8.8 1.8 1.2 3 1.4.1 0 .1.1.1.2v1.8c0 .1.1.2.2.2h1.3c.1 0 .2-.1.2-.2v-1.8c0-.1.1-.1.1-.2 1.2-.1 2.1-.6 2.8-1.3.7-.7 1.1-1.7 1.1-2.9s-.4-2.2-1.1-2.9c-.6-.7-1.7-1.4-3.2-2z"/>
        <filter id="b" width="129.8%" height="148.3%" x="-14.9%" y="-17.2%" filterUnits="objectBoundingBox">
            <feOffset dy="2" in="SourceAlpha" result="shadowOffsetOuter1"/>
            <feGaussianBlur in="shadowOffsetOuter1" result="shadowBlurOuter1" stdDeviation="2"/>
            <feColorMatrix in="shadowBlurOuter1" values="0 0 0 0 0 0 0 0 0 0 0 0 0 0 0 0 0 0 0.2 0"/>
        </filter>
        <path id="e" d="M49.285 35.457h-38.57c-.473 0-.887-.162-1.3-.405-.178-.163-.415.08-.415.405v1.785C9 38.783 9.769 40 10.715 40h38.57C50.23 40 51 38.783 51 37.242v-1.785c0-.324-.177-.568-.414-.405a2.364 2.364 0 0 1-1.301.405z"/>
        <filter id="d" width="133.3%" height="380%" x="-16.7%" y="-100%" filterUnits="objectBoundingBox">
            <feOffset dy="2" in="SourceAlpha" result="shadowOffsetOuter1"/>
            <feGaussianBlur in="shadowOffsetOuter1" result="shadowBlurOuter1" stdDeviation="2"/>
            <feColorMatrix in="shadowBlurOuter1" values="0 0 0 0 0 0 0 0 0 0 0 0 0 0 0 0 0 0 0.2 0"/>
        </filter>
        <path id="g" d="M47.448 40.457H12.552c-.428 0-.803-.162-1.177-.405-.16-.163-.375.08-.375.405v1.785c0 1.541.696 2.758 1.552 2.758h34.896C48.304 45 49 43.783 49 42.242v-1.785c0-.324-.16-.568-.375-.405a2 2 0 0 1-1.177.405z"/>
        <filter id="f" width="136.8%" height="380%" x="-18.4%" y="-100%" filterUnits="objectBoundingBox">
            <feOffset dy="2" in="SourceAlpha" result="shadowOffsetOuter1"/>
            <feGaussianBlur in="shadowOffsetOuter1" result="shadowBlurOuter1" stdDeviation="2"/>
            <feColorMatrix in="shadowBlurOuter1" values="0 0 0 0 0 0 0 0 0 0 0 0 0 0 0 0 0 0 0.2 0"/>
        </filter>
        <path id="i" d="M43.815 50.457h-26.63c-.327 0-.613-.162-.9-.405-.122-.163-.285.08-.285.405v1.785c0 1.541.531 2.758 1.185 2.758h26.63C44.47 55 45 53.783 45 52.242v-1.785c0-.324-.123-.568-.286-.405-.245.243-.572.405-.899.405z"/>
        <filter id="h" width="148.3%" height="380%" x="-24.1%" y="-100%" filterUnits="objectBoundingBox">
            <feOffset dy="2" in="SourceAlpha" result="shadowOffsetOuter1"/>
            <feGaussianBlur in="shadowOffsetOuter1" result="shadowBlurOuter1" stdDeviation="2"/>
            <feColorMatrix in="shadowBlurOuter1" values="0 0 0 0 0 0 0 0 0 0 0 0 0 0 0 0 0 0 0.2 0"/>
        </filter>
        <path id="k" d="M45.611 45.457H14.39c-.383 0-.719-.162-1.054-.405-.143-.163-.335.08-.335.405v1.785c0 1.541.623 2.758 1.389 2.758H45.61C46.377 50 47 48.783 47 47.242v-1.785c0-.324-.144-.568-.335-.405-.288.243-.67.405-1.054.405z"/>
        <filter id="j" width="141.2%" height="380%" x="-20.6%" y="-100%" filterUnits="objectBoundingBox">
            <feOffset dy="2" in="SourceAlpha" result="shadowOffsetOuter1"/>
            <feGaussianBlur in="shadowOffsetOuter1" result="shadowBlurOuter1" stdDeviation="2"/>
            <feColorMatrix in="shadowBlurOuter1" values="0 0 0 0 0 0 0 0 0 0 0 0 0 0 0 0 0 0 0.2 0"/>
        </filter>
    </defs>
    <g fill="none" fill-rule="evenodd">
        <path fill="url(#a)" d="M10 0h40c5.523 0 10 4.477 10 10v40c0 5.523-4.477 10-10 10H10C4.477 60 0 55.523 0 50V10C0 4.477 4.477 0 10 0z"/>
        <g fill-rule="nonzero">
            <use fill="#000" filter="url(#b)" xlink:href="#c"/>
            <use fill="#FFF" xlink:href="#c"/>
        </g>
        <g fill-rule="nonzero" opacity=".8">
            <use fill="#000" filter="url(#d)" xlink:href="#e"/>
            <use fill="#FFF" xlink:href="#e"/>
        </g>
        <g fill-rule="nonzero" opacity=".5">
            <use fill="#000" filter="url(#f)" xlink:href="#g"/>
            <use fill="#FFF" xlink:href="#g"/>
        </g>
        <g fill-rule="nonzero" opacity=".1">
            <use fill="#000" filter="url(#h)" xlink:href="#i"/>
            <use fill="#FFF" xlink:href="#i"/>
        </g>
        <g fill-rule="nonzero" opacity=".3">
            <use fill="#000" filter="url(#j)" xlink:href="#k"/>
            <use fill="#FFF" xlink:href="#k"/>
        </g>
    </g>
</svg>
