<svg xmlns="http://www.w3.org/2000/svg" xmlns:xlink="http://www.w3.org/1999/xlink" width="60" height="60" viewBox="0 0 60 60">
    <defs>
        <linearGradient id="b" x1="1.444%" y1="0%" y2="100%">
            <stop offset="0%" stop-color="#6078EA"/>
            <stop offset="100%" stop-color="#17EAD9"/>
        </linearGradient>
        <path id="a" d="M10 0h40c5.523 0 10 4.477 10 10v40c0 5.523-4.477 10-10 10H10C4.477 60 0 55.523 0 50V10C0 4.477 4.477 0 10 0z"/>
        <path id="d" d="M38.851 5.563c.187-.438.311-.938.311-1.438 0-2-1.616-3.625-3.605-3.625-1.99 0-3.606 1.625-3.606 3.625s1.617 3.625 3.606 3.625c.621 0 1.243-.188 1.74-.438 3.917 3.875 6.154 9.125 6.154 14.688 0 11.313-9.137 20.5-20.451 20.5S2.61 33.312 2.61 21.937c0-4.312 1.368-8.5 3.855-12 .373.126.808.25 1.305.25 1.99 0 3.606-1.624 3.606-3.624S9.759 2.938 7.77 2.938c-1.989 0-3.605 1.624-3.605 3.624 0 .688.186 1.313.497 1.875C1.802 12.313.25 17.063.25 21.938.249 34.563 10.443 44.813 23 44.813s22.751-10.25 22.751-22.874c.063-6.188-2.486-12.063-6.9-16.375z"/>
        <filter id="e" width="108.8%" height="109%" x="-4.4%" y="-4.5%" filterUnits="objectBoundingBox">
            <feGaussianBlur in="SourceAlpha" result="shadowBlurInner1" stdDeviation="1.5"/>
            <feOffset dy="1" in="shadowBlurInner1" result="shadowOffsetInner1"/>
            <feComposite in="shadowOffsetInner1" in2="SourceAlpha" k2="-1" k3="1" operator="arithmetic" result="shadowInnerInner1"/>
            <feColorMatrix in="shadowInnerInner1" values="0 0 0 0 0.498039216 0 0 0 0 0.591037639 0 0 0 0 0.952941176 0 0 0 0.646716565 0"/>
        </filter>
        <path id="g" d="M11.19 15.625c0 1.063.434 2 1.18 2.688-.373 1.187-.621 2.375-.621 3.625 0 6.25 5.035 11.312 11.251 11.312 6.216 0 11.251-5.063 11.251-11.313 0-1.75-.373-3.437-1.18-5a3.756 3.756 0 0 0 .683-2.125c0-2-1.616-3.624-3.605-3.624-1.99 0-3.606 1.624-3.606 3.624s1.616 3.626 3.606 3.626c.31 0 .621-.063.932-.125.497 1.125.746 2.375.746 3.687 0 4.938-3.978 8.938-8.89 8.938-4.91 0-8.888-4-8.888-8.938 0-.938.124-1.875.435-2.75h.248c1.99 0 3.606-1.625 3.606-3.625S16.722 12 14.732 12c-1.989 0-3.543 1.625-3.543 3.625z"/>
        <filter id="f" width="160.7%" height="163.5%" x="-30.4%" y="-22.7%" filterUnits="objectBoundingBox">
            <feOffset dy="2" in="SourceAlpha" result="shadowOffsetOuter1"/>
            <feGaussianBlur in="shadowOffsetOuter1" result="shadowBlurOuter1" stdDeviation="2"/>
            <feColorMatrix in="shadowBlurOuter1" values="0 0 0 0 0 0 0 0 0 0 0 0 0 0 0 0 0 0 0.2 0"/>
        </filter>
    </defs>
    <g fill="none" fill-rule="evenodd">
        <mask id="c" fill="#fff">
            <use xlink:href="#a"/>
        </mask>
        <use fill="url(#b)" xlink:href="#a"/>
        <g fill-rule="nonzero" mask="url(#c)">
            <g transform="translate(7 8)">
                <use fill="#FFF" xlink:href="#d"/>
                <use fill="#000" filter="url(#e)" xlink:href="#d"/>
            </g>
            <g transform="translate(7 8)">
                <use fill="#000" filter="url(#f)" xlink:href="#g"/>
                <use fill="#FFF" xlink:href="#g"/>
            </g>
            <path fill="#FFF" d="M18.376 34.25c0-2-1.617-3.625-3.606-3.625-1.989 0-3.605 1.625-3.605 3.625s1.616 3.625 3.605 3.625h.311C18.003 43.438 23.721 47 30.062 47c9.324 0 16.846-7.625 16.846-16.938 0-4.562-1.74-8.812-4.973-12a16.757 16.757 0 0 0-10.878-4.937 3.611 3.611 0 0 0-3.543-2.813c-1.99 0-3.606 1.626-3.606 3.626s1.616 3.624 3.606 3.624c1.43 0 2.672-.875 3.294-2.125 3.606.188 6.9 1.688 9.449 4.25 2.735 2.75 4.289 6.438 4.289 10.313A14.511 14.511 0 0 1 30 44.563c-5.408 0-10.319-3-12.805-7.75.683-.626 1.18-1.563 1.18-2.563z"/>
        </g>
    </g>
</svg>
