<svg xmlns="http://www.w3.org/2000/svg" xmlns:xlink="http://www.w3.org/1999/xlink" width="60" height="60" viewBox="0 0 60 60">
    <defs>
        <linearGradient id="b" x1="12.227%" x2="83.257%" y1="-31.593%" y2="132.324%">
            <stop offset="0%" stop-color="#EF33F2"/>
            <stop offset="100%" stop-color="#3544DC"/>
        </linearGradient>
        <path id="a" d="M10 0h40c5.523 0 10 4.477 10 10v40c0 5.523-4.477 10-10 10H10C4.477 60 0 55.523 0 50V10C0 4.477 4.477 0 10 0z"/>
        <path id="d" d="M10 30h20v20H14a4 4 0 0 1-4-4V30z"/>
        <filter id="c" width="160%" height="160%" x="-30%" y="-30%" filterUnits="objectBoundingBox">
            <feOffset in="SourceAlpha" result="shadowOffsetOuter1"/>
            <feGaussianBlur in="shadowOffsetOuter1" result="shadowBlurOuter1" stdDeviation="2"/>
            <feColorMatrix in="shadowBlurOuter1" values="0 0 0 0 0 0 0 0 0 0 0 0 0 0 0 0 0 0 0.2 0"/>
        </filter>
        <path id="f" d="M14 10h16v20H10V14a4 4 0 0 1 4-4z"/>
        <filter id="e" width="160%" height="160%" x="-30%" y="-30%" filterUnits="objectBoundingBox">
            <feOffset in="SourceAlpha" result="shadowOffsetOuter1"/>
            <feGaussianBlur in="shadowOffsetOuter1" result="shadowBlurOuter1" stdDeviation="2"/>
            <feColorMatrix in="shadowBlurOuter1" values="0 0 0 0 0 0 0 0 0 0 0 0 0 0 0 0 0 0 0.2 0"/>
        </filter>
        <path id="h" d="M30 10h16a4 4 0 0 1 4 4v16H30V10z"/>
        <filter id="g" width="160%" height="160%" x="-30%" y="-30%" filterUnits="objectBoundingBox">
            <feOffset in="SourceAlpha" result="shadowOffsetOuter1"/>
            <feGaussianBlur in="shadowOffsetOuter1" result="shadowBlurOuter1" stdDeviation="2"/>
            <feColorMatrix in="shadowBlurOuter1" values="0 0 0 0 0 0 0 0 0 0 0 0 0 0 0 0 0 0 0.2 0"/>
        </filter>
        <path id="j" d="M34 34h20v16a4 4 0 0 1-4 4H34V34z"/>
        <filter id="i" width="160%" height="160%" x="-30%" y="-30%" filterUnits="objectBoundingBox">
            <feOffset in="SourceAlpha" result="shadowOffsetOuter1"/>
            <feGaussianBlur in="shadowOffsetOuter1" result="shadowBlurOuter1" stdDeviation="2"/>
            <feColorMatrix in="shadowBlurOuter1" values="0 0 0 0 0 0 0 0 0 0 0 0 0 0 0 0 0 0 0.2 0"/>
        </filter>
        <rect id="l" width="42" height="42" x="8" y="8" rx="4"/>
        <filter id="k" width="128.6%" height="128.6%" x="-14.3%" y="-14.3%" filterUnits="objectBoundingBox">
            <feOffset in="SourceAlpha" result="shadowOffsetOuter1"/>
            <feGaussianBlur in="shadowOffsetOuter1" result="shadowBlurOuter1" stdDeviation="2"/>
            <feColorMatrix in="shadowBlurOuter1" values="0 0 0 0 0 0 0 0 0 0 0 0 0 0 0 0 0 0 0.2 0"/>
        </filter>
        <linearGradient id="m" x1="12.227%" x2="83.257%" y1="42.657%" y2="57.409%">
            <stop offset="0%" stop-color="#EF33F2"/>
            <stop offset="100%" stop-color="#3544DC"/>
        </linearGradient>
        <rect id="o" width="10" height="3" x="39" y="38" rx="1.5"/>
        <filter id="n" width="230%" height="533.3%" x="-65%" y="-183.3%" filterUnits="objectBoundingBox">
            <feOffset dy="1" in="SourceAlpha" result="shadowOffsetOuter1"/>
            <feGaussianBlur in="shadowOffsetOuter1" result="shadowBlurOuter1" stdDeviation="2"/>
            <feColorMatrix in="shadowBlurOuter1" values="0 0 0 0 0 0 0 0 0 0 0 0 0 0 0 0 0 0 0.2 0"/>
        </filter>
    </defs>
    <g fill="none" fill-rule="evenodd">
        <use fill="url(#b)" xlink:href="#a"/>
        <g opacity=".4">
            <use fill="#000" filter="url(#c)" xlink:href="#d"/>
            <use fill="#FFF" xlink:href="#d"/>
        </g>
        <g opacity=".6">
            <use fill="#000" filter="url(#e)" xlink:href="#f"/>
            <use fill="#FFF" xlink:href="#f"/>
        </g>
        <g opacity=".8">
            <use fill="#000" filter="url(#g)" xlink:href="#h"/>
            <use fill="#FFF" xlink:href="#h"/>
        </g>
        <use fill="#000" filter="url(#i)" xlink:href="#j"/>
        <use fill="#FFF" xlink:href="#j"/>
        <g opacity=".2">
            <use fill="#000" filter="url(#k)" xlink:href="#l"/>
            <use fill="#FFF" xlink:href="#l"/>
        </g>
        <rect width="10" height="3" x="35" y="14" fill="url(#m)" rx="1.5"/>
        <rect width="10" height="3" x="15" y="14" fill="url(#m)" rx="1.5"/>
        <rect width="10" height="3" x="15" y="34" fill="url(#m)" rx="1.5"/>
        <g>
            <use fill="#000" filter="url(#n)" xlink:href="#o"/>
            <use fill="url(#m)" xlink:href="#o"/>
        </g>
    </g>
</svg>
