<svg width="24" height="24" viewBox="0 0 24 24" fill="none" xmlns="http://www.w3.org/2000/svg">
<path fill-rule="evenodd" clip-rule="evenodd" d="M7.0502 5.63604L5.63599 7.05025L10.5857 12L5.63599 16.9497L7.0502 18.364L11.9999 13.4142L16.9497 18.364L18.3639 16.9497L13.4142 12L18.3639 7.05025L16.9497 5.63604L11.9999 10.5858L7.0502 5.63604Z" fill="#7E7E7E"/>
<mask id="mask0" mask-type="alpha" maskUnits="userSpaceOnUse" x="5" y="5" width="14" height="14">
<path fill-rule="evenodd" clip-rule="evenodd" d="M7.0502 5.63604L5.63599 7.05025L10.5857 12L5.63599 16.9497L7.0502 18.364L11.9999 13.4142L16.9497 18.364L18.3639 16.9497L13.4142 12L18.3639 7.05025L16.9497 5.63604L11.9999 10.5858L7.0502 5.63604Z" fill="white"/>
</mask>
<g mask="url(#mask0)">
<rect width="24" height="24" rx="2" fill="#7E7E7E"/>
</g>
</svg>
