<?xml version="1.0" encoding="UTF-8"?>
<svg width="33px" height="16px" viewBox="0 0 33 16" version="1.1" xmlns="http://www.w3.org/2000/svg" xmlns:xlink="http://www.w3.org/1999/xlink">
    <!-- Generator: Sketch 63.1 (92452) - https://sketch.com -->
    <title>beta-label</title>
    <desc>Created with Sketch.</desc>
    <g id="PM---Actual-Version" stroke="none" stroke-width="1" fill="none" fill-rule="evenodd">
        <g id="26-PM-/-01_Home-/-01_01_EmptyPage" transform="translate(-73.000000, -8.000000)">
            <g id="beta-label" transform="translate(73.000000, 8.000000)">
                <g id="Elements-/-Containers-/-radius-all" fill="#383838">
                    <rect x="0" y="0" width="33" height="16" rx="2"></rect>
                </g>
                <path d="M6.68066406,11 C7.25488281,11 7.74633789,10.8330078 8.1550293,10.4990234 C8.5637207,10.1650391 8.76806641,9.71679688 8.76806641,9.15429688 C8.76806641,8.77050781 8.65087891,8.43945312 8.41650391,8.16113281 C8.18212891,7.8828125 7.85839844,7.6953125 7.4453125,7.59863281 L7.4453125,7.59863281 L7.4453125,7.58105469 C7.78808594,7.47851562 8.05688477,7.31298828 8.25170898,7.08447266 C8.4465332,6.85595703 8.54394531,6.59521484 8.54394531,6.30224609 C8.54394531,5.82470703 8.37548828,5.45483398 8.03857422,5.19262695 C7.70166016,4.93041992 7.234375,4.79931641 6.63671875,4.79931641 L6.63671875,4.79931641 L4.91845703,4.79931641 L4.91845703,11 L6.68066406,11 Z M6.48291016,7.26464844 L5.63916016,7.26464844 L5.63916016,5.42773438 L6.52685547,5.42773438 C6.94580078,5.42773438 7.26367188,5.50463867 7.48046875,5.65844727 C7.69726562,5.81225586 7.80566406,6.03271484 7.80566406,6.31982422 C7.80566406,6.94970703 7.36474609,7.26464844 6.48291016,7.26464844 L6.48291016,7.26464844 Z M6.45654297,10.371582 L5.63916016,10.371582 L5.63916016,7.89306641 L6.40380859,7.89306641 C6.92529297,7.89306641 7.32373047,8.00292969 7.59912109,8.22265625 C7.87451172,8.44238281 8.01220703,8.75292969 8.01220703,9.15429688 C8.01220703,9.53222656 7.87231445,9.82958984 7.5925293,10.0463867 C7.31274414,10.2631836 6.93408203,10.371582 6.45654297,10.371582 L6.45654297,10.371582 Z M14.6646484,11 L14.6646484,10.371582 L12.146582,10.371582 L12.146582,7.9765625 L14.5416016,7.9765625 L14.5416016,7.34814453 L12.146582,7.34814453 L12.146582,5.42773438 L14.6382812,5.42773438 L14.6382812,4.79931641 L11.4258789,4.79931641 L11.4258789,11 L14.6646484,11 Z M19.6691406,11 L19.6691406,5.38378906 L21.5807617,5.38378906 L21.5807617,4.79931641 L17.0324219,4.79931641 L17.0324219,5.38378906 L18.952832,5.38378906 L18.952832,11 L19.6691406,11 Z M23.9001953,11 L24.5945312,8.82910156 L26.6291992,8.82910156 L27.3147461,11 L28.0706055,11 L26.0447266,4.79931641 L25.1790039,4.79931641 L23.153125,11 L23.9001953,11 Z M26.4226562,8.20068359 L24.8010742,8.20068359 L25.609668,5.63427734 L26.4226562,8.20068359 Z" id="BETA" fill="#FFFFFF" fill-rule="nonzero"></path>
            </g>
        </g>
    </g>
</svg>