<?xml version="1.0" encoding="UTF-8"?>
<svg width="1238px" height="175px" viewBox="0 0 1238 175" version="1.1" xmlns="http://www.w3.org/2000/svg" xmlns:xlink="http://www.w3.org/1999/xlink">
    <!-- Generator: Sketch 52.6 (67491) - http://www.bohemiancoding.com/sketch -->
    <title>Logo color</title>
    <desc>Created with Sketch.</desc>
    <g id="Logo-color" stroke="none" stroke-width="1" fill="none" fill-rule="evenodd">
        <path d="M1091,4.29878355e-13 L1109.65738,19.0787676 L1218.7,128.243771 L1218.7,3.55271368e-15 L1237.7,3.55271368e-15 L1237.67135,170.306972 L1237.68481,174.119841 L1218.63431,155.069339 L1110,46.097953 L1110,174 L1091,174 L1091,3.55271368e-15 Z M1054.99938,86.9350744 C1055.04239,98.4445529 1052.84541,109.851157 1048.53242,120.511221 C1044.19467,131.033106 1037.76915,140.553947 1029.6489,148.491344 C1013.0683,164.79886 990.816658,173.950745 967.63076,173.998804 C956.211488,174.058983 944.892995,171.847608 934.32592,167.491799 C923.712146,163.122576 914.046926,156.71287 905.871299,148.621484 C889.29324,132.492412 879.954053,110.268464 880.003461,87.0652145 C879.900404,75.5501301 882.099648,64.1317619 886.470421,53.4890677 C890.828081,42.8887541 897.298858,33.2996492 905.483281,25.3137352 C922.034401,9.14606064 944.174996,0.071689691 967.242743,0.00148494127 C978.746465,-0.0656665796 990.15091,2.14532886 1000.80626,6.50849014 C1011.42678,10.7758297 1021.09889,17.1237445 1029.26088,25.1835951 C1037.39685,33.132911 1043.82406,42.6783993 1048.1444,53.2287875 C1052.59567,63.9057963 1054.92453,75.3569598 1054.99938,86.9350744 Z M967.63076,155.388769 C976.403986,155.436464 985.095119,153.687474 993.175249,150.248235 C1001.36208,146.713174 1008.78637,141.607755 1015.03357,135.217053 C1027.66108,122.383691 1034.64914,104.992855 1034.43445,86.9350744 C1034.45879,77.856995 1032.72344,68.8612635 1029.32555,60.4515633 C1022.61495,43.7922156 1009.58127,30.5116371 993.110262,23.5502427 C976.639253,16.5888482 958.08981,16.5209689 941.568914,23.3616336 C933.445367,26.7500814 926.111558,31.8025222 920.033939,38.1976055 C913.743152,44.6046819 908.756486,52.1862589 905.353942,60.5166333 C902.028924,68.9209322 900.338474,77.8894113 900.374383,86.9350744 C900.450468,114.47172 916.722649,139.350423 941.827592,150.313305 C949.998881,153.743963 958.777042,155.47062 967.63076,155.388769 Z M844,-7.10542736e-15 L825.393066,19 L701.39978,19 L720,-7.10542736e-15 L844,-7.10542736e-15 Z M844,155 L825.393066,174 L701.39978,174 L720,155 L844,155 Z M844,77 L825.393066,96 L701.39978,96 L720,77 L844,77 Z M500,174 L500,1.77635684e-14 L519.876133,1.77635684e-14 L519.876133,76.8852336 L644.669184,76.8852336 L644.669184,1.77635684e-14 L665,1.77635684e-14 L665,174 L644.799094,174 L644.799094,95.9439252 L519.876133,95.9439252 L519.876133,174 L500,174 Z M373.475866,174 L373.475866,18.9936449 L303,18.9936449 L303,6.03961325e-14 L464,6.03961325e-14 L464,18.9936449 L393.720045,18.9936449 L393.720045,174 L373.475866,174 Z M267,159 L248,174 L248,19.4249725 L267,3.55271368e-15 L267,159 Z M191.287356,174 L106,34 L20.7126437,174 L0,174 L106,3.55271368e-15 L212,174 L191.287356,174 Z" id="Combined-Shape" fill="#DCBC65" fill-rule="nonzero"></path>
    </g>
</svg>