<svg width="24" height="24" viewBox="0 0 24 24" fill="none" xmlns="http://www.w3.org/2000/svg">
<path fill-rule="evenodd" clip-rule="evenodd" d="M19.1 10.5684H20.34C20.7 10.5684 21 10.8487 21 11.2291V12.8109C21 13.1713 20.7 13.4716 20.34 13.4716H19.1C18.9 14.3726 18.56 15.2336 18.04 16.0145L18.9 16.8754C19.04 16.9956 19.1 17.1557 19.1 17.3359C19.1 17.5161 19.02 17.6763 18.9 17.7964L17.74 18.9577C17.62 19.0578 17.48 19.1179 17.32 19.1179C17.14 19.1179 16.98 19.0378 16.86 18.9177L15.98 18.0367C15.2 18.5573 14.36 18.9177 13.44 19.0979V20.3393C13.44 20.6997 13.14 21 12.78 21H11.2C10.84 21 10.54 20.6997 10.54 20.3393V19.0979C9.64 18.8977 8.78 18.5573 8 18.0367L7.12 18.9177C6.86 19.178 6.44 19.178 6.18 18.9177L5.1 17.8365H5.08L5.06 17.7764C4.94 17.6563 4.88 17.4961 4.88 17.3359C4.88 17.1557 4.96 16.9956 5.08 16.8754L5.96 15.9944C5.44 15.2136 5.08 14.3726 4.9 13.4516H3.66C3.3 13.4516 3 13.1513 3 12.7909V11.2091C3 10.8487 3.3 10.5484 3.66 10.5484H4.9C5.1 9.64739 5.44 8.78643 5.96 8.00556L5.08 7.12458C4.94 7.00445 4.88 6.84427 4.88 6.66407C4.88 6.48387 4.96 6.32369 5.08 6.20356L6.2 5.08231C6.46 4.82202 6.88 4.82202 7.14 5.08231L8.02 5.96329C8.8 5.44271 9.64 5.08231 10.56 4.90211V3.66073C10.56 3.30033 10.86 3 11.22 3H12.8C13.16 3 13.46 3.30033 13.46 3.66073V4.90211C14.36 5.10234 15.22 5.44271 16 5.96329L16.86 5.08231C17.12 4.82202 17.54 4.82202 17.8 5.08231L18.92 6.20356C19.18 6.46385 19.18 6.88432 18.92 7.14461L18.04 8.02558C18.56 8.80645 18.92 9.64739 19.1 10.5684ZM8 12C8 14.218 9.80095 16 12 16C14.1991 16 16 14.218 16 12C16 9.78199 14.1991 8 12 8C9.80095 8 8 9.78199 8 12Z" fill="#7E7E7E"/>
<mask id="mask0" mask-type="alpha" maskUnits="userSpaceOnUse" x="3" y="3" width="18" height="18">
<path fill-rule="evenodd" clip-rule="evenodd" d="M19.1 10.5684H20.34C20.7 10.5684 21 10.8487 21 11.2291V12.8109C21 13.1713 20.7 13.4716 20.34 13.4716H19.1C18.9 14.3726 18.56 15.2336 18.04 16.0145L18.9 16.8754C19.04 16.9956 19.1 17.1557 19.1 17.3359C19.1 17.5161 19.02 17.6763 18.9 17.7964L17.74 18.9577C17.62 19.0578 17.48 19.1179 17.32 19.1179C17.14 19.1179 16.98 19.0378 16.86 18.9177L15.98 18.0367C15.2 18.5573 14.36 18.9177 13.44 19.0979V20.3393C13.44 20.6997 13.14 21 12.78 21H11.2C10.84 21 10.54 20.6997 10.54 20.3393V19.0979C9.64 18.8977 8.78 18.5573 8 18.0367L7.12 18.9177C6.86 19.178 6.44 19.178 6.18 18.9177L5.1 17.8365H5.08L5.06 17.7764C4.94 17.6563 4.88 17.4961 4.88 17.3359C4.88 17.1557 4.96 16.9956 5.08 16.8754L5.96 15.9944C5.44 15.2136 5.08 14.3726 4.9 13.4516H3.66C3.3 13.4516 3 13.1513 3 12.7909V11.2091C3 10.8487 3.3 10.5484 3.66 10.5484H4.9C5.1 9.64739 5.44 8.78643 5.96 8.00556L5.08 7.12458C4.94 7.00445 4.88 6.84427 4.88 6.66407C4.88 6.48387 4.96 6.32369 5.08 6.20356L6.2 5.08231C6.46 4.82202 6.88 4.82202 7.14 5.08231L8.02 5.96329C8.8 5.44271 9.64 5.08231 10.56 4.90211V3.66073C10.56 3.30033 10.86 3 11.22 3H12.8C13.16 3 13.46 3.30033 13.46 3.66073V4.90211C14.36 5.10234 15.22 5.44271 16 5.96329L16.86 5.08231C17.12 4.82202 17.54 4.82202 17.8 5.08231L18.92 6.20356C19.18 6.46385 19.18 6.88432 18.92 7.14461L18.04 8.02558C18.56 8.80645 18.92 9.64739 19.1 10.5684ZM8 12C8 14.218 9.80095 16 12 16C14.1991 16 16 14.218 16 12C16 9.78199 14.1991 8 12 8C9.80095 8 8 9.78199 8 12Z" fill="white"/>
</mask>
<g mask="url(#mask0)">
<rect width="24" height="24" rx="2" fill="#7E7E7E"/>
</g>
</svg>
