<svg width="24" height="24" viewBox="0 0 24 24" fill="none" xmlns="http://www.w3.org/2000/svg">
<g id="icon / 24-cont / actions / add-photo-24">
<path id="add-photo-24" fill-rule="evenodd" clip-rule="evenodd" d="M5 4H7V6H9V8H7V10H5V8H3V6H5V4ZM19.4 7H16.864L15.4 6H11.0552V8H14.5334L16.0496 9.01324H19.0122V18.014H7V12H5V18.4444C5 19.3 5.72 20 6.6 20H19.4C20.28 20 21 19.3 21 18.4444V9.11111C21 8.25556 20.28 7 19.4 7ZM10 13C10 14.656 11.344 16 13 16C14.656 16 16 14.656 16 13C16 11.344 14.656 10 13 10C11.344 10 10 11.344 10 13Z" fill="#7E7E7E"/>
</g>
</svg>
