<svg width="24" height="24" viewBox="0 0 24 24" fill="none" xmlns="http://www.w3.org/2000/svg">
<g id="icon / 24-cont / actions / add-sub-task-24-active">
<path id="add-sub-task-24" fill-rule="evenodd" clip-rule="evenodd" d="M3 4C3 3.44772 3.44772 3 4 3H10C10.5523 3 11 3.44772 11 4V8C11 8.55228 10.5523 9 10 9H8V12H9C9 11.4477 9.44772 11 10 11H14C14.5523 11 15 11.4477 15 12V14C15 14.5523 14.5523 15 14 15H10C9.44772 15 9 14.5523 9 14H8V18H9C9 17.4477 9.44772 17 10 17H14C14.5523 17 15 17.4477 15 18V20C15 20.5523 14.5523 21 14 21H10C9.44772 21 9 20.5523 9 20H8H6V9H4C3.44772 9 3 8.55228 3 8V4ZM17 3H19V5H21V7H19V9H17V7H15V5H17V3Z" fill="#DCBC65"/>
</g>
</svg>
