<svg width="24" height="24" viewBox="0 0 24 24" fill="none" xmlns="http://www.w3.org/2000/svg">
<g id="icon / 24-cont / actions / cancel-circle-o-24">
<path id="cancel-circle-o-24" fill-rule="evenodd" clip-rule="evenodd" d="M12 21C16.9706 21 21 16.9706 21 12C21 7.02944 16.9706 3 12 3C7.02944 3 3 7.02944 3 12C3 16.9706 7.02944 21 12 21ZM12 19C8.13401 19 5 15.866 5 12C5 8.13401 8.13401 5 12 5C15.866 5 19 8.13401 19 12C19 15.866 15.866 19 12 19ZM9.52513 8.11091C9.32986 7.91565 9.01328 7.91565 8.81802 8.11091L8.11091 8.81802C7.91565 9.01328 7.91565 9.32986 8.11091 9.52513L10.5858 12L8.11091 14.4749C7.91565 14.6701 7.91565 14.9867 8.11091 15.182L8.81802 15.8891C9.01328 16.0843 9.32986 16.0843 9.52513 15.8891L12 13.4142L14.4749 15.8891C14.6701 16.0843 14.9867 16.0843 15.182 15.8891L15.8891 15.182C16.0843 14.9867 16.0843 14.6701 15.8891 14.4749L13.4142 12L15.8891 9.52513C16.0843 9.32986 16.0843 9.01328 15.8891 8.81802L15.182 8.11091C14.9867 7.91565 14.6701 7.91565 14.4749 8.11091L12 10.5858L9.52513 8.11091Z" fill="#7E7E7E"/>
</g>
</svg>
