<svg width="24" height="24" viewBox="0 0 24 24" fill="none" xmlns="http://www.w3.org/2000/svg">
<g id="icon / 24-cont / actions / cancel-circle-f-24-active">
<path id="cancel-circle-f-24" fill-rule="evenodd" clip-rule="evenodd" d="M8.81802 8.11091C9.01328 7.91565 9.32986 7.91565 9.52513 8.11091L12 10.5858L14.4749 8.11091C14.6701 7.91565 14.9867 7.91565 15.182 8.11091L15.8891 8.81802C16.0843 9.01328 16.0843 9.32986 15.8891 9.52513L13.4142 12L15.8891 14.4749C16.0843 14.6701 16.0843 14.9867 15.8891 15.182L15.182 15.8891C14.9867 16.0843 14.6701 16.0843 14.4749 15.8891L12 13.4142L9.52513 15.8891C9.32986 16.0843 9.01328 16.0843 8.81802 15.8891L8.11091 15.182C7.91565 14.9867 7.91565 14.6701 8.11091 14.4749L10.5858 12L8.11091 9.52513C7.91565 9.32986 7.91565 9.01328 8.11091 8.81802L8.81802 8.11091ZM12 21C16.9706 21 21 16.9706 21 12C21 7.02944 16.9706 3 12 3C7.02944 3 3 7.02944 3 12C3 16.9706 7.02944 21 12 21Z" fill="#DCBC65"/>
</g>
</svg>
