<svg width="24" height="24" viewBox="0 0 24 24" fill="none" xmlns="http://www.w3.org/2000/svg">
<g id="icon / 24-cont / actions / duplicate-24">
<path id="duplicate-24" fill-rule="evenodd" clip-rule="evenodd" d="M9.12727 3H19.8727C20.4909 3 21 3.50909 21 4.12727V14.8727C21 15.4909 20.4909 16 19.8727 16H18V8.37839C18 7.23293 16.7401 6 15.5946 6H8V4.12727C8 3.50909 8.50909 3 9.12727 3ZM4.12727 8H14.8727C15.4909 8 16 8.4916 16 9.11064V19.8711C16 20.4902 15.4909 21 14.8727 21H4.12727C3.50909 21 3 20.4902 3 19.8711V9.11064C3 8.4916 3.50909 8 4.12727 8Z" fill="#7E7E7E"/>
</g>
</svg>
