<svg width="24" height="24" viewBox="0 0 24 24" fill="none" xmlns="http://www.w3.org/2000/svg">
<g id="icon / 24-cont / actions / done-all-24-active">
<path id="done-all-24" fill-rule="evenodd" clip-rule="evenodd" d="M19.6798 8.20831L12.0186 15.2746L9.32016 12.7928C9.01775 12.5139 8.52923 12.5139 8.22681 12.7928C7.9244 13.0717 7.9244 13.5223 8.22681 13.8012L11.4681 16.7908C11.7705 17.0697 12.259 17.0697 12.5614 16.7908L20.7732 9.22391C21.0756 8.94498 21.0756 8.4944 20.7732 8.21546H20.7654C20.4708 7.92938 19.9823 7.92938 19.6798 8.20831ZM15.8057 8.19918C15.5399 7.93361 15.1104 7.93361 14.8446 8.19918L11 12.0398L11.9611 13L15.8057 9.15254C16.0648 8.89377 16.0648 8.45795 15.8057 8.19918ZM7.39727 16.8108L4.22218 14.1075C3.92594 13.8553 3.92594 13.4414 4.22218 13.1892C4.51842 12.9369 4.99696 12.9369 5.2932 13.1892L9 16.3581L8.46829 16.8108C8.17205 17.0631 7.69351 17.0631 7.39727 16.8108Z" fill="#DCBC65"/>
</g>
</svg>
