<svg width="24" height="24" viewBox="0 0 24 24" fill="none" xmlns="http://www.w3.org/2000/svg">
<g id="icon / 24-cont / actions / full-screen-exit-24-active">
<path id="Shape" fill-rule="evenodd" clip-rule="evenodd" d="M5 8H8V5H10V10H5V8ZM8 16H5V14H10V19H8V16ZM14 19H16V16H19V14H14V19ZM16 5V8H19V10H14V5H16Z" fill="#DCBC65"/>
<mask id="mask0" mask-type="alpha" maskUnits="userSpaceOnUse" x="5" y="5" width="14" height="14">
<path id="Shape_2" fill-rule="evenodd" clip-rule="evenodd" d="M5 8H8V5H10V10H5V8ZM8 16H5V14H10V19H8V16ZM14 19H16V16H19V14H14V19ZM16 5V8H19V10H14V5H16Z" fill="white"/>
</mask>
<g mask="url(#mask0)">
<g id="Colors / Dark-Theme / Grayscale / Filled / $base-gray">
<rect id="Dark-Theme / Grayscale / Filled / $base-gray" width="24" height="24" rx="2" fill="#DCBC65"/>
</g>
</g>
</g>
</svg>
