<svg width="24" height="24" viewBox="0 0 24 24" fill="none" xmlns="http://www.w3.org/2000/svg">
<g id="icon / 24-cont / actions / hide-24">
<path id="hide-24" fill-rule="evenodd" clip-rule="evenodd" d="M19.7782 5.63589L18.364 4.22168L4.22183 18.3638L5.63604 19.778L19.7782 5.63589ZM14.9667 12.4473C14.7722 13.7437 13.7459 14.772 12.4474 14.9666L10.5234 16.8906C11.0093 16.9631 11.5015 16.9999 11.9982 16.9999C15.3789 16.9999 18.5509 15.3011 20.9271 12.2171C21.0243 12.0925 21.0243 11.9144 20.9271 11.7862C20.1244 10.7432 19.231 9.85875 18.2694 9.14469L14.9667 12.4473ZM13.4763 7.10938C12.9894 7.03669 12.496 6.99985 11.9982 6.99985C8.61745 6.99985 5.44914 8.69858 3.07291 11.7862C2.9757 11.9144 2.9757 12.0925 3.07291 12.2171C3.87542 13.2587 4.76869 14.1422 5.72997 14.8557L9.03337 11.5523C9.22834 10.2563 10.2565 9.22819 11.5524 9.03322L13.4763 7.10938Z" fill="#7E7E7E"/>
</g>
</svg>
