<svg width="24" height="24" viewBox="0 0 24 24" fill="none" xmlns="http://www.w3.org/2000/svg">
<g id="icon / 24-cont / actions / hide-24-active">
<path id="hide-24" fill-rule="evenodd" clip-rule="evenodd" d="M19.7782 5.63605L18.364 4.22183L4.22183 18.364L5.63604 19.7782L19.7782 5.63605ZM14.9667 12.4475C14.7722 13.7438 13.7459 14.7722 12.4474 14.9668L10.5234 16.8908C11.0093 16.9633 11.5015 17 11.9982 17C15.3789 17 18.5509 15.3013 20.9271 12.2172C21.0243 12.0926 21.0243 11.9146 20.9271 11.7863C20.1244 10.7434 19.231 9.85891 18.2694 9.14484L14.9667 12.4475ZM13.4763 7.10953C12.9894 7.03684 12.496 7.00001 11.9982 7.00001C8.61745 7.00001 5.44914 8.69873 3.07291 11.7863C2.9757 11.9146 2.9757 12.0926 3.07291 12.2172C3.87542 13.2588 4.76869 14.1424 5.72997 14.8558L9.03337 11.5524C9.22835 10.2564 10.2565 9.22834 11.5524 9.03337L13.4763 7.10953Z" fill="#DCBC65"/>
</g>
</svg>
