<svg width="24" height="24" viewBox="0 0 24 24" fill="none" xmlns="http://www.w3.org/2000/svg">
<g id="icon / 24-cont / actions / hierarchy-tree-24-active">
<path id="hierarchy-tree-24" fill-rule="evenodd" clip-rule="evenodd" d="M6 3C5.44772 3 5 3.44772 5 4V8C5 8.55228 5.44772 9 6 9H8V20H10H11C11 20.5523 11.4477 21 12 21H16C16.5523 21 17 20.5523 17 20V18C17 17.4477 16.5523 17 16 17H12C11.4477 17 11 17.4477 11 18H10V14H11C11 14.5523 11.4477 15 12 15H16C16.5523 15 17 14.5523 17 14V12C17 11.4477 16.5523 11 16 11H12C11.4477 11 11 11.4477 11 12H10V9H12C12.5523 9 13 8.55228 13 8V4C13 3.44772 12.5523 3 12 3H6Z" fill="#DCBC65"/>
</g>
</svg>
