<svg width="24" height="24" viewBox="0 0 24 24" fill="none" xmlns="http://www.w3.org/2000/svg">
<g id="icon / 24-cont / actions / inbox-24-active">
<path id="inbox-24" fill-rule="evenodd" clip-rule="evenodd" d="M3 5C3 3.89543 3.89543 3 5 3H19C20.1046 3 21 3.89543 21 5V19C21 20.1046 20.1046 21 19 21H5C3.89543 21 3 20.1046 3 19V5ZM19 16.9995H15.8271C15.7789 16.9995 15.7314 16.9956 15.6865 16.992C15.5261 16.9791 15.4 16.969 15.4 17.1464V17.8394C15.4 18.4804 14.8952 19 14.2726 19H9.75C9.1148 19 8.6 18.4701 8.6 17.8162V17.1464C8.6 16.9701 8.4962 16.979 8.34654 16.9918H8.34653C8.30343 16.9954 8.25653 16.9995 8.20721 16.9995H5V5H19V16.9995ZM14.0287 7V11.3457H16L12 15L8 11.3457H10.0255V7H14.0287Z" fill="#DCBC65"/>
</g>
</svg>
