<svg width="24" height="24" viewBox="0 0 24 24" fill="none" xmlns="http://www.w3.org/2000/svg">
<g id="icon / 24-cont / actions / print-24-active">
<path id="print-24" fill-rule="evenodd" clip-rule="evenodd" d="M18 4.5C18 3.672 17.4624 3 16.8 3H7.2C6.5376 3 6 3.672 6 4.5V6H18V4.5ZM4.28571 7H19.7143C20.424 7 21 7.57018 21 8.27273V15.9091C21 16.6116 20.424 17 19.7143 17H17.9832V19.7273C17.9832 20.4298 17.8526 21 17.1429 21H6.85714C6.14743 21 6.02063 20.5398 6.02063 19.8372V17H4.28571C3.576 17 3 16.6116 3 15.9091V8.27273C3 7.57018 3.576 7 4.28571 7ZM8 19H16V10H8V19ZM9 12H15V13H9V12ZM15 14H9V15H15V14ZM15 16H9V17H15V16Z" fill="#DCBC65"/>
</g>
</svg>
