<svg width="24" height="24" viewBox="0 0 24 24" fill="none" xmlns="http://www.w3.org/2000/svg">
<g id="icon / 24-cont / actions / show-24">
<path id="show-24" fill-rule="evenodd" clip-rule="evenodd" d="M11.9982 7C15.3789 7 18.5509 8.69872 20.9271 11.7863C21.0243 11.9145 21.0243 12.0926 20.9271 12.2172C18.5509 15.3013 15.3789 17 11.9982 17C8.62106 17 5.44914 15.3013 3.07291 12.2172C2.9757 12.0926 2.9757 11.9145 3.07291 11.7863C5.44914 8.69872 8.61745 7 11.9982 7ZM9 12C9 13.6533 10.3467 15 12 15C13.6569 15 15 13.6533 15 12C15 10.3467 13.6569 9 12 9C10.3467 9 9 10.3467 9 12Z" fill="#7E7E7E"/>
</g>
</svg>
