<svg width="24" height="24" viewBox="0 0 24 24" fill="none" xmlns="http://www.w3.org/2000/svg">
<g id="icon / 24-cont / actions / split-mode-24">
<path id="split-mode-24" fill-rule="evenodd" clip-rule="evenodd" d="M4 3H15C15.5523 3 16 3.44772 16 4V8H20C20.5523 8 21 8.44772 21 9V20C21 20.5523 20.5523 21 20 21H9C8.44772 21 8 20.5523 8 20V16H4C3.44772 16 3 15.5523 3 15V4C3 3.44772 3.44772 3 4 3ZM10 16V19H19V10H16V15C16 15.5523 15.5523 16 15 16H10ZM14 10V14H10V10H14ZM14 8H9C8.44772 8 8 8.44772 8 9V14H5V5H14V8Z" fill="#7E7E7E"/>
</g>
</svg>
