<svg width="24" height="24" viewBox="0 0 24 24" fill="none" xmlns="http://www.w3.org/2000/svg">
<g id="icon / 24-cont / actions / subtask-24">
<path id="subtask-24" fill-rule="evenodd" clip-rule="evenodd" d="M9 5H7V18H9H10C10 18.5523 10.4477 19 11 19H15C15.5523 19 16 18.5523 16 18V16C16 15.4477 15.5523 15 15 15H11C10.4477 15 10 15.4477 10 16H9V12H10C10 12.5523 10.4477 13 11 13H15C15.5523 13 16 12.5523 16 12V10C16 9.44772 15.5523 9 15 9H11C10.4477 9 10 9.44772 10 10H9V5Z" fill="#7E7E7E"/>
</g>
</svg>
