<svg width="24" height="24" viewBox="0 0 24 24" fill="none" xmlns="http://www.w3.org/2000/svg">
<g id="icon / 24-cont / actions / update-24">
<path id="update-24" fill-rule="evenodd" clip-rule="evenodd" d="M19.2073 12.7155C19.1362 12.7787 19.065 12.8419 19.065 12.8322C19.065 8.51767 15.8022 5 11.7805 5C9.95935 5 8.28997 5.71908 7 6.92403L8.21409 8.40106C9.1626 7.50707 10.4146 6.9629 11.7805 6.9629C14.7967 6.9629 17.2439 9.58657 17.2439 12.8322C17.2439 12.8419 17.1538 12.7787 17.0637 12.7155C16.9736 12.6524 16.8835 12.5892 16.8835 12.5989H15.2331L18.1355 16L21 12.5989H19.3496C19.3496 12.5892 19.2785 12.6524 19.2073 12.7155ZM4.79268 11.2776C4.86382 11.2144 4.93496 11.1513 4.93496 11.161C4.93496 15.4755 8.19783 18.9931 12.2195 18.9931C14.0407 18.9931 15.71 18.2741 17 17.0691L15.7859 15.5921C14.8374 16.4861 13.5854 17.0302 12.2195 17.0302C9.20325 17.0302 6.7561 14.4066 6.7561 11.161C6.7561 11.1513 6.84621 11.2144 6.93631 11.2776C7.02642 11.3408 7.11653 11.4039 7.11653 11.3942H8.76694L5.8645 7.99314L3 11.3942H4.65041C4.65041 11.4039 4.72154 11.3408 4.79268 11.2776Z" fill="#7E7E7E"/>
</g>
</svg>
