<svg width="24" height="24" viewBox="0 0 24 24" fill="none" xmlns="http://www.w3.org/2000/svg">
<g id="icon / 24-cont / social / chat-24">
<path id="chat-24" fill-rule="evenodd" clip-rule="evenodd" d="M16.1353 4.03516H4.84458C3.82002 4.03516 2.97988 4.85294 3.00037 5.85024V12.9909C3.00037 13.9882 3.82002 14.9813 4.84458 14.9813H6.00525V17.0352L10.022 14.9813H11.0039V11.4055C11.0039 10.3284 11.235 10.0435 12.362 10.0435H18V5.85024C18 4.85294 17.1599 4.03516 16.1353 4.03516ZM20.0064 10.9999H12.9941C12.44 10.9999 11.9815 11.4799 12.0006 12.0599V16.8399C12.0006 17.3999 12.44 18.0085 12.9941 18.0085H16.5L19.0046 19.9999V18.0085H20.0064C20.5414 18.0085 21 17.4199 21 16.8399V12.0599C21 11.4799 20.5414 10.9999 20.0064 10.9999Z" fill="#7E7E7E"/>
</g>
</svg>
