<svg width="24" height="24" viewBox="0 0 24 24" fill="none" xmlns="http://www.w3.org/2000/svg">
<g id="icon / 24-cont / social / chat-24-active">
<path id="chat-24" fill-rule="evenodd" clip-rule="evenodd" d="M16.1353 4.03522H4.84458C3.82002 4.03522 2.97988 4.853 3.00037 5.8503V12.991C3.00037 13.9883 3.82002 14.9813 4.84458 14.9813H6.00525V17.0352L10.022 14.9813H11.0039V11.4056C11.0039 10.3285 11.235 10.0436 12.362 10.0436H18V5.8503C18 4.853 17.1599 4.03522 16.1353 4.03522ZM20.0064 11H12.9941C12.44 11 11.9815 11.48 12.0006 12.06V16.84C12.0006 17.4 12.44 18.0086 12.9941 18.0086H16.5L19.0046 20V18.0086H20.0064C20.5414 18.0086 21 17.42 21 16.84V12.06C21 11.48 20.5414 11 20.0064 11Z" fill="#DCBC65"/>
</g>
</svg>
