<svg width="24" height="24" viewBox="0 0 24 24" fill="none" xmlns="http://www.w3.org/2000/svg">
<g id="icon / 24-cont / social / contacts-24">
<path id="contacts-24" fill-rule="evenodd" clip-rule="evenodd" d="M21 5V3H11V5H21ZM21 6H16V8H21V6ZM21 9V11H16V9H21ZM13 10.6404C13 12.8493 11.1876 15 9.5 15C7.75693 15 6 12.8495 6 10.6404C6 8.43126 7.56721 7 9.5 7C11.433 7 13 8.43126 13 10.6404ZM15.5487 17.6679C15.1404 16.8857 14.8424 16.4916 14.2874 15.9346C13.8078 15.4533 12.3763 14.7748 11.4523 15.0733C11.1715 15.1327 10.9926 15.2289 10.8135 15.3253C10.5224 15.4818 10.2307 15.6388 9.50006 15.6388C8.76951 15.6388 8.47768 15.4818 8.18663 15.3253C8.00741 15.2289 7.82849 15.1326 7.5476 15.0733C6.62358 14.775 5.19213 15.4533 4.71251 15.9346C4.15752 16.4916 3.85974 16.8857 3.45117 17.6679C3.24627 18.0602 2.81916 19.2041 3.0842 19.696C3.41946 20.3188 4.23557 20.5767 6.4786 20.8413C7.82191 21 9.50006 21 9.50006 21C9.50006 21 11.1776 21 12.5215 20.8413C14.7646 20.5765 15.5805 20.3188 15.9157 19.696C16.181 19.2041 15.7537 18.0602 15.5487 17.6679Z" fill="#7E7E7E"/>
</g>
</svg>
