<svg width="24" height="24" viewBox="0 0 24 24" fill="none" xmlns="http://www.w3.org/2000/svg">
<g id="icon / 24-cont / social / emoji-24">
<path id="emoji-24" fill-rule="evenodd" clip-rule="evenodd" d="M3 12C3 7.02947 7.02945 3 12 3C16.9706 3 21 7.02947 21 12C21 16.9706 16.9706 21 12 21C7.02945 21 3 16.9706 3 12ZM11 9C11 7.89544 10.1046 7 9 7C7.8954 7 7 7.89544 7 9C7 10.1046 7.8954 11 9 11C10.1046 11 11 10.1046 11 9ZM15 7C16.1046 7 17 7.89544 17 9C17 10.1046 16.1046 11 15 11C13.8954 11 13 10.1046 13 9C13 7.89544 13.8954 7 15 7ZM12 18C14.3077 18 16.2708 16.3288 17 14H7C7.72923 16.3288 9.69231 18 12 18Z" fill="#7E7E7E"/>
</g>
</svg>
