<svg width="24" height="24" viewBox="0 0 24 24" fill="none" xmlns="http://www.w3.org/2000/svg">
<g id="icon / 24-cont / social / group-24">
<path id="group-24" fill-rule="evenodd" clip-rule="evenodd" d="M15.5974 8.45996C15.5974 7.21362 15.2001 6.08289 14.4791 5.27589C14.0643 4.81186 13.5582 4.47375 13 4.26927C13.357 4.09536 13.7528 4 14.171 4C15.7334 4 17 5.2931 17 7.28914C17 8.87965 16.0693 10.4331 15.0012 11C15.3734 10.2256 15.5974 9.34571 15.5974 8.45996ZM18.5541 12.8403C19.0227 13.3448 19.2741 13.7018 19.6191 14.4102C19.7922 14.7654 20.1529 15.8013 19.9287 16.2472C19.7516 16.6 19.4157 16.8233 18.7257 17C18.6157 16.5392 18.4497 16.1131 18.3389 15.8858C17.9407 15.0673 17.6249 14.6023 17.0402 13.9728C16.952 13.8779 16.8552 13.7918 16.7543 13.7116C16.6073 13.5948 16.451 13.4905 16.2896 13.3961C16.1129 13.2927 15.9299 13.2013 15.7421 13.1217C15.7198 13.1122 15.6728 13.0968 15.6128 13.077L15.6126 13.077L15.6126 13.077L15.6126 13.077C15.4137 13.0115 15.0722 12.8992 15.014 12.803C14.951 12.6994 15.1138 12.5544 15.2429 12.4715C15.3809 12.3827 15.7606 12.189 16.1605 12.0602C16.9461 11.8075 18.1493 12.4044 18.5541 12.8403ZM14 8.6404C14 10.8493 12.1876 13 10.5 13C8.75693 13 7 10.8495 7 8.6404C7 6.43126 8.56721 5 10.5 5C12.433 5 14 6.43126 14 8.6404ZM15.2874 14.9346C15.8424 15.4916 16.1404 15.8857 16.5487 16.6679C16.7537 17.0602 17.181 18.2041 16.9157 18.696C16.5805 19.3188 15.7646 19.5765 13.5215 19.8413C12.1776 20 10.5001 20 10.5001 20C10.5001 20 8.82191 20 7.4786 19.8413C5.23557 19.5767 4.41946 19.3188 4.0842 18.696C3.81916 18.2041 4.24627 17.0602 4.45117 16.6679C4.85974 15.8857 5.15752 15.4916 5.71251 14.9346C6.19213 14.4533 7.62358 13.775 8.5476 14.0733C8.82849 14.1326 9.00741 14.2289 9.18663 14.3253C9.47768 14.4818 9.76951 14.6388 10.5001 14.6388C11.2307 14.6388 11.5224 14.4818 11.8135 14.3253C11.9926 14.2289 12.1715 14.1327 12.4523 14.0733C13.3763 13.7748 14.8078 14.4533 15.2874 14.9346Z" fill="#7E7E7E"/>
</g>
</svg>
