<svg width="24" height="24" viewBox="0 0 24 24" fill="none" xmlns="http://www.w3.org/2000/svg">
<g id="icon / 24-cont / social / like-24">
<path id="like-24" fill-rule="evenodd" clip-rule="evenodd" d="M8.93749 4.00882C9.00152 4.01223 9.00908 4.01263 9.00223 4.01241C10.1332 4.04621 11.1167 4.4614 11.9845 5.12673C12.8094 4.49648 13.7545 4.09054 14.816 4.01702C14.9694 4.0057 15.1218 4 15.273 4C18.3758 4 20.7521 6.29344 20.9804 9.19196C21.1537 11.4136 20.1696 13.3035 18.3951 15.3524C17.0965 16.8482 15.0056 18.5075 13.1792 19.6617C12.4702 20.1104 11.5859 20.1009 10.8882 19.7035C9.35604 18.8181 7.28748 17.1569 5.82899 15.6042C3.97674 13.6322 2.91676 11.7784 3.00512 9.55128C3.12369 6.53785 5.47295 4 8.69533 4C8.76915 4 8.84941 4.00369 8.92901 4.00836L8.93749 4.00882ZM18.9883 9.36294C18.8459 7.57171 17.4004 6 15.2743 6C15.1739 6 15.0719 6.00378 14.9683 6.01135C13.4877 6.113 12.5125 7.32949 12.1656 7.78798C12.1002 7.87394 11.9024 7.87178 11.8339 7.78798L11.8225 7.77409C11.4475 7.31783 10.4089 6.05416 8.93978 6.01135C8.92124 6.01089 8.88205 6.00877 8.83982 6.00648C8.78282 6.00339 8.7203 6 8.69558 6C6.47228 6 5.07633 7.80041 5.00301 9.64678C4.92864 11.5045 6.24615 13.1535 7.30494 14.2706C8.7133 15.7563 10.6429 17.2507 11.9099 17.9763C11.9636 18.0065 12.0374 18.0092 12.09 17.9763C13.3288 17.2004 15.5192 15.6184 16.8691 14.0775C17.8828 12.9178 19.1344 11.218 18.9883 9.36294Z" fill="#7E7E7E"/>
</g>
</svg>
