<svg width="24" height="24" viewBox="0 0 24 24" fill="none" xmlns="http://www.w3.org/2000/svg">
<g id="icon / 24-cont / social / like-filled-24">
<path id="like-filled-24" d="M16.2098 4C16.0807 4 15.9496 4.00505 15.8164 4.01514C13.9127 4.15064 12.6589 5.77238 12.2129 6.38359C12.1288 6.49819 11.8745 6.49531 11.7864 6.38359C11.3172 5.79184 9.97385 4.0728 8.06543 4.01514C8.00942 4.01369 7.80679 4 7.75146 4C4.89293 4 3.09813 6.40017 3.00387 8.8616C2.90825 11.3382 4.60219 13.5365 5.9635 15.0256C7.77424 17.0063 10.2551 18.9985 11.8842 19.9658C11.9531 20.0062 12.048 20.0098 12.1157 19.9658C13.7085 18.9315 16.5247 16.8225 18.2603 14.7683C19.5635 13.2223 21.1728 10.9562 20.985 8.4832C20.8019 6.09528 18.9433 4 16.2098 4Z" fill="#7E7E7E"/>
</g>
</svg>
