<svg width="24" height="24" viewBox="0 0 24 24" fill="none" xmlns="http://www.w3.org/2000/svg">
<g id="icon / 24-cont / social / new-user-24-active">
<path id="new-user-24" fill-rule="evenodd" clip-rule="evenodd" d="M15 7.55049C15 10.3117 12.9287 13 11 13C9.00792 13 7 10.3119 7 7.55049C7 4.78908 8.7911 3 11 3C13.2091 3 15 4.78908 15 7.55049ZM13 15V19.9461C11.9069 20 11.0001 20 11.0001 20C11.0001 20 8.93465 20 7.28136 19.8149C4.5207 19.5061 3.51625 19.2053 3.10363 18.4787C2.77743 17.9048 3.3031 16.5702 3.55529 16.1125C4.05814 15.2 4.42464 14.7402 5.10771 14.0904C5.69801 13.5288 7.45979 12.7375 8.59705 13.0855C8.94276 13.1547 9.16297 13.267 9.38355 13.3795C9.74176 13.5621 10.1009 13.7452 11.0001 13.7452C11.8993 13.7452 12.2584 13.5621 12.6166 13.3795C12.8371 13.2671 13.0572 13.1548 13.4028 13.0855C13.8711 12.9421 14.4453 12.992 15 13.1395V15H13ZM17 15H19V17H21V19H19V21H17V19H15V17H17V15Z" fill="#DCBC65"/>
</g>
</svg>
