<svg width="24" height="24" viewBox="0 0 24 24" fill="none" xmlns="http://www.w3.org/2000/svg">
<g id="icon / 24-cont / social / open-mail-24-active">
<path id="open-mail-24" fill-rule="evenodd" clip-rule="evenodd" d="M3.36564 8.99343H3.36564C3.42049 8.9912 3.46824 8.98925 3.55134 8.98925H5V7.62102L3 9C3.20454 9 3.29157 8.99645 3.36564 8.99343ZM8.80139 5H15.1928L12.5513 3.18544C12.1859 2.9381 11.7977 2.93827 11.4331 3.18544L8.80139 5ZM19 7.61535V8.98925H20.3915H21L19 7.61535ZM8 6C6.89543 6 6 6.89543 6 8V11.3038L10.9302 15.7682C11.7231 16.461 12.1997 16.4599 12.9927 15.7682L18 11.2777V8C18 6.89543 17.1046 6 16 6H8ZM3 10.1981C3 10.1314 3.00555 10.0642 3.01406 10L10.6008 16.92C11.3937 17.643 12.5921 17.6418 13.3852 16.92L20.9859 10C20.9944 10.0642 21 10.1314 21 10.1981V19.5911C21 20.3716 20.3979 21 19.65 21H4.35C3.60211 21 3 20.3716 3 19.5911V10.1981Z" fill="#DCBC65"/>
</g>
</svg>
