<svg width="24" height="24" viewBox="0 0 24 24" fill="none" xmlns="http://www.w3.org/2000/svg">
<g id="icon / 24-cont / social / repost-24-active">
<path id="repost-24" d="M4.12103 14.6734C5.29644 12.8273 6.91314 11.2865 8.6726 10.335C9.96838 9.63431 11.3516 9.24103 12.8779 9.13913L14.0124 9.01392C14.0124 9.01392 14.0014 6.00708 14.0124 6.00708C14.0478 6.00708 21 11.7762 21 11.7986C21 11.8212 14.1161 18.0027 14.0124 18.0027C13.9886 18.0027 14 15.3975 14 15.0011L12.714 14.5684C11.4301 14.273 10.2946 14.3465 8.63354 14.9029C6.90286 15.4828 5.04336 16.5287 3.25055 17.9314C2.57697 18.4584 3.39628 15.8118 4.12103 14.6734Z" fill="#DCBC65"/>
</g>
</svg>
