<svg width="24" height="24" viewBox="0 0 24 24" fill="none" xmlns="http://www.w3.org/2000/svg">
<g id="icon / 24-cont / social / repost-24">
<path id="repost-24" d="M4.12103 14.6732C5.29644 12.8271 6.91314 11.2862 8.6726 10.3347C9.96838 9.63406 11.3516 9.24079 12.8779 9.13888L14.0124 9.01367C14.0124 9.01367 14.0014 6.00684 14.0124 6.00684C14.0478 6.00684 21 11.776 21 11.7984C21 11.821 14.1161 18.0024 14.0124 18.0024C13.9886 18.0024 14 15.3972 14 15.0009L12.714 14.5682C11.4301 14.2728 10.2946 14.3463 8.63354 14.9027C6.90286 15.4826 5.04336 16.5285 3.25055 17.9312C2.57697 18.4581 3.39628 15.8116 4.12103 14.6732Z" fill="#7E7E7E"/>
</g>
</svg>
