<svg width="24" height="24" viewBox="0 0 24 24" fill="none" xmlns="http://www.w3.org/2000/svg">
<g id="icon / 24-cont / social / star-half-fill-24">
<path id="star-half-fill-24" fill-rule="evenodd" clip-rule="evenodd" d="M20.2012 8.80475L15.0369 8.16468L12.846 3.52971C12.5107 2.82343 11.5046 2.82343 11.1693 3.52971L8.95605 8.16468L3.81414 8.80475C3.03168 8.89303 2.71869 9.84209 3.29995 10.3718L7.07813 13.8811L6.09447 18.9134C5.96033 19.6638 6.76515 20.2597 7.45819 19.8845L11.9965 17.4125L16.5571 19.8845C17.2278 20.2597 18.055 19.6638 17.8985 18.9134L16.9372 13.8811L20.7154 10.3718C21.2743 9.84209 20.9613 8.89303 20.2012 8.80475ZM12.9487 15.6543L12 15.1401V6.42976L12.0019 6.42578L13.2279 9.01944L13.6981 10.0142L17.6355 10.5022L15.5752 12.4158L14.7641 13.1692L15.5034 17.0391L12.9487 15.6543Z" fill="#7E7E7E"/>
</g>
</svg>
