<svg width="24" height="24" viewBox="0 0 24 24" fill="none" xmlns="http://www.w3.org/2000/svg">
<g id="icon / 24-cont / social / spam-24-active">
<path id="spam-24" fill-rule="evenodd" clip-rule="evenodd" d="M4.49008 6C4.31647 6 4.15168 6.03721 4 6.09861L11.4961 12.7833C11.8201 13.0721 12.1653 13.0723 12.4901 12.7833L20 6.09861C19.8483 6.03721 19.6835 6 19.5099 6H4.49008ZM3 7.35001C3 7.28609 3.00555 7.22167 3.01406 7.16016L10.6008 13.7906C11.3036 14.4046 12.3248 14.4736 13.1001 13.9998C13.0344 14.323 13 14.6575 13 15C13 16.1256 13.3719 17.1643 13.9996 18H4C3.25211 18 3 17.7479 3 17V7.35001ZM21 10.9996V7.35001C21 7.28609 20.9944 7.22167 20.9859 7.16016L17.7218 10.0076C17.8139 10.0026 17.9066 10 18 10C19.1256 10 20.1643 10.3719 21 10.9996ZM21 15C21 16.6569 19.6569 18 18 18C16.3431 18 15 16.6569 15 15C15 13.3431 16.3431 12 18 12C19.6569 12 21 13.3431 21 15ZM16 15C16 15.3859 16.1093 15.7463 16.2986 16.0518L19.0518 13.2986C18.7463 13.1093 18.3859 13 18 13C16.8954 13 16 13.8954 16 15ZM18 17C17.5916 17 17.2117 16.8776 16.8952 16.6674L19.6674 13.8952C19.8776 14.2117 20 14.5916 20 15C20 16.1046 19.1046 17 18 17Z" fill="#DCBC65"/>
</g>
</svg>
