<svg width="24" height="24" viewBox="0 0 24 24" fill="none" xmlns="http://www.w3.org/2000/svg">
<g id="icon / 24-cont / social / sticker-24">
<path id="sticker-24" fill-rule="evenodd" clip-rule="evenodd" d="M6.15 3C4.404 3 3 4.404 3 6.15V17.85C3 19.596 4.404 21 6.15 21H15.6L21 15.6V6.15C21 4.404 19.596 3 17.85 3H6.15ZM17.4688 5C18.3144 5 19 5.68556 19 6.53125V14.996H17.4688C15.7712 14.996 15.0135 15.9154 15.0135 17.6129V19H6.53125C5.68556 19 5 18.3144 5 17.4688V6.53125C5 5.68556 5.68556 5 6.53125 5H17.4688ZM13.0411 7.10368C13.1716 7.05376 13.3129 7.02081 13.4562 7.00576C14.1543 6.93238 14.8218 7.34185 15.0803 7.9934C15.1321 8.1418 15.166 8.29208 15.182 8.44424L12.3737 9.53577C12.28 9.41892 12.2032 9.29125 12.1443 9.16169C11.8401 8.33395 12.2242 7.42483 13.0411 7.10368ZM8.4591 9.0056H8.4591C8.30694 9.0216 8.17268 9.03571 8.04312 9.09457C7.23517 9.41478 6.83319 10.3258 7.14445 11.1347C7.18057 11.2557 7.25518 11.3592 7.33631 11.4717L7.33632 11.4718L7.33638 11.4718C7.34936 11.4898 7.36251 11.5081 7.37569 11.5267L10.184 10.4351C10.168 10.283 10.1341 10.1327 10.0832 9.99324C9.82189 9.31485 9.15726 8.93222 8.4591 9.0056ZM8.23636 14.152L15.9504 11.0116C15.8286 12.8714 14.7127 14.4923 13.0655 15.1666C11.4173 15.8317 9.53428 15.4356 8.23636 14.152Z" fill="#7E7E7E"/>
</g>
</svg>
