<svg width="24" height="24" viewBox="0 0 24 24" fill="none" xmlns="http://www.w3.org/2000/svg">
<g id="icon / 24-cont / social / star-24">
<path id="star-24" fill-rule="evenodd" clip-rule="evenodd" d="M20.2012 8.80475L15.0369 8.16468L12.846 3.52971C12.5107 2.82343 11.5046 2.82343 11.1693 3.52971L8.95605 8.16468L3.81414 8.80475C3.03168 8.89303 2.71869 9.84209 3.29995 10.3718L7.07813 13.8811L6.09447 18.9134C5.96033 19.6638 6.76515 20.2597 7.45819 19.8845L11.9965 17.4125L16.5571 19.8845C17.2278 20.2597 18.055 19.6638 17.8985 18.9134L16.9372 13.8811L20.7154 10.3718C21.2743 9.84209 20.9613 8.89303 20.2012 8.80475ZM13.2287 9.01938L13.699 10.0142L17.6363 10.5022L15.5761 12.4157L14.765 13.1691L15.5043 17.0391L12.9495 15.6542L11.9941 15.1364L8.49826 17.0406L9.04099 14.2648L9.25442 13.1729L6.37779 10.501L9.2031 10.1494L10.2892 10.0142L12.0027 6.42572L13.2287 9.01938Z" fill="#7E7E7E"/>
</g>
</svg>
