<svg width="24" height="24" viewBox="0 0 24 24" fill="none" xmlns="http://www.w3.org/2000/svg">
<g id="icon / 24-cont / social / user-24-active">
<path id="user-24" fill-rule="evenodd" clip-rule="evenodd" d="M12 12.0202C13.9287 12.0202 16 9.59522 16 7.10461C16 4.61378 14.2091 3 12 3C9.7911 3 8 4.61378 8 7.10461C8 9.59545 10.0079 12.0202 12 12.0202ZM17.8922 14.0904C18.5753 14.7402 18.942 15.2 19.4446 16.1125C19.6968 16.5702 20.2227 17.9048 19.8963 18.4787C19.4836 19.2053 18.4794 19.5059 15.7188 19.8149C14.0647 20 12.0001 20 12.0001 20C12.0001 20 9.93465 20 8.28136 19.8149C5.5207 19.5061 4.51625 19.2053 4.10363 18.4787C3.77743 17.9048 4.3031 16.5702 4.55529 16.1125C5.05814 15.2 5.42464 14.7402 6.10771 14.0904C6.69801 13.5288 8.45979 12.7375 9.59705 13.0855C9.94276 13.1547 10.163 13.267 10.3836 13.3795C10.7418 13.5621 11.1009 13.7452 12.0001 13.7452C12.8993 13.7452 13.2584 13.5621 13.6166 13.3795C13.8371 13.2671 14.0572 13.1548 14.4028 13.0855C15.5401 12.7373 17.3019 13.5288 17.8922 14.0904Z" fill="#DCBC65"/>
</g>
</svg>
