<svg width="24" height="24" viewBox="0 0 24 24" fill="none" xmlns="http://www.w3.org/2000/svg">
<g id="icon / 24-cont / social / unread-24-active">
<path id="unread-24" fill-rule="evenodd" clip-rule="evenodd" d="M22 7C22 8.10457 21.1046 9 20 9C18.8954 9 18 8.10457 18 7C18 5.89543 18.8954 5 20 5C21.1046 5 22 5.89543 22 7ZM20 11C20.3453 11 20.6804 10.9562 21 10.874V16.35C21 17.0979 20.4001 17.9885 19.6522 17.9885H4.32385C3.57597 17.9885 3 17.0979 3 16.35V7.35C3 7.28608 3.00555 7.22166 3.01406 7.16015L10.6008 13.7906C11.3937 14.4834 12.5921 14.4823 13.3852 13.7906L17.5472 10.1599C18.2245 10.6865 19.0756 11 20 11ZM16 7C16 6.6547 16.0438 6.31962 16.126 6H4.35C4.17316 6 4.00529 6.03715 3.85078 6.09844L11.4867 12.7711C11.8168 13.0595 12.1684 13.0597 12.4992 12.7711L16.6351 9.16362C16.2332 8.53988 16 7.79717 16 7Z" fill="#DCBC65"/>
</g>
</svg>
