<svg width="24" height="24" viewBox="0 0 24 24" fill="none" xmlns="http://www.w3.org/2000/svg">
<path fill-rule="evenodd" clip-rule="evenodd" d="M15.1525 14.7383C16.2996 13.4917 17 11.8276 17 10C17 6.13401 13.866 3 10 3C6.13401 3 3 6.13401 3 10C3 13.866 6.13401 17 10 17C11.3185 17 12.5519 16.6355 13.6048 16.0017C13.6352 16.0435 13.6693 16.0836 13.7071 16.1213L17.9497 20.364C18.3403 20.7545 18.9734 20.7545 19.364 20.364C19.7545 19.9734 19.7545 19.3403 19.364 18.9497L15.1525 14.7383ZM10 15C12.7614 15 15 12.7614 15 10C15 7.23858 12.7614 5 10 5C7.23858 5 5 7.23858 5 10C5 12.7614 7.23858 15 10 15Z" fill="#7E7E7E"/>
<mask id="mask0" mask-type="alpha" maskUnits="userSpaceOnUse" x="3" y="3" width="17" height="18">
<path fill-rule="evenodd" clip-rule="evenodd" d="M15.1525 14.7383C16.2996 13.4917 17 11.8276 17 10C17 6.13401 13.866 3 10 3C6.13401 3 3 6.13401 3 10C3 13.866 6.13401 17 10 17C11.3185 17 12.5519 16.6355 13.6048 16.0017C13.6352 16.0435 13.6693 16.0836 13.7071 16.1213L17.9497 20.364C18.3403 20.7545 18.9734 20.7545 19.364 20.364C19.7545 19.9734 19.7545 19.3403 19.364 18.9497L15.1525 14.7383ZM10 15C12.7614 15 15 12.7614 15 10C15 7.23858 12.7614 5 10 5C7.23858 5 5 7.23858 5 10C5 12.7614 7.23858 15 10 15Z" fill="white"/>
</mask>
<g mask="url(#mask0)">
<rect width="24" height="24" rx="2" fill="#7E7E7E"/>
</g>
</svg>
