<?xml version="1.0" encoding="UTF-8"?>
<svg width="60px" height="60px" viewBox="0 0 60 60" version="1.1" xmlns="http://www.w3.org/2000/svg" xmlns:xlink="http://www.w3.org/1999/xlink">
    <!-- Generator: Sketch 57.1 (83088) - https://sketch.com -->
    <title>Group 27</title>
    <desc>Created with Sketch.</desc>
    <defs>
        <linearGradient x1="1.44424438%" y1="0%" x2="134.166667%" y2="123.703613%" id="linearGradient-1">
            <stop stop-color="#FC6076" offset="0%"></stop>
            <stop stop-color="#FF9A44" offset="100%"></stop>
        </linearGradient>
        <circle id="path-2" cx="30" cy="27" r="5"></circle>
        <filter x="-70.0%" y="-50.0%" width="240.0%" height="240.0%" filterUnits="objectBoundingBox" id="filter-3">
            <feOffset dx="0" dy="2" in="SourceAlpha" result="shadowOffsetOuter1"></feOffset>
            <feGaussianBlur stdDeviation="2" in="shadowOffsetOuter1" result="shadowBlurOuter1"></feGaussianBlur>
            <feColorMatrix values="0 0 0 0 0   0 0 0 0 0   0 0 0 0 0  0 0 0 0.2 0" type="matrix" in="shadowBlurOuter1"></feColorMatrix>
        </filter>
        <linearGradient x1="39.2132303%" y1="41.8945312%" x2="39.2132303%" y2="192.68022%" id="linearGradient-4">
            <stop stop-color="#FF9A44" offset="0%"></stop>
            <stop stop-color="#FC6076" offset="100%"></stop>
        </linearGradient>
        <path d="M35.8827459,32 C34.4809571,33.2604631 32.3645242,34.065109 30.0000665,34.065109 C27.6356089,34.065109 25.5191761,33.2604631 24.1173872,32 C20.6855247,33.3977933 18,35.917034 18,38.9385958 L18,39.7508766 C18,41.5459855 19.9636231,43 22.3636364,43 L37.6363636,43 C40.0472301,43 42,41.5459855 42,39.7508766 L42,38.9385958 C42,35.9171331 39.3146085,33.3977933 35.8827459,32 Z" id="path-5"></path>
        <filter x="-29.2%" y="-45.5%" width="158.3%" height="227.3%" filterUnits="objectBoundingBox" id="filter-6">
            <feOffset dx="0" dy="2" in="SourceAlpha" result="shadowOffsetOuter1"></feOffset>
            <feGaussianBlur stdDeviation="2" in="shadowOffsetOuter1" result="shadowBlurOuter1"></feGaussianBlur>
            <feColorMatrix values="0 0 0 0 0   0 0 0 0 0   0 0 0 0 0  0 0 0 0.2 0" type="matrix" in="shadowBlurOuter1"></feColorMatrix>
        </filter>
        <path d="M34.0049737,9 C35.2798164,9 36.3290696,9.89971875 36.515312,11.1374062 L36.515312,11.1374062 L37.1527333,15.4502813 C37.9245591,15.7967156 38.664313,16.2106665 39.3633787,16.6873125 L39.3633787,16.6873125 L43.5977711,15.0375 C43.8974641,14.9252813 44.1597774,14.8872188 44.4601261,14.8872188 C45.3710249,14.8891322 46.2125275,15.3745085 46.6707715,16.1623125 L46.6707715,16.1623125 L50.6428506,22.8750938 C51.2802719,23.9999063 51.0179586,25.3124063 50.0434647,26.0625 L50.0434647,26.0625 L46.4832175,28.7623125 C46.5205971,29.1376875 46.5586325,29.5498125 46.5586325,30 C46.5586325,30.4501875 46.5205971,30.8623125 46.4832175,31.2376875 L46.4832175,31.2376875 L50.0434647,33.9375 C51.0179586,34.6875938 51.2802719,36.0000938 50.6802303,37.0875 L50.6802303,37.0875 L46.6707715,43.8750937 C46.2582838,44.6625937 45.3965846,45.1127813 44.4975058,45.1127813 C44.1978128,45.1127813 43.8974641,45.0747188 43.5977711,44.9625 L43.5977711,44.9625 L39.3633787,43.3126875 C38.6138184,43.8002812 37.9022936,44.2124063 37.1527333,44.5497187 L37.1527333,44.5497187 L36.515312,48.9 C36.3284138,50.1002813 35.2791606,51 34.0049737,51 L34.0049737,51 L25.9854003,51 C24.7112135,51 23.6245806,50.0615625 23.475062,48.8625938 L23.475062,48.8625938 L22.8376407,44.5497187 C22.0658149,44.2032844 21.3260611,43.7893335 20.6269954,43.3126875 L20.6269954,43.3126875 L16.3926029,44.9625 C16.0922542,45.0747188 15.8299409,45.1127813 15.5302479,45.1127813 C14.6193492,45.1108678 13.7778466,44.6254915 13.3196026,43.8376875 L13.3196026,43.8376875 L9.34752344,37.1249063 C8.71010212,36.0000938 8.97241542,34.6875938 9.94690934,33.9375 L9.94690934,33.9375 L13.5071566,31.2376875 C13.4317415,30.7875 13.4317415,30.3740625 13.4317415,30 C13.4317415,29.6259375 13.4684654,29.2125 13.5071566,28.7623125 L13.5071566,28.7623125 L9.94690934,26.0625 C8.97241542,25.3124063 8.71010212,23.9250938 9.34752344,22.8750938 L9.34752344,22.8750938 L13.3569822,16.1249062 C13.7694699,15.3374062 14.6311691,14.8872187 15.5302479,14.8872187 C15.8367997,14.8820985 16.14171,14.9330272 16.4299826,15.0375 L16.4299826,15.0375 L20.664375,16.6873125 C21.4139353,16.1997188 22.1254601,15.7875938 22.8750204,15.4502813 L22.8750204,15.4502813 L23.475062,11.1 C23.6619603,9.89971875 24.7112135,9 25.9854003,9 L25.9854003,9 Z M30,19 C23.9248678,19 19,23.9248678 19,30 C19,36.0751322 23.9248678,41 30,41 C36.0751322,41 41,36.0751322 41,30 C41,23.9248678 36.0751322,19 30,19 Z" id="path-7"></path>
        <filter x="-16.7%" y="-11.9%" width="133.3%" height="133.3%" filterUnits="objectBoundingBox" id="filter-8">
            <feOffset dx="0" dy="2" in="SourceAlpha" result="shadowOffsetOuter1"></feOffset>
            <feGaussianBlur stdDeviation="2" in="shadowOffsetOuter1" result="shadowBlurOuter1"></feGaussianBlur>
            <feColorMatrix values="0 0 0 0 0   0 0 0 0 0   0 0 0 0 0  0 0 0 0.2 0" type="matrix" in="shadowBlurOuter1"></feColorMatrix>
        </filter>
    </defs>
    <g id="------" stroke="none" stroke-width="1" fill="none" fill-rule="evenodd">
        <g id="Icons-Copy" transform="translate(-1741.000000, -1596.000000)">
            <g id="Group-27" transform="translate(1741.000000, 1596.000000)">
                <path d="M10,0 L50,0 C55.5228475,-1.01453063e-15 60,4.4771525 60,10 L60,50 C60,55.5228475 55.5228475,60 50,60 L10,60 C4.4771525,60 -2.87635993e-15,55.5228475 0,50 L0,10 C-6.76353751e-16,4.4771525 4.4771525,-2.53818305e-15 10,0 Z" id="Rectangle-6-Copy-70" fill="url(#linearGradient-1)"></path>
                <g id="Oval-Copy-31" fill-rule="nonzero">
                    <use fill="black" fill-opacity="1" filter="url(#filter-3)" xlink:href="#path-2"></use>
                    <use fill="#FFFFFF" xlink:href="#path-2"></use>
                </g>
                <g id="Path-Copy-11">
                    <use fill="black" fill-opacity="1" filter="url(#filter-6)" xlink:href="#path-5"></use>
                    <use fill="url(#linearGradient-4)" fill-rule="evenodd" xlink:href="#path-5"></use>
                </g>
                <g id="Combined-Shape" fill-rule="nonzero">
                    <use fill="black" fill-opacity="1" filter="url(#filter-8)" xlink:href="#path-7"></use>
                    <use fill="#FFFFFF" xlink:href="#path-7"></use>
                </g>
            </g>
        </g>
    </g>
</svg>