<?xml version="1.0" encoding="UTF-8"?>
<svg width="16px" height="14px" viewBox="0 0 16 14" version="1.1" xmlns="http://www.w3.org/2000/svg" xmlns:xlink="http://www.w3.org/1999/xlink">
    <!-- Generator: Sketch 57.1 (83088) - https://sketch.com -->
    <title>Mask</title>
    <desc>Created with Sketch.</desc>
    <defs>
        <path d="M17.5,17 L19.5,17 C19.7454599,17 19.9496084,17.1768752 19.9919443,17.4101244 L20,17.5 L20,18.5 C20,18.7454599 19.8231248,18.9496084 19.5898756,18.9919443 L19.5,19 L17.5,19 C17.2545401,19 17.0503916,18.8231248 17.0080557,18.5898756 L17,18.5 L17,17.5 C17,17.2545401 17.1768752,17.0503916 17.4101244,17.0080557 L17.5,17 L19.5,17 Z M14.5,17 C14.7761424,17 15,17.2238576 15,17.5 L15,17.5 L15,18.5 C15,18.7761424 14.7761424,19 14.5,19 L14.5,19 L4.5,19 C4.22385763,19 4,18.7761424 4,18.5 L4,18.5 L4,17.5 C4,17.2238576 4.22385763,17 4.5,17 L4.5,17 Z M19.5,11 C19.7454599,11 19.9496084,11.1768752 19.9919443,11.4101244 L20,11.5 L20,12.5 C20,12.7454599 19.8231248,12.9496084 19.5898756,12.9919443 L19.5,13 L17.5,13 C17.2545401,13 17.0503916,12.8231248 17.0080557,12.5898756 L17,12.5 L17,11.5 C17,11.2545401 17.1768752,11.0503916 17.4101244,11.0080557 L17.5,11 L19.5,11 Z M14.5,11 C14.7454599,11 14.9496084,11.1768752 14.9919443,11.4101244 L15,11.5 L15,12.5 C15,12.7454599 14.8231248,12.9496084 14.5898756,12.9919443 L14.5,13 L4.5,13 C4.25454011,13 4.05039163,12.8231248 4.00805567,12.5898756 L4,12.5 L4,11.5 C4,11.2545401 4.17687516,11.0503916 4.41012437,11.0080557 L4.5,11 L14.5,11 Z M19.5,5 C19.7454599,5 19.9496084,5.17687516 19.9919443,5.41012437 L20,5.5 L20,6.5 C20,6.74545989 19.8231248,6.94960837 19.5898756,6.99194433 L19.5,7 L17.5,7 C17.2545401,7 17.0503916,6.82312484 17.0080557,6.58987563 L17,6.5 L17,5.5 C17,5.25454011 17.1768752,5.05039163 17.4101244,5.00805567 L17.5,5 L19.5,5 Z M14.5,5 C14.7454599,5 14.9496084,5.17687516 14.9919443,5.41012437 L15,5.5 L15,6.5 C15,6.74545989 14.8231248,6.94960837 14.5898756,6.99194433 L14.5,7 L4.5,7 C4.25454011,7 4.05039163,6.82312484 4.00805567,6.58987563 L4,6.5 L4,5.5 C4,5.25454011 4.17687516,5.05039163 4.41012437,5.00805567 L4.5,5 L14.5,5 Z" id="path-1"></path>
    </defs>
    <g id="💎-Symbols" stroke="none" stroke-width="1" fill="none" fill-rule="evenodd">
        <g id="icon-/-24-cont-/-nav-/-sidebar-24" transform="translate(-4.000000, -5.000000)">
            <mask id="mask-2" fill="white">
                <use xlink:href="#path-1"></use>
            </mask>
            <use id="Mask" fill="#7E7E7E" xlink:href="#path-1"></use>
        </g>
    </g>
</svg>