<svg xmlns="http://www.w3.org/2000/svg" xmlns:xlink="http://www.w3.org/1999/xlink" width="60" height="60" viewBox="0 0 60 60">
    <defs>
        <linearGradient id="b" x1="28.242%" x2="92.552%" y1="0%" y2="104.427%">
            <stop offset="0%" stop-color="#5CF7B8"/>
            <stop offset="46.482%" stop-color="#35DA51"/>
            <stop offset="100%" stop-color="#0ABC29"/>
        </linearGradient>
        <path id="a" d="M10 0h40c5.523 0 10 4.477 10 10v40c0 5.523-4.477 10-10 10H10C4.477 60 0 55.523 0 50V10C0 4.477 4.477 0 10 0z"/>
        <path id="d" d="M33.79 35.534c-4.27-1.572-5.634-2.899-5.634-5.738 0-.314.044-.55.12-.747.335-.877 1.289-.975 1.756-3.523.238-1.295 1.39-.021 1.61-2.977 0-1.178-.63-1.472-.63-1.472s.32-1.743.445-3.085C31.613 16.32 30.501 12 24.575 12l-.075.002-.075-.002c-5.926 0-7.038 4.32-6.882 5.992.125 1.342.444 3.085.444 3.085s-.628.294-.628 1.472c.22 2.956 1.372 1.682 1.61 2.977.466 2.548 1.42 2.646 1.756 3.523.075.197.119.433.119.747 0 2.84-1.365 4.166-5.635 5.738C10.926 37.111 9 38.72 9 39.816V47h31v-7.184c0-1.097-1.926-2.705-6.21-4.282z"/>
        <filter id="c" width="145.2%" height="140%" x="-22.6%" y="-14.3%" filterUnits="objectBoundingBox">
            <feOffset dy="2" in="SourceAlpha" result="shadowOffsetOuter1"/>
            <feGaussianBlur in="shadowOffsetOuter1" result="shadowBlurOuter1" stdDeviation="2"/>
            <feColorMatrix in="shadowBlurOuter1" values="0 0 0 0 0 0 0 0 0 0 0 0 0 0 0 0 0 0 0.188592657 0"/>
        </filter>
    </defs>
    <g fill="none" fill-rule="evenodd">
        <use fill="url(#b)" xlink:href="#a"/>
        <g fill-rule="nonzero">
            <use fill="#000" filter="url(#c)" xlink:href="#d"/>
            <use fill="#FFF" xlink:href="#d"/>
        </g>
        <path fill="#FFF" fill-rule="nonzero" stroke="#FFF" d="M48.593 33.81c-3.03-1.123-3.998-2.07-3.998-4.099 0-.224.031-.392.084-.533.238-.627.915-.696 1.247-2.517.169-.925.986-.015 1.142-2.126 0-.842-.446-1.051-.446-1.051s.227-1.246.315-2.204c.11-1.194-.678-4.28-4.884-4.28l-.053.001-.053-.001c-4.206 0-4.995 3.086-4.885 4.28.09.958.316 2.204.316 2.204s-.446.21-.446 1.05c.156 2.112.974 1.202 1.142 2.127.332 1.82 1.009 1.89 1.247 2.517.053.14.084.31.084.533 0 2.029-.968 2.976-3.998 4.099C32.367 34.936 31 36.085 31 36.869V42h22v-5.131c0-.784-1.367-1.933-4.407-3.059z" opacity=".4"/>
    </g>
</svg>
