<?xml version="1.0" encoding="UTF-8"?>
<svg width="60px" height="60px" viewBox="0 0 60 60" version="1.1" xmlns="http://www.w3.org/2000/svg" xmlns:xlink="http://www.w3.org/1999/xlink">
    <!-- Generator: Sketch 63.1 (92452) - https://sketch.com -->
    <title>drive</title>
    <desc>Created with Sketch.</desc>
    <defs>
        <linearGradient x1="1.44424438%" y1="0%" x2="100%" y2="100%" id="linearGradient-1">
            <stop stop-color="#2575FC" offset="0%"></stop>
            <stop stop-color="#6A11CB" offset="100%"></stop>
        </linearGradient>
        <path d="M10,0 L50,0 C55.5228475,-1.01453063e-15 60,4.4771525 60,10 L60,50 C60,55.5228475 55.5228475,60 50,60 L10,60 C4.4771525,60 -2.87982937e-15,55.5228475 -3.46944695e-18,50 L-3.46944695e-18,10 C-6.79823198e-16,4.4771525 4.4771525,-2.53818305e-15 10,0 Z" id="path-2"></path>
        <radialGradient cx="38.9605951%" cy="12.9753306%" fx="38.9605951%" fy="12.9753306%" r="106.061764%" gradientTransform="translate(0.389606,0.129753),scale(0.825000,1.000000),rotate(63.572972),translate(-0.389606,-0.129753)" id="radialGradient-4">
            <stop stop-color="#FFFFFF" stop-opacity="0.5" offset="0%"></stop>
            <stop stop-color="#E6E6E6" stop-opacity="0.5" offset="100%"></stop>
        </radialGradient>
        <path d="M6.65900127,0 L12.8898064,0 C13.9954515,0 14.4729451,0.0462790003 14.9679245,0.159218715 C15.462904,0.27215843 15.9008775,0.451758859 16.3315479,0.718401717 C16.7622184,0.985044574 17.1329121,1.28658293 17.9147212,2.06057395 L18.7519455,2.88942605 C19.5337546,3.66341707 19.9044483,3.96495543 20.3351187,4.23159828 C20.7657892,4.49824114 21.2037627,4.67784157 21.6987422,4.79078128 C22.1937216,4.903721 22.6712152,4.95 23.7768602,4.95 L33.590287,4.95 C35.8190838,4.95 36.6272994,5.17974339 37.4421143,5.61115344 C38.2569291,6.0425635 38.8964005,6.67564022 39.3321682,7.48230688 C39.767936,8.28897355 40,9.08910699 40,11.2956159 L40,26.2313435 C40,28.5849528 39.7524651,29.4384284 39.2876462,30.2988728 C38.8228273,31.1593172 38.1407245,31.834599 37.2715887,32.2947697 C36.402453,32.7549404 35.5403564,33 33.1629732,33 L6.83702679,33 C4.45964363,33 3.59754705,32.7549404 2.72841129,32.2947697 C1.85927554,31.834599 1.17717272,31.1593172 0.712353834,30.2988728 C0.247534948,29.4384284 0,28.5849528 0,26.2313435 L0,6.59241126 C0,4.45029625 0.247534948,3.56157157 0.712353834,2.70112718 C1.17717272,1.84068279 1.85927554,1.16540099 2.72841129,0.705230296 C3.59754705,0.245059599 4.49524873,0 6.65900127,0 Z" id="path-5"></path>
        <filter x="-17.5%" y="-15.2%" width="135.0%" height="142.4%" filterUnits="objectBoundingBox" id="filter-6">
            <feOffset dx="0" dy="2" in="SourceAlpha" result="shadowOffsetOuter1"></feOffset>
            <feGaussianBlur stdDeviation="2" in="shadowOffsetOuter1" result="shadowBlurOuter1"></feGaussianBlur>
            <feColorMatrix values="0 0 0 0 0   0 0 0 0 0   0 0 0 0 0  0 0 0 0.0749562937 0" type="matrix" in="shadowBlurOuter1"></feColorMatrix>
        </filter>
        <path d="M6.65900127,2 L12.8898064,2 C13.9954515,2 14.4729451,2.04908379 14.9679245,2.16886833 C15.462904,2.28865288 15.9008775,2.47913818 16.3315479,2.76194121 C16.7622184,3.04474425 17.1329121,3.36455765 17.9147212,4.18545722 L18.7519455,5.06454278 C19.5337546,5.88544235 19.9044483,6.20525575 20.3351187,6.48805879 C20.7657892,6.77086182 21.2037627,6.96134712 21.6987422,7.08113167 C22.1937216,7.20091621 22.6712152,7.25 23.7768602,7.25 L33.590287,7.25 C35.8190838,7.25 36.6272994,7.49366723 37.4421143,7.95122335 C38.2569291,8.40877947 38.8964005,9.08022447 39.3321682,9.93578003 C39.767936,10.7913356 40,11.639962 40,13.9801986 L40,29.8211219 C40,32.3173742 39.7524651,33.2225756 39.2876462,34.1351681 C38.8228273,35.0477607 38.1407245,35.7639686 37.2715887,36.2520285 C36.402453,36.7400883 35.5403564,37 33.1629732,37 L6.83702679,37 C4.45964363,37 3.59754705,36.7400883 2.72841129,36.2520285 C1.85927554,35.7639686 1.17717272,35.0477607 0.712353834,34.1351681 C0.247534948,33.2225756 0,32.3173742 0,29.8211219 L0,8.99195133 C0,6.72001117 0.247534948,5.7774244 0.712353834,4.86483186 C1.17717272,3.95223932 1.85927554,3.23603136 2.72841129,2.74797153 C3.59754705,2.2599117 4.49524873,2 6.65900127,2 Z" id="path-7"></path>
        <filter x="-17.5%" y="-14.3%" width="135.0%" height="140.0%" filterUnits="objectBoundingBox" id="filter-8">
            <feOffset dx="0" dy="2" in="SourceAlpha" result="shadowOffsetOuter1"></feOffset>
            <feGaussianBlur stdDeviation="2" in="shadowOffsetOuter1" result="shadowBlurOuter1"></feGaussianBlur>
            <feColorMatrix values="0 0 0 0 0   0 0 0 0 0   0 0 0 0 0  0 0 0 0.14 0" type="matrix" in="shadowBlurOuter1"></feColorMatrix>
        </filter>
        <linearGradient x1="1.44424438%" y1="28.7334444%" x2="100%" y2="71.2665556%" id="linearGradient-9">
            <stop stop-color="#2575FC" offset="0%"></stop>
            <stop stop-color="#6A11CB" offset="100%"></stop>
        </linearGradient>
    </defs>
    <g id="App-icons" stroke="none" stroke-width="1" fill="none" fill-rule="evenodd">
        <g id="Categories" transform="translate(-256.000000, -697.000000)" fill="">
            <g id="Cloud-Drive" transform="translate(256.000000, 697.000000)">
                <g id="Group-14" fill="none">
                    <g id="item-2">
                        <mask id="mask-3" fill="white">
                            <use xlink:href="#path-2"></use>
                        </mask>
                        <use id="Rectangle-6-Copy" fill="url(#linearGradient-1)" xlink:href="#path-2"></use>
                    </g>
                    <g id="Group" transform="translate(10.000000, 12.000000)">
                        <g id="Style-Copy" transform="translate(20.000000, 16.500000) rotate(180.000000) translate(-20.000000, -16.500000) ">
                            <use fill="black" fill-opacity="1" filter="url(#filter-6)" xlink:href="#path-5"></use>
                            <use fill="url(#radialGradient-4)" fill-rule="evenodd" xlink:href="#path-5"></use>
                        </g>
                        <g id="Style">
                            <use fill="black" fill-opacity="1" filter="url(#filter-8)" xlink:href="#path-7"></use>
                            <use fill="#FFFFFF" fill-rule="evenodd" xlink:href="#path-7"></use>
                        </g>
                        <path d="M18.3095239,13 C20.6574954,13 22.4429799,14.2976071 23.3493168,15.8962054 C24.4797942,15.4310982 25.7605659,15.5051339 26.7976192,16.1138393 C27.855154,16.7345714 28.621273,17.9114018 28.6886028,19.4871518 C30.6630156,19.9229875 32,21.7909696 32,23.7142911 C32,26.0918982 29.9754525,28 27.0714287,28 L27.0714287,28 L13.9285716,28 C11.2098347,28 9,25.8382107 9,23.1785768 C9,21.0001214 10.4933025,19.1869643 12.5252978,18.5915179 C12.5932296,15.7053036 14.9835594,13 18.3095239,13 Z" id="Shape" fill="url(#linearGradient-9)"></path>
                    </g>
                </g>
            </g>
        </g>
    </g>
</svg>