<?xml version="1.0" encoding="UTF-8"?>
<svg width="26px" height="30px" viewBox="0 0 26 30" version="1.1" xmlns="http://www.w3.org/2000/svg" xmlns:xlink="http://www.w3.org/1999/xlink">
    <!-- Generator: Sketch 58 (84663) - https://sketch.com -->
    <title>Group 29</title>
    <desc>Created with Sketch.</desc>
    <defs>
        <path d="M15.5454545,15 L15.4909091,15.0555556 C14.8363636,15.7222222 14.8363636,16.8333333 15.4909091,17.5 C16.1454545,18.1666667 17.2363636,18.1666667 17.8909091,17.5 L18,17.3888889 C17.0727273,16.7222222 16.2545455,15.8888889 15.5454545,15 Z" id="path-1"></path>
        <filter x="-233.3%" y="-166.7%" width="566.7%" height="566.7%" filterUnits="objectBoundingBox" id="filter-2">
            <feOffset dx="0" dy="2" in="SourceAlpha" result="shadowOffsetOuter1"></feOffset>
            <feGaussianBlur stdDeviation="2" in="shadowOffsetOuter1" result="shadowBlurOuter1"></feGaussianBlur>
            <feColorMatrix values="0 0 0 0 0   0 0 0 0 0   0 0 0 0 0  0 0 0 0.2 0" type="matrix" in="shadowBlurOuter1"></feColorMatrix>
        </filter>
        <path d="M0.545454545,15 L0.490909091,15.0555556 C-0.163636364,15.7222222 -0.163636364,16.8333333 0.490909091,17.5 C1.14545455,18.1666667 2.23636364,18.1666667 2.89090909,17.5 L3,17.3888889 C2.07272727,16.7222222 1.25454545,15.8888889 0.545454545,15 Z" id="path-3"></path>
        <filter x="-233.3%" y="-166.7%" width="566.7%" height="566.7%" filterUnits="objectBoundingBox" id="filter-4">
            <feOffset dx="0" dy="2" in="SourceAlpha" result="shadowOffsetOuter1"></feOffset>
            <feGaussianBlur stdDeviation="2" in="shadowOffsetOuter1" result="shadowBlurOuter1"></feGaussianBlur>
            <feColorMatrix values="0 0 0 0 0   0 0 0 0 0   0 0 0 0 0  0 0 0 0.2 0" type="matrix" in="shadowBlurOuter1"></feColorMatrix>
        </filter>
        <path d="M15.5454545,0 L15.4909091,0.0555555556 C14.8363636,0.722222222 14.8363636,1.83333333 15.4909091,2.5 C16.1454545,3.16666667 17.2363636,3.16666667 17.8909091,2.5 L18,2.38888889 C17.0727273,1.72222222 16.2545455,0.888888889 15.5454545,0 Z" id="path-5"></path>
        <filter x="-233.3%" y="-166.7%" width="566.7%" height="566.7%" filterUnits="objectBoundingBox" id="filter-6">
            <feOffset dx="0" dy="2" in="SourceAlpha" result="shadowOffsetOuter1"></feOffset>
            <feGaussianBlur stdDeviation="2" in="shadowOffsetOuter1" result="shadowBlurOuter1"></feGaussianBlur>
            <feColorMatrix values="0 0 0 0 0   0 0 0 0 0   0 0 0 0 0  0 0 0 0.2 0" type="matrix" in="shadowBlurOuter1"></feColorMatrix>
        </filter>
        <path d="M0.545454545,0 L0.490909091,0.0555555556 C-0.163636364,0.722222222 -0.163636364,1.83333333 0.490909091,2.5 C1.14545455,3.16666667 2.23636364,3.16666667 2.89090909,2.5 L3,2.38888889 C2.07272727,1.72222222 1.25454545,0.888888889 0.545454545,0 Z" id="path-7"></path>
        <filter x="-233.3%" y="-166.7%" width="566.7%" height="566.7%" filterUnits="objectBoundingBox" id="filter-8">
            <feOffset dx="0" dy="2" in="SourceAlpha" result="shadowOffsetOuter1"></feOffset>
            <feGaussianBlur stdDeviation="2" in="shadowOffsetOuter1" result="shadowBlurOuter1"></feGaussianBlur>
            <feColorMatrix values="0 0 0 0 0   0 0 0 0 0   0 0 0 0 0  0 0 0 0.2 0" type="matrix" in="shadowBlurOuter1"></feColorMatrix>
        </filter>
    </defs>
    <g id="------" stroke="none" stroke-width="1" fill="none" fill-rule="evenodd">
        <g id="Icons-Copy" transform="translate(-1277.000000, -1497.000000)">
            <g id="Group-29" transform="translate(1281.000000, 1503.000000)">
                <path d="M11.8399091,12.9968182 C11.0372727,13.5687273 10.0587273,13.9090909 9,13.9090909 C7.94127273,13.9090909 6.96272727,13.5687273 6.16009091,12.9968182 L3.24245455,15.9144545 C4.80272727,17.2153636 6.80890909,18 9,18 C11.1910909,18 13.1964545,17.2161818 14.7575455,15.9144545 L11.8399091,12.9968182 Z" id="Path" fill="#DCBC65" fill-rule="nonzero"></path>
                <path d="M2.08554545,14.7575455 L2.08718182,14.7559091 C2.08554545,14.7542727 2.08390909,14.7526364 2.08227273,14.751 L4.99990909,11.8333636 C4.42963636,11.0315455 4.09090909,10.0562727 4.09090909,9 C4.09090909,7.94127273 4.43127273,6.96272727 5.00318182,6.16009091 L4.03036364,5.18645455 L2.08554545,3.24245455 C0.784636364,4.80272727 5.90638649e-14,6.80890909 5.90638649e-14,9 C5.90638649e-14,11.1902727 0.784636364,13.1964545 2.08554545,14.7575455 Z" id="Path" fill="#DCBC65" fill-rule="nonzero"></path>
                <path d="M15.9144545,3.24245455 C17.2153636,4.80354545 18,6.80972727 18,9 C18,11.1910909 17.2153636,13.1972727 15.9152727,14.7583636 L15.9152727,14.7583636 L15.9087273,14.7518182 L13.0661823,11.9103242 C13.6539707,11.090549 14,10.0856843 14,9 C14,7.91431575 13.6539707,6.90945097 13.0661823,6.08967583 Z" id="Combined-Shape" fill="#DCBC65" fill-rule="nonzero"></path>
                <path d="M9,4.09090909 C10.0562727,4.09090909 11.0323636,4.43045455 11.8333636,4.99990909 L14.751,2.08145455 C14.7526364,2.08309091 14.7542727,2.08472727 14.7567273,2.08636364 L14.7575455,2.08554545 C13.1972727,0.784636364 11.1910909,-6.43929354e-14 9,-6.43929354e-14 C6.80890909,-6.43929354e-14 4.80354545,0.783818182 3.24245455,2.08472727 L6.16009091,5.00236364 C6.96272727,4.43127273 7.94127273,4.09090909 9,4.09090909 Z" id="Path" fill="#DCBC65" fill-rule="nonzero"></path>
                <g id="Path" transform="translate(16.500000, 16.500000) scale(-1, 1) translate(-16.500000, -16.500000) ">
                    <use fill="black" fill-opacity="1" filter="url(#filter-2)" xlink:href="#path-1"></use>
                    <use fill="#DCBC65" fill-rule="evenodd" xlink:href="#path-1"></use>
                </g>
                <g id="Path">
                    <use fill="black" fill-opacity="1" filter="url(#filter-4)" xlink:href="#path-3"></use>
                    <use fill="#DCBC65" fill-rule="evenodd" xlink:href="#path-3"></use>
                </g>
                <g id="Path" transform="translate(16.500000, 1.500000) scale(-1, -1) translate(-16.500000, -1.500000) ">
                    <use fill="black" fill-opacity="1" filter="url(#filter-6)" xlink:href="#path-5"></use>
                    <use fill="#DCBC65" fill-rule="evenodd" xlink:href="#path-5"></use>
                </g>
                <g id="Path" transform="translate(1.500000, 1.500000) scale(1, -1) translate(-1.500000, -1.500000) ">
                    <use fill="black" fill-opacity="1" filter="url(#filter-8)" xlink:href="#path-7"></use>
                    <use fill="#DCBC65" fill-rule="evenodd" xlink:href="#path-7"></use>
                </g>
            </g>
        </g>
    </g>
</svg>