<svg xmlns="http://www.w3.org/2000/svg" xmlns:xlink="http://www.w3.org/1999/xlink" width="61" height="60" viewBox="0 0 61 60">
    <defs>
        <linearGradient id="b" x1="12.162%" x2="86.263%" y1="-5.692%" y2="117.589%">
            <stop offset="0%" stop-color="#3BE2BC"/>
            <stop offset="100%" stop-color="#1B96F1"/>
        </linearGradient>
        <path id="a" d="M10 0h40c5.523 0 10 4.477 10 10v40c0 5.523-4.477 10-10 10H10C4.477 60 0 55.523 0 50V10C0 4.477 4.477 0 10 0z"/>
        <linearGradient id="e" x1="12.162%" x2="86.263%" y1="21.586%" y2="84.484%">
            <stop offset="0%" stop-color="#3BE2BC"/>
            <stop offset="100%" stop-color="#1B96F1"/>
        </linearGradient>
        <path id="d" d="M55.382 27H35.618a.621.621 0 0 0-.618.625v13.75c0 .345.277.625.618.625h19.764c.341 0 .618-.28.618-.625v-13.75a.621.621 0 0 0-.618-.625zM47.4 32h-4.8c-.331 0-.6-.224-.6-.5s.269-.5.6-.5h4.8c.331 0 .6.224.6.5s-.269.5-.6.5z"/>
        <filter id="c" width="166.7%" height="193.3%" x="-33.3%" y="-33.3%" filterUnits="objectBoundingBox">
            <feOffset dy="2" in="SourceAlpha" result="shadowOffsetOuter1"/>
            <feGaussianBlur in="shadowOffsetOuter1" result="shadowBlurOuter1" stdDeviation="2"/>
            <feColorMatrix in="shadowBlurOuter1" values="0 0 0 0 0 0 0 0 0 0 0 0 0 0 0 0 0 0 0.5 0"/>
        </filter>
        <linearGradient id="h" x1="12.162%" x2="86.263%" y1="48.316%" y2="52.044%">
            <stop offset="0%" stop-color="#3BE2BC"/>
            <stop offset="100%" stop-color="#1B96F1"/>
        </linearGradient>
        <rect id="g" width="23" height="4" x="34" y="24" rx="1"/>
        <filter id="f" width="160.9%" height="450%" x="-30.4%" y="-125%" filterUnits="objectBoundingBox">
            <feOffset dy="2" in="SourceAlpha" result="shadowOffsetOuter1"/>
            <feGaussianBlur in="shadowOffsetOuter1" result="shadowBlurOuter1" stdDeviation="2"/>
            <feColorMatrix in="shadowBlurOuter1" values="0 0 0 0 0 0 0 0 0 0 0 0 0 0 0 0 0 0 0.5 0"/>
        </filter>
        <path id="j" d="M39 19H7c-.552 0-1 .466-1 1.042v22.916C6 43.534 6.448 44 7 44h32c.552 0 1-.466 1-1.042V20.042c0-.576-.448-1.042-1-1.042zm-12 8h-8a1 1 0 0 1 0-2h8a1 1 0 0 1 0 2z"/>
        <filter id="i" width="141.2%" height="156%" x="-20.6%" y="-20%" filterUnits="objectBoundingBox">
            <feOffset dy="2" in="SourceAlpha" result="shadowOffsetOuter1"/>
            <feGaussianBlur in="shadowOffsetOuter1" result="shadowBlurOuter1" stdDeviation="2"/>
            <feColorMatrix in="shadowBlurOuter1" values="0 0 0 0 0 0 0 0 0 0 0 0 0 0 0 0 0 0 0.5 0"/>
        </filter>
        <rect id="l" width="38" height="6" x="4" y="14" rx="1"/>
        <filter id="k" width="126.3%" height="266.7%" x="-13.2%" y="-66.7%" filterUnits="objectBoundingBox">
            <feOffset dy="1" in="SourceAlpha" result="shadowOffsetOuter1"/>
            <feGaussianBlur in="shadowOffsetOuter1" result="shadowBlurOuter1" stdDeviation="1.5"/>
            <feColorMatrix in="shadowBlurOuter1" values="0 0 0 0 0 0 0 0 0 0 0 0 0 0 0 0 0 0 0.148929196 0"/>
        </filter>
    </defs>
    <g fill="none" fill-rule="evenodd">
        <path d="M25 44h12v12.764l-5.106-2.553a2 2 0 0 0-1.788 0L25 56.764V44z"/>
        <use fill="url(#b)" xlink:href="#a"/>
        <use fill="#000" filter="url(#c)" xlink:href="#d"/>
        <use fill="url(#e)" xlink:href="#d"/>
        <use fill="#000" filter="url(#f)" xlink:href="#g"/>
        <use fill="url(#h)" xlink:href="#g"/>
        <g fill-rule="nonzero">
            <use fill="#000" filter="url(#i)" xlink:href="#j"/>
            <use fill="#FFF" xlink:href="#j"/>
        </g>
        <g>
            <use fill="#000" filter="url(#k)" xlink:href="#l"/>
            <use fill="#FFF" xlink:href="#l"/>
        </g>
    </g>
</svg>
