<?xml version="1.0" encoding="UTF-8"?>
<svg width="60px" height="60px" viewBox="0 0 60 60" version="1.1" xmlns="http://www.w3.org/2000/svg" xmlns:xlink="http://www.w3.org/1999/xlink">
    <!-- Generator: Sketch 61.2 (89653) - https://sketch.com -->
    <title>Group 12</title>
    <desc>Created with Sketch.</desc>
    <defs>
        <linearGradient x1="1.44424438%" y1="0%" x2="100%" y2="100%" id="linearGradient-1">
            <stop stop-color="#6A11CB" offset="0%"></stop>
            <stop stop-color="#2575FC" offset="100%"></stop>
        </linearGradient>
        <linearGradient x1="1.44424438%" y1="0%" x2="100%" y2="100%" id="linearGradient-2">
            <stop stop-color="#2575FC" offset="0%"></stop>
            <stop stop-color="#6A11CB" offset="100%"></stop>
        </linearGradient>
    </defs>
    <g id="1" stroke="none" stroke-width="1" fill="none" fill-rule="evenodd">
        <g id="Categories" transform="translate(-772.000000, -681.000000)">
            <g id="Group-12" transform="translate(772.000000, 681.000000)">
                <path d="M10,0 L50,0 C55.5228475,-1.01453063e-15 60,4.4771525 60,10 L60,50 C60,55.5228475 55.5228475,60 50,60 L10,60 C4.4771525,60 -2.87635993e-15,55.5228475 0,50 L0,10 C-6.76353751e-16,4.4771525 4.4771525,-2.53818305e-15 10,0 Z" id="Rectangle-6-Copy-4" fill="url(#linearGradient-2)"></path>
                <g id="Group-5" transform="translate(28.000000, 31.500000) rotate(45.000000) translate(-28.000000, -31.500000) translate(20.000000, 5.000000)" fill="#FFFFFF">
                    <polygon id="Path-3" opacity="0.699999988" points="0.020577567 14 16 14 16 44.0076381 8 52.0083705 0.020577567 44.0076381"></polygon>
                    <path d="M15.9794224,14 L15.9794224,44.0076381 L8,51.988 L8,14 L15.9794224,14 Z" id="Combined-Shape"></path>
                    <path d="M14,0 C15.1045695,-2.02906125e-16 16,0.8954305 16,2 L16,9 L0,9 L0,2 C-1.3527075e-16,0.8954305 0.8954305,2.02906125e-16 2,0 L14,0 Z" id="Combined-Shape" opacity="0.699999988"></path>
                    <path d="M14,0 C15.1045695,-2.02906125e-16 16,0.8954305 16,2 L16,9 L8,9 L8,0 L14,0 Z" id="Combined-Shape-Copy"></path>
                </g>
            </g>
        </g>
    </g>
</svg>