<svg xmlns="http://www.w3.org/2000/svg" xmlns:xlink="http://www.w3.org/1999/xlink" width="60" height="60" viewBox="0 0 60 60">
    <defs>
        <linearGradient id="b" x1="10.114%" x2="91.758%" y1="0%" y2="104.359%">
            <stop offset="0%" stop-color="#E64C4C"/>
            <stop offset="100%" stop-color="#FFA237"/>
        </linearGradient>
        <path id="a" d="M10 0h40c5.523 0 10 4.477 10 10v40c0 5.523-4.477 10-10 10H10C4.477 60 0 55.523 0 50V10C0 4.477 4.477 0 10 0z"/>
        <linearGradient id="c" x1="22.703%" x2="50%" y1="-18.988%" y2="100%">
            <stop offset="0%" stop-color="#F37A41"/>
            <stop offset="100%" stop-color="#FFF"/>
        </linearGradient>
        <path id="d" d="M11.5 14a3.5 3.5 0 0 1 3.5 3.5v14a3.5 3.5 0 0 1-7 0v-14a3.5 3.5 0 0 1 3.5-3.5z"/>
        <filter id="e" width="157.1%" height="119%" x="-28.6%" y="-9.5%" filterUnits="objectBoundingBox">
            <feGaussianBlur in="SourceAlpha" result="shadowBlurInner1" stdDeviation="1.5"/>
            <feOffset dy="1" in="shadowBlurInner1" result="shadowOffsetInner1"/>
            <feComposite in="shadowOffsetInner1" in2="SourceAlpha" k2="-1" k3="1" operator="arithmetic" result="shadowInnerInner1"/>
            <feColorMatrix in="shadowInnerInner1" values="0 0 0 0 0.940698596 0 0 0 0 0.548869654 0 0 0 0 0.00659636211 0 0 0 0.5 0"/>
        </filter>
        <linearGradient id="f" x1="33.487%" x2="50%" y1="-18.988%" y2="100%">
            <stop offset="0%" stop-color="#F37A41"/>
            <stop offset="100%" stop-color="#FFF"/>
        </linearGradient>
        <path id="g" d="M23.5 22a3.5 3.5 0 0 1 3.5 3.5v20a3.5 3.5 0 0 1-7 0v-20a3.5 3.5 0 0 1 3.5-3.5z"/>
        <filter id="h" width="157.1%" height="114.8%" x="-28.6%" y="-7.4%" filterUnits="objectBoundingBox">
            <feGaussianBlur in="SourceAlpha" result="shadowBlurInner1" stdDeviation="1.5"/>
            <feOffset dy="1" in="shadowBlurInner1" result="shadowOffsetInner1"/>
            <feComposite in="shadowOffsetInner1" in2="SourceAlpha" k2="-1" k3="1" operator="arithmetic" result="shadowInnerInner1"/>
            <feColorMatrix in="shadowInnerInner1" values="0 0 0 0 0.940698596 0 0 0 0 0.548869654 0 0 0 0 0.00659636211 0 0 0 0.5 0"/>
        </filter>
        <linearGradient id="i" x1="37.473%" x2="50%" y1="-18.988%" y2="100%">
            <stop offset="0%" stop-color="#F37A41"/>
            <stop offset="100%" stop-color="#FFF"/>
        </linearGradient>
        <path id="j" d="M36.5 11a3.5 3.5 0 0 1 3.5 3.5v24a3.5 3.5 0 0 1-7 0v-24a3.5 3.5 0 0 1 3.5-3.5z"/>
        <filter id="k" width="157.1%" height="112.9%" x="-28.6%" y="-6.5%" filterUnits="objectBoundingBox">
            <feGaussianBlur in="SourceAlpha" result="shadowBlurInner1" stdDeviation="1.5"/>
            <feOffset dy="1" in="shadowBlurInner1" result="shadowOffsetInner1"/>
            <feComposite in="shadowOffsetInner1" in2="SourceAlpha" k2="-1" k3="1" operator="arithmetic" result="shadowInnerInner1"/>
            <feColorMatrix in="shadowInnerInner1" values="0 0 0 0 0.940698596 0 0 0 0 0.548869654 0 0 0 0 0.00659636211 0 0 0 0.5 0"/>
        </filter>
        <linearGradient id="l" x1="34.645%" x2="50%" y1="-18.988%" y2="100%">
            <stop offset="0%" stop-color="#F37A41"/>
            <stop offset="100%" stop-color="#FFF"/>
        </linearGradient>
        <path id="m" d="M48.5 19a3.5 3.5 0 0 1 3.5 3.5v21a3.5 3.5 0 0 1-7 0v-21a3.5 3.5 0 0 1 3.5-3.5z"/>
        <filter id="n" width="157.1%" height="114.3%" x="-28.6%" y="-7.1%" filterUnits="objectBoundingBox">
            <feGaussianBlur in="SourceAlpha" result="shadowBlurInner1" stdDeviation="1.5"/>
            <feOffset dy="1" in="shadowBlurInner1" result="shadowOffsetInner1"/>
            <feComposite in="shadowOffsetInner1" in2="SourceAlpha" k2="-1" k3="1" operator="arithmetic" result="shadowInnerInner1"/>
            <feColorMatrix in="shadowInnerInner1" values="0 0 0 0 0.940698596 0 0 0 0 0.548869654 0 0 0 0 0.00659636211 0 0 0 0.5 0"/>
        </filter>
    </defs>
    <g fill="none" fill-rule="evenodd">
        <use fill="url(#b)" xlink:href="#a"/>
        <use fill="url(#c)" xlink:href="#d"/>
        <use fill="#000" filter="url(#e)" xlink:href="#d"/>
        <use fill="url(#f)" xlink:href="#g"/>
        <use fill="#000" filter="url(#h)" xlink:href="#g"/>
        <g>
            <use fill="url(#i)" xlink:href="#j"/>
            <use fill="#000" filter="url(#k)" xlink:href="#j"/>
        </g>
        <g>
            <use fill="url(#l)" xlink:href="#m"/>
            <use fill="#000" filter="url(#n)" xlink:href="#m"/>
        </g>
    </g>
</svg>
