<svg width="24" height="24" viewBox="0 0 24 24" fill="none" xmlns="http://www.w3.org/2000/svg">
<g id="icon / 24-cont / nav / open-in-new-tab-24-active">
<path id="open-in-new-tab-24" fill-rule="evenodd" clip-rule="evenodd" d="M11.7071 13.7073L19 6.41436V9C19 9.55228 19.4477 10 20 10C20.5523 10 21 9.55228 21 9V4.00084V4L21 3.99708C20.9995 3.82558 20.9558 3.66423 20.8793 3.52334C20.8604 3.48855 20.8395 3.45501 20.8168 3.42288C20.6356 3.16702 20.3373 3 20 3H15C14.4477 3 14 3.44772 14 4C14 4.55228 14.4477 5 15 5H17.5859L10.2929 12.293C9.90237 12.6836 9.90237 13.3167 10.2929 13.7073C10.6834 14.0978 11.3166 14.0978 11.7071 13.7073ZM19 12C18.4477 12 18 12.4477 18 13V18.125C18 18.6083 17.6082 19 17.125 19H5.875C5.39175 19 5 18.6083 5 18.125L5 6.87499C5 6.39175 5.39175 6 5.875 6H11C11.5523 6 12 5.55228 12 5C12 4.44772 11.5523 4 11 4H5.875C4.28718 4 3 5.28718 3 6.87499L3 18.125C3 19.7128 4.28718 21 5.875 21H17.125C18.7128 21 20 19.7128 20 18.125V13C20 12.4477 19.5523 12 19 12Z" fill="#DCBC65"/>
</g>
</svg>
