<?xml version="1.0" encoding="UTF-8"?>
<svg width="60px" height="60px" viewBox="0 0 60 60" version="1.1" xmlns="http://www.w3.org/2000/svg" xmlns:xlink="http://www.w3.org/1999/xlink">
    <!-- Generator: Sketch 63.1 (92452) - https://sketch.com -->
    <title>Orchestrator@2x</title>
    <desc>Created with Sketch.</desc>
    <defs>
        <linearGradient x1="1.44424438%" y1="0%" x2="100%" y2="100%" id="linearGradient-1">
            <stop stop-color="#2575FC" offset="0%"></stop>
            <stop stop-color="#6A11CB" offset="100%"></stop>
        </linearGradient>
        <path d="M10,0 L50,0 C55.5228475,-1.01453063e-15 60,4.4771525 60,10 L60,50 C60,55.5228475 55.5228475,60 50,60 L10,60 C4.4771525,60 -2.87635993e-15,55.5228475 0,50 L0,10 C-6.76353751e-16,4.4771525 4.4771525,-2.53818305e-15 10,0 Z" id="path-2"></path>
        <path d="M19,23.1926829 C21.5785714,23.1926829 23.7047619,21.0719512 23.7047619,18.5 C23.7047619,17.4621951 23.3428571,16.4243902 22.7095238,15.6121951 L29.902381,8.43780488 C30.7619048,9.20487805 31.8928571,9.65609756 33.0238095,9.65609756 C35.602381,9.65609756 37.7285714,7.53536585 37.7285714,4.96341463 C37.7285714,2.39146341 35.602381,0.270731707 33.0238095,0.270731707 C30.4452381,0.270731707 28.3190476,2.39146341 28.3190476,4.96341463 C28.3190476,5.55 28.4095238,6.04634146 28.6357143,6.63292683 L20.9904762,14.2585366 C20.3571429,13.9426829 19.6785714,13.8073171 19,13.8073171 C16.4214286,13.8073171 14.2952381,15.9280488 14.2952381,18.5 C14.2952381,21.0719512 16.4214286,23.1926829 19,23.1926829 Z" id="path-4"></path>
        <filter x="-29.9%" y="-21.8%" width="159.7%" height="161.1%" filterUnits="objectBoundingBox" id="filter-5">
            <feOffset dx="0" dy="2" in="SourceAlpha" result="shadowOffsetOuter1"></feOffset>
            <feGaussianBlur stdDeviation="2" in="shadowOffsetOuter1" result="shadowBlurOuter1"></feGaussianBlur>
            <feColorMatrix values="0 0 0 0 0   0 0 0 0 0   0 0 0 0 0  0 0 0 0.2 0" type="matrix" in="shadowBlurOuter1"></feColorMatrix>
        </filter>
        <path d="M33.0238095,27.3439024 C30.852381,27.3439024 28.952381,28.8329268 28.4547619,30.9536585 L23.5690476,30.9536585 C23.0714286,28.8329268 21.1714286,27.3439024 19,27.3439024 C17.6428571,27.3439024 16.3761905,27.9304878 15.5166667,28.9231707 L8.27857143,21.7939024 C9.13809524,20.8914634 9.63571429,19.7182927 9.63571429,18.5 C9.63571429,16.3341463 8.14285714,14.4390244 6.01666667,13.9426829 L6.01666667,9.52073171 C8.14285714,9.02439024 9.63571429,7.12926829 9.63571429,4.96341463 C9.63571429,2.39146341 7.50952381,0.270731707 4.93095238,0.270731707 C2.35238095,0.270731707 0.271428571,2.39146341 0.271428571,4.96341463 C0.271428571,7.12926829 1.76428571,9.02439024 3.89047619,9.52073171 L3.89047619,13.9426829 C1.76428571,14.4390244 0.271428571,16.3341463 0.271428571,18.5 C0.271428571,21.0719512 2.39761905,23.1926829 4.97619048,23.1926829 C5.47380952,23.1926829 5.97142857,23.102439 6.42380952,22.9670732 L14.4309524,30.9536585 C14.3404762,31.3597561 14.2952381,31.6756098 14.2952381,32.0817073 C14.2952381,34.6536585 16.4214286,36.7743902 19,36.7743902 C21.1714286,36.7743902 23.0714286,35.2853659 23.5690476,33.1646341 L28.4547619,33.1646341 C28.952381,35.2853659 30.852381,36.7743902 33.0238095,36.7743902 C35.602381,36.7743902 37.7285714,34.6536585 37.7285714,32.0817073 C37.7285714,29.5097561 35.602381,27.3439024 33.0238095,27.3439024 Z" id="path-6"></path>
        <filter x="-18.7%" y="-13.7%" width="137.4%" height="138.4%" filterUnits="objectBoundingBox" id="filter-7">
            <feOffset dx="0" dy="2" in="SourceAlpha" result="shadowOffsetOuter1"></feOffset>
            <feGaussianBlur stdDeviation="2" in="shadowOffsetOuter1" result="shadowBlurOuter1"></feGaussianBlur>
            <feColorMatrix values="0 0 0 0 0   0 0 0 0 0   0 0 0 0 0  0 0 0 0.2 0" type="matrix" in="shadowBlurOuter1"></feColorMatrix>
        </filter>
    </defs>
    <g id="App-icons" stroke="none" stroke-width="1" fill="none" fill-rule="evenodd">
        <g id="Categories" transform="translate(-255.000000, -799.000000)" fill="">
            <g id="Сreators-Studio-1" transform="translate(255.000000, 799.000000)">
                <g id="Group-30" fill="none">
                    <mask id="mask-3" fill="white">
                        <use xlink:href="#path-2"></use>
                    </mask>
                    <use id="Rectangle-6-Copy-22" fill="url(#linearGradient-1)" xlink:href="#path-2"></use>
                    <g id="noun_Technology_909469" mask="url(#mask-3)">
                        <g transform="translate(11.000000, 12.000000)" id="Group">
                            <g>
                                <g id="Path" opacity="0.699999988" fill-rule="nonzero">
                                    <use fill="black" fill-opacity="1" filter="url(#filter-5)" xlink:href="#path-4"></use>
                                    <use fill="#FFFFFF" xlink:href="#path-4"></use>
                                </g>
                                <path d="M19,9.65609756 C21.5785714,9.65609756 23.7047619,7.53536585 23.7047619,4.96341463 C23.7047619,2.39146341 21.5785714,0.270731707 19,0.270731707 C16.4214286,0.270731707 14.2952381,2.39146341 14.2952381,4.96341463 C14.2952381,7.53536585 16.4214286,9.65609756 19,9.65609756 Z" id="Path" fill="#FFFFFF" fill-rule="nonzero" opacity="0.5"></path>
                                <path d="M33.0238095,13.8073171 C30.4452381,13.8073171 28.3190476,15.9280488 28.3190476,18.5 C28.3190476,21.0719512 30.4452381,23.1926829 33.0238095,23.1926829 C35.602381,23.1926829 37.7285714,21.0719512 37.7285714,18.5 C37.7285714,15.9280488 35.602381,13.8073171 33.0238095,13.8073171 Z" id="Path" fill="#FFFFFF" fill-rule="nonzero" opacity="0.400000006"></path>
                                <path d="M4.97619048,27.3439024 C2.39761905,27.3439024 0.271428571,29.4646341 0.271428571,32.0365854 C0.271428571,34.6085366 2.39761905,36.7292683 4.97619048,36.7292683 C7.5547619,36.7292683 9.68095238,34.6085366 9.68095238,32.0365854 C9.68095238,29.4646341 7.5547619,27.3439024 4.97619048,27.3439024 Z" id="Path" fill="#FFFFFF" fill-rule="nonzero" opacity="0.400000006"></path>
                                <g id="Path" fill-rule="nonzero">
                                    <use fill="black" fill-opacity="1" filter="url(#filter-7)" xlink:href="#path-6"></use>
                                    <use fill="#FFFFFF" xlink:href="#path-6"></use>
                                </g>
                            </g>
                        </g>
                    </g>
                </g>
            </g>
        </g>
    </g>
</svg>