<?xml version="1.0" encoding="UTF-8"?>
<svg width="78px" height="80px" viewBox="0 0 78 80" version="1.1" xmlns="http://www.w3.org/2000/svg" xmlns:xlink="http://www.w3.org/1999/xlink">
    <!-- Generator: Sketch 52.6 (67491) - http://www.bohemiancoding.com/sketch -->
    <title>Shape</title>
    <desc>Created with Sketch.</desc>
    <g id="Symbols" stroke="none" stroke-width="1" fill="none" fill-rule="evenodd">
        <g id="settings" fill="#d7c68a" fill-rule="nonzero">
            <path d="M6,1 L6,47.09375 C2.066799,47.592271 -1,50.935165 -1,55 C-1,59.064928 2.066799,62.438992 6,62.9375 L6,79 C7.60435117,79 6.41819394,79 8,79 L8,62.9375 C11.933201,62.438992 15,59.064928 15,55 C15,50.935165 11.933201,47.592271 8,47.09375 L8,1 C6.14066709,1 6,1 6,1 Z M38,1 L38,17.09375 C34.066799,17.592266 31,20.935128 31,25 C31,29.064872 34.066799,32.438984 38,32.9375 L38,79 C39.8545343,79 39,79 40,79 L40,32.9375 C43.933201,32.438984 47,29.064872 47,25 C47,20.935128 43.933201,17.592266 40,17.09375 L40,1 C38.3098565,1 39.2131158,1 38,1 Z M70,1 L70,47.09375 C66.066799,47.592271 63,50.935165 63,55 C63,59.064928 66.066799,62.438992 70,62.9375 L70,79 C71,79 70.7703973,79 72,79 L72,62.9375 C75.933201,62.438992 79,59.064928 79,55 C79,50.935165 75.933201,47.592271 72,47.09375 L72,1 C72,1 70,1 70,1 Z M39,19 C42.325555,19 45,21.67444 45,25 C45,28.32556 42.325555,31 39,31 C35.674445,31 33,28.32556 33,25 C33,21.67444 35.674445,19 39,19 Z M7,49 C10.325555,49 13,51.6744 13,55 C13,58.3257 10.325555,61 7,61 C3.674445,61 1,58.3257 1,55 C1,51.6744 3.674445,49 7,49 Z M71,49 C74.325555,49 77,51.6744 77,55 C77,58.3257 74.325555,61 71,61 C67.674445,61 65,58.3257 65,55 C65,51.6744 67.674445,49 71,49 Z" id="Shape" transform="translate(39.000000, 40.000000) rotate(-90.000000) translate(-39.000000, -40.000000) "></path>
        </g>
    </g>
</svg>