<?xml version="1.0" encoding="UTF-8"?>
<svg width="24px" height="24px" viewBox="0 0 24 24" version="1.1" xmlns="http://www.w3.org/2000/svg" xmlns:xlink="http://www.w3.org/1999/xlink">
    <!-- Generator: Sketch 56.3 (81716) - https://sketch.com -->
    <title>icon / 24-cont / info / treasury-24</title>
    <desc>Created with Sketch.</desc>
    <defs>
        <path d="M8,20 L11,20 L11,12 C11,11.4477153 11.4477153,11 12,11 C12.5522847,11 13,11.4477153 13,12 L13,20 L16,20 L16,12 C16,11.4477153 16.4477153,11 17,11 C17.5522847,11 18,11.4477153 18,12 L18,20 L19,20 C19.5522847,20 20,20.4477153 20,21 C20,21.5522847 19.5522847,22 19,22 L5,22 C4.44771525,22 4,21.5522847 4,21 C4,20.4477153 4.44771525,20 5,20 L6,20 L6,12 C6,11.4477153 6.44771525,11 7,11 C7.55228475,11 8,11.4477153 8,12 L8,20 Z M12,2 L21,9 L3,9 L12,2 Z" id="path-1"></path>
    </defs>
    <g id="icon-/-24-cont-/-info-/-treasury-24" stroke="none" stroke-width="1" fill="none" fill-rule="evenodd">
        <mask id="mask-2" fill="white">
            <use xlink:href="#path-1"></use>
        </mask>
        <use id="Combined-Shape" fill="#7E7E7E" xlink:href="#path-1"></use>
        <g id="Colors-/-Dark-Theme-/-Grayscale-/-Filled-/-$base-gray" mask="url(#mask-2)" fill="#7E7E7E">
            <rect id="Dark-Theme-/-Grayscale-/-Filled-/-$base-gray" x="0" y="0" width="24" height="24" rx="2"></rect>
        </g>
    </g>
</svg>