<?xml version="1.0" encoding="UTF-8"?>
<svg width="60px" height="60px" viewBox="0 0 60 60" version="1.1" xmlns="http://www.w3.org/2000/svg" xmlns:xlink="http://www.w3.org/1999/xlink">
    <!-- Generator: Sketch 63.1 (92452) - https://sketch.com -->
    <title>Warehouse</title>
    <desc>Created with Sketch.</desc>
    <defs>
        <linearGradient x1="12.2265625%" y1="-31.593192%" x2="83.2571232%" y2="132.324219%" id="linearGradient-1">
            <stop stop-color="#EF33F2" offset="0%"></stop>
            <stop stop-color="#3544DC" offset="100%"></stop>
        </linearGradient>
        <path d="M10,0 L50,0 C55.5228475,-1.01453063e-15 60,4.4771525 60,10 L60,50 C60,55.5228475 55.5228475,60 50,60 L10,60 C4.4771525,60 -2.87635993e-15,55.5228475 0,50 L0,10 C-6.76353751e-16,4.4771525 4.4771525,-2.53818305e-15 10,0 Z" id="path-2"></path>
        <path d="M42.9997326,47 C41.3430979,47 40,45.6576871 40,44.0003023 C40,42.3429989 41.3430979,41 42.9997326,41 C44.6570531,41 46,42.3429989 46,44.0003023 C46,45.6576871 44.6570531,47 42.9997326,47 Z" id="path-4"></path>
        <filter x="-116.7%" y="-83.3%" width="333.3%" height="333.3%" filterUnits="objectBoundingBox" id="filter-5">
            <feOffset dx="0" dy="2" in="SourceAlpha" result="shadowOffsetOuter1"></feOffset>
            <feGaussianBlur stdDeviation="2" in="shadowOffsetOuter1" result="shadowBlurOuter1"></feGaussianBlur>
            <feColorMatrix values="0 0 0 0 0   0 0 0 0 0   0 0 0 0 0  0 0 0 0.2 0" type="matrix" in="shadowBlurOuter1"></feColorMatrix>
        </filter>
        <path d="M52.9998217,47 C51.8953986,47 51,46.1051247 51,45.0002015 C51,43.8953326 51.8953986,43 52.9998217,43 C54.1047021,43 55,43.8953326 55,45.0002015 C55,46.1051247 54.1047021,47 52.9998217,47 Z" id="path-6"></path>
        <filter x="-175.0%" y="-125.0%" width="450.0%" height="450.0%" filterUnits="objectBoundingBox" id="filter-7">
            <feOffset dx="0" dy="2" in="SourceAlpha" result="shadowOffsetOuter1"></feOffset>
            <feGaussianBlur stdDeviation="2" in="shadowOffsetOuter1" result="shadowBlurOuter1"></feGaussianBlur>
            <feColorMatrix values="0 0 0 0 0   0 0 0 0 0   0 0 0 0 0  0 0 0 0.2 0" type="matrix" in="shadowBlurOuter1"></feColorMatrix>
        </filter>
        <linearGradient x1="50%" y1="0%" x2="50%" y2="100%" id="linearGradient-8">
            <stop stop-color="#FFFFFF" offset="0%"></stop>
            <stop stop-color="#BFADFC" offset="100%"></stop>
        </linearGradient>
        <path d="M16.505,28.002 L19.8380665,31.8439793 C19.741473,31.9397303 19.6104016,32 19.4693878,32 L19.4693878,32 L16.5306122,32 C16.244898,32 16,31.7525773 16,31.4639175 L16,31.4639175 L16,28.5360825 C16,28.2474227 16.244898,28 16.5306122,28 L16.505,28.002 Z" id="path-9"></path>
        <filter x="-182.4%" y="-125.0%" width="464.8%" height="450.0%" filterUnits="objectBoundingBox" id="filter-10">
            <feOffset dx="0" dy="2" in="SourceAlpha" result="shadowOffsetOuter1"></feOffset>
            <feGaussianBlur stdDeviation="2" in="shadowOffsetOuter1" result="shadowBlurOuter1"></feGaussianBlur>
            <feColorMatrix values="0 0 0 0 0   0 0 0 0 0   0 0 0 0 0  0 0 0 0.2 0" type="matrix" in="shadowBlurOuter1"></feColorMatrix>
        </filter>
        <path d="M16.505,34.002 L19.8380665,37.8439793 C19.741473,37.9397303 19.6104016,38 19.4693878,38 L19.4693878,38 L16.5306122,38 C16.244898,38 16,37.7525773 16,37.4639175 L16,37.4639175 L16,34.5360825 C16,34.2474227 16.244898,34 16.5306122,34 L16.505,34.002 Z" id="path-11"></path>
        <filter x="-182.4%" y="-125.0%" width="464.8%" height="450.0%" filterUnits="objectBoundingBox" id="filter-12">
            <feOffset dx="0" dy="2" in="SourceAlpha" result="shadowOffsetOuter1"></feOffset>
            <feGaussianBlur stdDeviation="2" in="shadowOffsetOuter1" result="shadowBlurOuter1"></feGaussianBlur>
            <feColorMatrix values="0 0 0 0 0   0 0 0 0 0   0 0 0 0 0  0 0 0 0.2 0" type="matrix" in="shadowBlurOuter1"></feColorMatrix>
        </filter>
        <path d="M16.505,40.002 L19.8380665,43.8439793 C19.741473,43.9397303 19.6104016,44 19.4693878,44 L19.4693878,44 L16.5306122,44 C16.244898,44 16,43.7525773 16,43.4639175 L16,43.4639175 L16,40.5360825 C16,40.2474227 16.244898,40 16.5306122,40 L16.505,40.002 Z" id="path-13"></path>
        <filter x="-182.4%" y="-125.0%" width="464.8%" height="450.0%" filterUnits="objectBoundingBox" id="filter-14">
            <feOffset dx="0" dy="2" in="SourceAlpha" result="shadowOffsetOuter1"></feOffset>
            <feGaussianBlur stdDeviation="2" in="shadowOffsetOuter1" result="shadowBlurOuter1"></feGaussianBlur>
            <feColorMatrix values="0 0 0 0 0   0 0 0 0 0   0 0 0 0 0  0 0 0 0.2 0" type="matrix" in="shadowBlurOuter1"></feColorMatrix>
        </filter>
        <path d="M23.505,28.002 L26.8380665,31.8439793 C26.741473,31.9397303 26.6104016,32 26.4693878,32 L26.4693878,32 L23.5306122,32 C23.244898,32 23,31.7525773 23,31.4639175 L23,31.4639175 L23,28.5360825 C23,28.2474227 23.244898,28 23.5306122,28 L23.505,28.002 Z" id="path-15"></path>
        <filter x="-182.4%" y="-125.0%" width="464.8%" height="450.0%" filterUnits="objectBoundingBox" id="filter-16">
            <feOffset dx="0" dy="2" in="SourceAlpha" result="shadowOffsetOuter1"></feOffset>
            <feGaussianBlur stdDeviation="2" in="shadowOffsetOuter1" result="shadowBlurOuter1"></feGaussianBlur>
            <feColorMatrix values="0 0 0 0 0   0 0 0 0 0   0 0 0 0 0  0 0 0 0.2 0" type="matrix" in="shadowBlurOuter1"></feColorMatrix>
        </filter>
        <path d="M23.505,34.002 L26.8380665,37.8439793 C26.741473,37.9397303 26.6104016,38 26.4693878,38 L26.4693878,38 L23.5306122,38 C23.244898,38 23,37.7525773 23,37.4639175 L23,37.4639175 L23,34.5360825 C23,34.2474227 23.244898,34 23.5306122,34 L23.505,34.002 Z" id="path-17"></path>
        <filter x="-182.4%" y="-125.0%" width="464.8%" height="450.0%" filterUnits="objectBoundingBox" id="filter-18">
            <feOffset dx="0" dy="2" in="SourceAlpha" result="shadowOffsetOuter1"></feOffset>
            <feGaussianBlur stdDeviation="2" in="shadowOffsetOuter1" result="shadowBlurOuter1"></feGaussianBlur>
            <feColorMatrix values="0 0 0 0 0   0 0 0 0 0   0 0 0 0 0  0 0 0 0.2 0" type="matrix" in="shadowBlurOuter1"></feColorMatrix>
        </filter>
        <path d="M23.505,40.002 L26.8380665,43.8439793 C26.741473,43.9397303 26.6104016,44 26.4693878,44 L26.4693878,44 L23.5306122,44 C23.244898,44 23,43.7525773 23,43.4639175 L23,43.4639175 L23,40.5360825 C23,40.2474227 23.244898,40 23.5306122,40 L23.505,40.002 Z" id="path-19"></path>
        <filter x="-182.4%" y="-125.0%" width="464.8%" height="450.0%" filterUnits="objectBoundingBox" id="filter-20">
            <feOffset dx="0" dy="2" in="SourceAlpha" result="shadowOffsetOuter1"></feOffset>
            <feGaussianBlur stdDeviation="2" in="shadowOffsetOuter1" result="shadowBlurOuter1"></feGaussianBlur>
            <feColorMatrix values="0 0 0 0 0   0 0 0 0 0   0 0 0 0 0  0 0 0 0.2 0" type="matrix" in="shadowBlurOuter1"></feColorMatrix>
        </filter>
        <linearGradient x1="50%" y1="0%" x2="50%" y2="100%" id="linearGradient-21">
            <stop stop-color="#FFFFFF" offset="0%"></stop>
            <stop stop-color="#BFADFC" offset="100%"></stop>
        </linearGradient>
        <polygon id="path-22" points="10.3706055 19.619873 26.5 12.1943359 43.8530273 19.619873"></polygon>
        <filter x="-6.0%" y="-26.9%" width="111.9%" height="153.9%" filterUnits="objectBoundingBox" id="filter-23">
            <feGaussianBlur stdDeviation="1.5" in="SourceAlpha" result="shadowBlurInner1"></feGaussianBlur>
            <feOffset dx="0" dy="1" in="shadowBlurInner1" result="shadowOffsetInner1"></feOffset>
            <feComposite in="shadowOffsetInner1" in2="SourceAlpha" operator="arithmetic" k2="-1" k3="1" result="shadowInnerInner1"></feComposite>
            <feColorMatrix values="0 0 0 0 0   0 0 0 0 0   0 0 0 0 0  0 0 0 0.2 0" type="matrix" in="shadowInnerInner1"></feColorMatrix>
        </filter>
    </defs>
    <g id="App-icons" stroke="none" stroke-width="1" fill="none" fill-rule="evenodd">
        <g id="Categories" transform="translate(-847.000000, -417.000000)">
            <g id="Warehouse" transform="translate(847.000000, 417.000000)">
                <mask id="mask-3" fill="white">
                    <use xlink:href="#path-2"></use>
                </mask>
                <use id="Mask-Copy-6" fill="url(#linearGradient-1)" xlink:href="#path-2"></use>
                <path d="M36.4816898,26 L36.4816898,37.1476203 L38.1060765,37.1476203 L38.1060765,28.229409 L46.5434926,28.229409 L47.5660997,35.5641492 L57,37.1476203 L57,42.6431811 L56.3167442,42.7633231 C55.5979164,41.6993685 54.3806352,41 52.9996435,41 C51.1374105,41 49.5723198,42.2727743 49.1269858,43.9964009 L47.9998422,43.9603445 C47.978273,41.2166686 45.7483562,39 42.9995543,39 C40.3574551,39 38.1938588,41.0496119 38.0123285,43.6465381 L29.1738281,43.3682861 L30,41.3883845 L34.4363984,41.3883845 L34.4363984,26 L36.4816898,26 Z M45.1341561,29.6 L40.0833333,29.6 L40.0833333,36.8 L46.125,36.8 L45.1341561,29.6 Z" id="Combined-Shape" fill="#FFFFFF" fill-rule="nonzero" mask="url(#mask-3)"></path>
                <path d="M42.9996435,48 C40.7907972,48 39,46.2102494 39,44.0004031 C39,41.7906652 40.7907972,40 42.9996435,40 C45.2094042,40 47,41.7906652 47,44.0004031 C47,46.2102494 45.2094042,48 42.9996435,48 Z" id="Path" fill="#FFFFFF" mask="url(#mask-3)"></path>
                <path d="M52.9997326,48 C51.3430979,48 50,46.6576871 50,45.0003023 C50,43.3429989 51.3430979,42 52.9997326,42 C54.6570531,42 56,43.3429989 56,45.0003023 C56,46.6576871 54.6570531,48 52.9997326,48 Z" id="Path" fill="#FFFFFF" mask="url(#mask-3)"></path>
                <g id="Path" mask="url(#mask-3)">
                    <use fill="black" fill-opacity="1" filter="url(#filter-5)" xlink:href="#path-4"></use>
                    <use fill="url(#linearGradient-1)" fill-rule="evenodd" xlink:href="#path-4"></use>
                </g>
                <g id="Path" mask="url(#mask-3)">
                    <use fill="black" fill-opacity="1" filter="url(#filter-7)" xlink:href="#path-6"></use>
                    <use fill="url(#linearGradient-1)" fill-rule="evenodd" xlink:href="#path-6"></use>
                </g>
                <path d="M46.6002786,18.9193916 L26.7855153,10.0844106 C26.6142061,9.97186312 26.3857939,9.97186312 26.1573816,10.0844106 L6.45682451,18.9193916 C6.17130919,19.0319392 6,19.313308 6,19.5946768 L6,46.2684411 C6,46.6623574 6.34261838,47 6.74233983,47 L12.281337,47 C12.6810585,47 13.0236769,46.6623574 13.0236769,46.2684411 L13.0236769,25.278327 C13.0236769,24.8844106 13.3662953,24.5467681 13.7660167,24.5467681 L39.2910864,24.5467681 C39.6908078,24.5467681 40.0334262,24.8844106 40.0334262,25.278327 L40.0334262,26 C40.0334262,26.3939164 40.3401467,26.7547607 40.7398682,26.7547607 L46.3446045,26.7547607 C46.7443259,26.7547607 47,26.3939164 47,26 L47,19.5946768 C47,19.313308 46.8286908,19.0319392 46.6002786,18.9193916 Z" id="Path" fill="#FFFFFF" fill-rule="nonzero" mask="url(#mask-3)"></path>
                <path d="M19.4693878,40 L16.5306122,40 C16.244898,40 16,40.244898 16,40.5306122 L16,43.4693878 C16,43.755102 16.244898,44 16.5306122,44 L19.4693878,44 C19.755102,44 20,43.755102 20,43.4693878 L20,40.5306122 C20,40.244898 19.755102,40 19.4693878,40 Z" id="Path" fill="#FFFFFF" fill-rule="nonzero" mask="url(#mask-3)"></path>
                <path d="M26.4693878,40 L23.5306122,40 C23.244898,40 23,40.244898 23,40.5306122 L23,43.4693878 C23,43.755102 23.244898,44 23.5306122,44 L26.4693878,44 C26.755102,44 27,43.755102 27,43.4693878 L27,40.5306122 C27,40.244898 26.755102,40 26.4693878,40 Z" id="Path" fill="#FFFFFF" fill-rule="nonzero" mask="url(#mask-3)"></path>
                <path d="M19.4693878,34 L16.5306122,34 C16.244898,34 16,34.244898 16,34.5306122 L16,37.4693878 C16,37.755102 16.244898,38 16.5306122,38 L19.4693878,38 C19.755102,38 20,37.755102 20,37.4693878 L20,34.5306122 C20,34.244898 19.755102,34 19.4693878,34 Z" id="Path" fill="#FFFFFF" fill-rule="nonzero" mask="url(#mask-3)"></path>
                <path d="M26.4693878,34 L23.5306122,34 C23.244898,34 23,34.244898 23,34.5306122 L23,37.4693878 C23,37.755102 23.244898,38 23.5306122,38 L26.4693878,38 C26.755102,38 27,37.755102 27,37.4693878 L27,34.5306122 C27,34.244898 26.755102,34 26.4693878,34 Z" id="Path" fill="#FFFFFF" fill-rule="nonzero" mask="url(#mask-3)"></path>
                <path d="M19.4693878,28 L16.5306122,28 C16.244898,28 16,28.2474227 16,28.5360825 L16,31.4639175 C16,31.7525773 16.244898,32 16.5306122,32 L19.4693878,32 C19.755102,32 20,31.7525773 20,31.4639175 L20,28.4948454 C20,28.2474227 19.755102,28 19.4693878,28 Z" id="Path" fill="#FFFFFF" fill-rule="nonzero" mask="url(#mask-3)"></path>
                <g id="Combined-Shape" opacity="0.400000006" fill-rule="nonzero" mask="url(#mask-3)">
                    <use fill="black" fill-opacity="1" filter="url(#filter-10)" xlink:href="#path-9"></use>
                    <use fill="url(#linearGradient-8)" xlink:href="#path-9"></use>
                </g>
                <g id="Combined-Shape" opacity="0.400000006" fill-rule="nonzero" mask="url(#mask-3)">
                    <use fill="black" fill-opacity="1" filter="url(#filter-12)" xlink:href="#path-11"></use>
                    <use fill="url(#linearGradient-8)" xlink:href="#path-11"></use>
                </g>
                <g id="Combined-Shape" opacity="0.400000006" fill-rule="nonzero" mask="url(#mask-3)">
                    <use fill="black" fill-opacity="1" filter="url(#filter-14)" xlink:href="#path-13"></use>
                    <use fill="url(#linearGradient-8)" xlink:href="#path-13"></use>
                </g>
                <path d="M26.4693878,28 L23.5306122,28 C23.244898,28 23,28.2474227 23,28.5360825 L23,31.4639175 C23,31.7525773 23.244898,32 23.5306122,32 L26.4693878,32 C26.755102,32 27,31.7525773 27,31.4639175 L27,28.4948454 C27,28.2474227 26.755102,28 26.4693878,28 Z" id="Path" fill="#FFFFFF" fill-rule="nonzero" mask="url(#mask-3)"></path>
                <g id="Combined-Shape" opacity="0.400000006" fill-rule="nonzero" mask="url(#mask-3)">
                    <use fill="black" fill-opacity="1" filter="url(#filter-16)" xlink:href="#path-15"></use>
                    <use fill="url(#linearGradient-8)" xlink:href="#path-15"></use>
                </g>
                <g id="Combined-Shape" opacity="0.400000006" fill-rule="nonzero" mask="url(#mask-3)">
                    <use fill="black" fill-opacity="1" filter="url(#filter-18)" xlink:href="#path-17"></use>
                    <use fill="url(#linearGradient-8)" xlink:href="#path-17"></use>
                </g>
                <g id="Combined-Shape" opacity="0.400000006" fill-rule="nonzero" mask="url(#mask-3)">
                    <use fill="black" fill-opacity="1" filter="url(#filter-20)" xlink:href="#path-19"></use>
                    <use fill="url(#linearGradient-8)" xlink:href="#path-19"></use>
                </g>
                <g id="Path-20" opacity="0.400000006" fill-rule="nonzero" mask="url(#mask-3)">
                    <use fill="url(#linearGradient-21)" xlink:href="#path-22"></use>
                    <use fill="black" fill-opacity="1" filter="url(#filter-23)" xlink:href="#path-22"></use>
                </g>
            </g>
        </g>
    </g>
</svg>