<svg width="24" height="24" viewBox="0 0 24 24" fill="none" xmlns="http://www.w3.org/2000/svg">
<g id="icon / 24-cont / nav / cart-24">
<path id="cart-24" fill-rule="evenodd" clip-rule="evenodd" d="M10.4529 9.00767H11.4012H13.6803H16.4483H18.8339C18.7577 9.33507 18.6058 9.92575 18.4514 10.5257C18.286 11.1686 18.1179 11.8221 18.0374 12.1739C17.9693 12.4677 17.9013 12.761 17.8333 13.0542C17.7653 13.3475 17.6973 13.6407 17.6293 13.9345L17.5966 14.0765H17.4065H15.0761H12.249H9.81414C9.69136 14.0765 9.56838 14.0759 9.44533 14.0753L9.38632 13.7985C9.31535 13.3973 9.24486 12.9965 9.17438 12.5958C9.1039 12.1951 9.03342 11.7944 8.96245 11.3932C8.87669 10.9082 8.79142 10.4232 8.70615 9.93826C8.62088 9.45325 8.53561 8.96825 8.44985 8.48324C8.37592 8.06429 8.30199 7.64485 8.22805 7.22541C8.15412 6.80597 8.08019 6.38653 8.00626 5.96758C7.98347 5.83654 7.9621 5.70509 7.94072 5.57356C7.89552 5.29547 7.85026 5.01702 7.79136 4.74129C7.79038 4.73834 7.78988 4.73538 7.78939 4.73242C7.7889 4.72946 7.78841 4.72651 7.78742 4.72355L7.78738 4.72345C7.75388 4.64463 7.72037 4.5658 7.68884 4.48894C7.62773 4.37459 7.54295 4.28193 7.43452 4.21292C7.25905 4.07886 7.05598 4 6.8332 4H4.355H4.00407C3.75171 4 3.48556 4.11041 3.30615 4.28784C3.13857 4.45936 3.00845 4.73932 3.02028 4.98576C3.03211 5.24009 3.11491 5.50427 3.30812 5.68368C3.50133 5.86112 3.73791 5.97152 4.00604 5.97152C4.41907 5.97152 4.71105 5.97054 5.00302 5.96955C5.29499 5.96857 5.58697 5.96758 6 5.96758L6.06037 6.24951C6.13134 6.65071 6.20182 7.05142 6.2723 7.45214C6.34279 7.85285 6.41327 8.25356 6.48424 8.65476C6.57 9.13975 6.65527 9.62473 6.74054 10.1097C6.82581 10.5947 6.91108 11.0797 6.99684 11.5647C7.07077 11.9837 7.1447 12.4031 7.21864 12.8226C7.29257 13.242 7.3665 13.6614 7.44043 14.0804C7.46322 14.2114 7.48459 14.3429 7.50597 14.4744C7.55117 14.7525 7.59643 15.031 7.65533 15.3067C7.65631 15.3096 7.65681 15.3126 7.6573 15.3156C7.65779 15.3185 7.65829 15.3215 7.65927 15.3244C7.69279 15.4033 7.7263 15.4821 7.75785 15.559C7.81896 15.6734 7.90374 15.766 8.01217 15.835C8.1837 15.9671 8.38676 16.046 8.60954 16.046H9.58348H11.9138H14.741H17.1758C17.3072 16.046 17.4388 16.0471 17.5704 16.0482C17.8339 16.0504 18.0978 16.0526 18.3607 16.046H18.3784C18.7964 16.046 19.2321 15.7404 19.3287 15.3225C19.3553 15.2051 19.3824 15.0883 19.4095 14.9715C19.4367 14.8547 19.4638 14.7379 19.4904 14.6206C19.5639 14.3052 19.6369 13.9898 19.7099 13.674C19.766 13.4312 19.8222 13.1882 19.8788 12.9448C20.0365 12.2666 20.1942 11.5884 20.35 10.9082C20.418 10.6145 20.486 10.3212 20.554 10.0279C20.622 9.73467 20.69 9.4414 20.7581 9.14764C20.7829 9.03916 20.8084 8.93068 20.8338 8.82209C20.875 8.64649 20.9162 8.47061 20.9552 8.29398C20.9552 8.292 20.9557 8.29003 20.9562 8.28806C20.9567 8.28609 20.9572 8.28412 20.9572 8.28215C21.0301 7.97065 20.9769 7.67689 20.7817 7.42256C20.5944 7.18007 20.3204 7.03417 20.0069 7.03417H19.0586H16.7795H14.0115H11.626C11.4972 7.03417 11.3684 7.03352 11.2396 7.03286C10.9819 7.03154 10.7243 7.03023 10.4667 7.03417H10.4509C10.1986 7.03417 9.93244 7.14458 9.75303 7.32202C9.5815 7.49354 9.45336 7.77349 9.46519 8.01993C9.47701 8.27426 9.55982 8.53844 9.75303 8.71785C9.94821 8.89529 10.1868 9.00767 10.4529 9.00767ZM10 17C8.90722 17 8 17.8866 8 19C8 20.1134 8.8866 21 10 21C11.1134 21 12 20.1134 12 19C12 17.8866 11.1134 17 10 17ZM17 17C15.9072 17 15 17.8866 15 19C15 20.1134 15.8866 21 17 21C18.1134 21 19 20.1134 19 19C19 17.8866 18.1134 17 17 17Z" fill="#7E7E7E"/>
</g>
</svg>
