<svg width="24" height="24" viewBox="0 0 24 24" fill="none" xmlns="http://www.w3.org/2000/svg">
<g id="icon / 24-cont / nav / notification-24">
<path id="notification-24" fill-rule="evenodd" clip-rule="evenodd" d="M6.75 10.7824C6.75 8.41117 8.42314 6.42027 10.6875 5.85583V5.27198C10.6875 4.56949 11.2766 4 12 4C12.7249 4 13.3125 4.56783 13.3125 5.27198V5.85585C15.5772 6.42046 17.25 8.4121 17.25 10.7824V14.1734C17.25 14.4878 17.5109 14.7391 17.8327 14.7391C18.4749 14.7391 19 15.2452 19 15.8696V16.7182C19 16.872 18.8691 17 18.7076 17H5.29241C5.12965 17 5 16.8738 5 16.7182V15.8696C5 15.2465 5.52261 14.7391 6.16728 14.7391C6.48801 14.7391 6.75 14.4859 6.75 14.1734V10.7824ZM12 20C13.1046 20 14 19.1046 14 18H10C10 19.1046 10.8954 20 12 20Z" fill="#7E7E7E"/>
</g>
</svg>
