<svg width="24" height="24" viewBox="0 0 24 24" fill="none" xmlns="http://www.w3.org/2000/svg">
<g id="icon / 24-cont / nav / parameters-24">
<path id="Mask" fill-rule="evenodd" clip-rule="evenodd" d="M14 7C14 5.89543 13.1046 5 12 5C10.8954 5 10 5.89543 10 7C10 8.10457 10.8954 9 12 9C13.1046 9 14 8.10457 14 7ZM21 12C21 10.8954 20.1046 10 19 10C17.8954 10 17 10.8954 17 12C17 13.1046 17.8954 14 19 14C20.1046 14 21 13.1046 21 12ZM10 15C11.1046 15 12 15.8954 12 17C12 18.1046 11.1046 19 10 19C8.89543 19 8 18.1046 8 17C8 15.8954 8.89543 15 10 15ZM4 6H8.12602C8.04375 6.31962 8 6.6547 8 7C8 7.3453 8.04375 7.68038 8.12602 8H4C3.44772 8 3 7.55228 3 7C3 6.44772 3.44772 6 4 6ZM20 8H15.874C15.9562 7.68038 16 7.3453 16 7C16 6.6547 15.9562 6.31962 15.874 6H20C20.5523 6 21 6.44772 21 7C21 7.55228 20.5523 8 20 8ZM4 11H15.126C15.0438 11.3196 15 11.6547 15 12C15 12.3453 15.0438 12.6804 15.126 13H4C3.44772 13 3 12.5523 3 12C3 11.4477 3.44772 11 4 11ZM6.12602 16H4C3.44772 16 3 16.4477 3 17C3 17.5523 3.44772 18 4 18H6.12602C6.04375 17.6804 6 17.3453 6 17C6 16.6547 6.04375 16.3196 6.12602 16ZM13.874 18H20C20.5523 18 21 17.5523 21 17C21 16.4477 20.5523 16 20 16H13.874C13.9562 16.3196 14 16.6547 14 17C14 17.3453 13.9562 17.6804 13.874 18Z" fill="#7E7E7E"/>
</g>
</svg>
