<svg width="24" height="24" viewBox="0 0 24 24" fill="none" xmlns="http://www.w3.org/2000/svg">
<g id="icon / 24-cont / editing / bold-24">
<path id="bold-24" fill-rule="evenodd" clip-rule="evenodd" d="M15.8932 10.8118C17.1825 11.873 18 13.4516 18 15.2143C18 18.4096 15.3137 21 12 21H6V3H11.3333C14.2789 3 16.6667 5.30254 16.6667 8.14286C16.6667 9.12012 16.384 10.0337 15.8932 10.8118ZM10 13V17H12C13.1046 17 14 16.1046 14 15C14 13.8954 13.1046 13 12 13H10ZM10 10V7H11C11.5523 7 12 7.67157 12 8.5C12 9.32843 11.5523 10 11 10H10Z" fill="#7E7E7E"/>
</g>
</svg>
